<svg width="56" height="69" viewBox="0 0 56 69" fill="none" xmlns="http://www.w3.org/2000/svg">
<path d="M30.2698 3.53047C23.5899 -0.333693 17.5066 -0.917779 12.9412 1.25074L9.26797 3.33532V3.35443C13.8238 1.23299 19.8744 1.83346 26.5141 5.67442C40.6869 13.8736 52.1752 33.7294 52.1752 50.0246C52.1752 57.9352 49.4683 63.5509 45.0616 66.2994L47.5241 64.8576C52.6887 62.4489 55.9316 56.5384 55.9316 47.8814C55.9316 31.5861 44.4426 11.7296 30.2698 3.53047Z" fill="url(#paint0_linear_312_719)"/>
<path d="M26.5135 5.67509C12.3414 -2.52406 0.852356 4.04017 0.852356 20.3348C0.852356 36.6293 12.3414 56.4858 26.5135 64.685C40.6863 72.8841 52.1746 66.3199 52.1746 50.0253C52.1746 33.73 40.6863 13.8736 26.5135 5.67509Z" fill="url(#paint1_linear_312_719)"/>
<path d="M26.8942 5.45677C19.7063 1.29919 13.211 0.939602 8.55237 3.71951C13.1811 1.17979 19.5197 1.62877 26.5135 5.67444C40.6856 13.8736 52.1747 33.7294 52.1747 50.0247C52.1747 58.0566 49.3826 63.7209 44.8554 66.4223C49.606 63.8157 52.5546 58.0607 52.5546 49.807C52.5553 33.5117 41.0663 13.6559 26.8942 5.45677Z" fill="white"/>
<path d="M52.1746 50.0246C52.1746 66.3206 40.6856 72.8835 26.5135 64.6843C12.3414 56.4858 0.852356 36.6294 0.852356 20.3341C0.852356 4.03882 12.3414 -2.52473 26.5135 5.67442C40.6863 13.8736 52.1746 33.73 52.1746 50.0246Z" fill="url(#paint2_linear_312_719)"/>
<path d="M50.7854 49.2208C50.7854 64.6338 39.9181 70.8425 26.5135 63.0869C13.1088 55.3313 2.24158 36.5509 2.24158 21.1379C2.24158 5.72492 13.1088 -0.483129 26.5135 7.27181C39.9188 15.0274 50.7854 33.8085 50.7854 49.2208Z" fill="white"/>
<path d="M47.2873 47.1976C47.2873 60.3889 37.9863 65.7017 26.5136 59.0651C15.0409 52.4285 5.74063 36.3544 5.74063 23.1631C5.74063 9.97186 15.0409 4.65838 26.5136 11.2956C37.987 17.9322 47.2873 34.0064 47.2873 47.1976Z" fill="#AFB6E5"/>
<path d="M43.351 44.9206C43.351 55.6124 35.8131 59.9187 26.5135 54.5397C17.2145 49.1601 9.67596 36.1312 9.67596 25.4401C9.67596 14.749 17.2145 10.442 26.5135 15.821C35.8131 21.2 43.351 34.2281 43.351 44.9206Z" fill="white"/>
<path d="M39.6338 42.7699C39.6338 51.1007 33.7602 54.4565 26.5138 50.2649C19.268 46.0725 13.3938 35.9211 13.3938 27.5896C13.3938 19.2581 19.268 15.9022 26.5138 20.0946C33.7602 24.2863 39.6338 34.4384 39.6338 42.7699Z" fill="#AFB6E5"/>
<path d="M36.135 40.7453C36.135 46.8551 31.8277 49.3163 26.514 46.2423C21.2002 43.1683 16.8929 35.7232 16.8929 29.6134C16.8929 23.5036 21.2009 21.043 26.514 24.117C31.8277 27.1917 36.135 34.6362 36.135 40.7453Z" fill="white"/>
<path d="M26.8887 62.8529C13.4834 55.0986 2.6168 36.3168 2.6168 20.9038C2.6168 13.5453 5.09493 8.28713 9.14206 5.64233C4.8736 8.20252 2.24225 13.5556 2.24225 21.1379C2.24225 36.5509 13.1095 55.3326 26.5142 63.0869C33.5195 67.1394 39.831 67.3769 44.2615 64.4823C39.8527 67.1271 33.6986 66.7921 26.8887 62.8529Z" fill="#AFB6E5"/>
<path d="M26.8887 54.305C17.5898 48.9253 10.0512 35.8965 10.0512 25.2054C10.0512 20.0816 11.7857 16.429 14.6125 14.6016C11.563 16.3409 9.67664 20.0918 9.67664 25.4401C9.67664 36.1319 17.2145 49.1608 26.5142 54.5397C31.3567 57.3408 35.7191 57.5107 38.7904 55.5244C35.7436 57.2623 31.5358 56.9935 26.8887 54.305Z" fill="#CED3F4"/>
<path d="M26.8885 46.0076C21.5747 42.9336 17.2675 35.4885 17.2675 29.3787C17.2675 26.5305 18.2038 24.4759 19.7422 23.4053C17.9832 24.392 16.8922 26.5408 16.8922 29.6134C16.8922 35.7232 21.2002 43.1683 26.5133 46.2423C29.3496 47.8827 31.8986 47.9462 33.6596 46.7193C31.9217 47.6951 29.5294 47.5361 26.8885 46.0076Z" fill="#CED3F4"/>
<path d="M31.8673 38.2766C31.8673 41.676 29.4702 43.0455 26.5133 41.3349C23.5565 39.6242 21.1594 35.4816 21.1594 32.0822C21.1594 28.6827 23.5565 27.3132 26.5133 29.0239C29.4702 30.7345 31.8673 34.8771 31.8673 38.2766Z" fill="url(#paint3_linear_312_719)"/>
<path opacity="0.5" d="M27.0853 35.3022C27.0853 35.5697 26.8966 35.6775 26.6637 35.5431C26.4308 35.4087 26.2422 35.0825 26.2422 34.815C26.2422 34.5475 26.4308 34.4397 26.6637 34.5741C26.8966 34.7086 27.0853 35.0347 27.0853 35.3022Z" fill="url(#paint4_linear_312_719)"/>
<path d="M26.5132 29.0239C25.1757 28.2501 23.954 28.1088 23.0156 28.4978C23.8982 28.2712 24.9837 28.4636 26.157 29.1426C29.1139 30.8532 31.511 34.9958 31.511 38.396C31.511 40.2581 30.7905 41.5095 29.6546 41.9804C30.9948 41.6371 31.8672 40.327 31.8672 38.2766C31.8672 34.8771 29.4701 30.7345 26.5132 29.0239Z" fill="#BB6DF3"/>
<defs>
<linearGradient id="paint0_linear_312_719" x1="56.1957" y1="58.3469" x2="16.1346" y2="-0.71612" gradientUnits="userSpaceOnUse">
<stop offset="0.0909" stop-color="#4088EC"/>
<stop offset="0.5" stop-color="#388CD6"/>
<stop offset="0.691" stop-color="#4EC0EA"/>
<stop offset="0.798" stop-color="#58D9F3"/>
<stop offset="1" stop-color="#38A6F5"/>
</linearGradient>
<linearGradient id="paint1_linear_312_719" x1="0.852771" y1="20.3344" x2="52.175" y2="20.3344" gradientUnits="userSpaceOnUse">
<stop stop-color="#311B61"/>
<stop offset="0.2031" stop-color="#290F52"/>
<stop offset="0.4949" stop-color="#200041"/>
<stop offset="1" stop-color="#0F001F"/>
</linearGradient>
<linearGradient id="paint2_linear_312_719" x1="42.11" y1="20.6083" x2="8.45215" y2="51.9294" gradientUnits="userSpaceOnUse">
<stop stop-color="#00C7C5"/>
<stop offset="0.3301" stop-color="#2D9BE0"/>
<stop offset="0.6313" stop-color="#5277F7"/>
<stop offset="0.6913" stop-color="#5B76F7"/>
<stop offset="0.7887" stop-color="#7374F6"/>
<stop offset="0.9106" stop-color="#9A70F4"/>
<stop offset="1" stop-color="#BB6DF3"/>
</linearGradient>
<linearGradient id="paint3_linear_312_719" x1="15.2639" y1="49.0105" x2="29.2206" y2="31.9214" gradientUnits="userSpaceOnUse">
<stop offset="0.0051" stop-color="#836DF3"/>
<stop offset="0.0529" stop-color="#8C6DF3"/>
<stop offset="0.2205" stop-color="#A66DF3"/>
<stop offset="0.3713" stop-color="#B56DF3"/>
<stop offset="0.4899" stop-color="#BB6DF3"/>
<stop offset="1" stop-color="#F36DD4"/>
</linearGradient>
<linearGradient id="paint4_linear_312_719" x1="26.2421" y1="35.0583" x2="27.085" y2="35.0583" gradientUnits="userSpaceOnUse">
<stop stop-color="#311B61"/>
<stop offset="0.2031" stop-color="#290F52"/>
<stop offset="0.4949" stop-color="#200041"/>
<stop offset="1" stop-color="#0F001F"/>
</linearGradient>
</defs>
</svg>
