<svg width="80" height="80" viewBox="0 0 80 80" fill="none" xmlns="http://www.w3.org/2000/svg">
<path d="M56.9038 77.4437C68.7853 77.4437 78.4171 72.4075 78.4171 66.1951C78.4171 59.9827 68.7853 54.9465 56.9038 54.9465C45.0224 54.9465 35.3906 59.9827 35.3906 66.1951C35.3906 72.4075 45.0224 77.4437 56.9038 77.4437Z" fill="url(#paint0_radial_334_1524)"/>
<path d="M46.2696 11.5305C39.5898 7.66631 33.5065 7.08222 28.9411 9.25074L25.2678 11.3353V11.3544C29.8237 9.23299 35.8743 9.83346 42.5139 13.6744C56.6867 21.8736 68.1751 41.7294 68.1751 58.0246C68.1751 65.9352 65.4681 71.5509 61.0614 74.2994L63.5239 72.8576C68.6885 70.4489 71.9314 64.5384 71.9314 55.8814C71.9314 39.5861 60.4424 19.7296 46.2696 11.5305Z" fill="url(#paint1_linear_334_1524)"/>
<path d="M42.5134 13.6751C28.3413 5.47597 16.8523 12.0402 16.8523 28.3348C16.8523 44.6294 28.3413 64.4859 42.5134 72.685C56.6862 80.8842 68.1746 74.3199 68.1746 58.0253C68.1746 41.7301 56.6862 21.8736 42.5134 13.6751Z" fill="url(#paint2_linear_334_1524)"/>
<path d="M42.8941 13.4568C35.7062 9.29919 29.2109 8.9396 24.5522 11.7195C29.1809 9.17979 35.5196 9.62877 42.5134 13.6744C56.6855 21.8736 68.1745 41.7294 68.1745 58.0247C68.1745 66.0566 65.3825 71.7209 60.8552 74.4223C65.6058 71.8157 68.5545 66.0607 68.5545 57.807C68.5552 41.5117 57.0662 21.6559 42.8941 13.4568Z" fill="white"/>
<path d="M68.1746 58.0246C68.1746 74.3206 56.6855 80.8835 42.5134 72.6843C28.3413 64.4858 16.8523 44.6294 16.8523 28.3341C16.8523 12.0388 28.3413 5.47526 42.5134 13.6744C56.6862 21.8736 68.1746 41.73 68.1746 58.0246Z" fill="url(#paint3_linear_334_1524)"/>
<path d="M66.7853 57.2208C66.7853 72.6338 55.918 78.8425 42.5134 71.0869C29.1087 63.3313 18.2415 44.5509 18.2415 29.1379C18.2415 13.7249 29.1087 7.51687 42.5134 15.2718C55.9187 23.0274 66.7853 41.8085 66.7853 57.2208Z" fill="white"/>
<path d="M63.2871 55.1977C63.2871 68.3889 53.9861 73.7017 42.5135 67.0651C31.0408 60.4286 21.7405 44.3544 21.7405 31.1631C21.7405 17.9719 31.0408 12.6584 42.5135 19.2957C53.9868 25.9322 63.2871 42.0064 63.2871 55.1977Z" fill="#AFB6E5"/>
<path d="M59.3511 52.9206C59.3511 63.6124 51.8132 67.9188 42.5135 62.5398C33.2146 57.1601 25.676 44.1313 25.676 33.4402C25.676 22.749 33.2146 18.442 42.5135 23.821C51.8132 29.2 59.3511 42.2282 59.3511 52.9206Z" fill="white"/>
<path d="M55.6338 50.7699C55.6338 59.1007 49.7602 62.4565 42.5138 58.2648C35.268 54.0724 29.3938 43.9211 29.3938 35.5896C29.3938 27.258 35.268 23.9022 42.5138 28.0946C49.7602 32.2863 55.6338 42.4383 55.6338 50.7699Z" fill="#AFB6E5"/>
<path d="M52.1349 48.7453C52.1349 54.8551 47.8276 57.3164 42.5139 54.2424C37.2001 51.1684 32.8928 43.7232 32.8928 37.6134C32.8928 31.5036 37.2008 29.0431 42.5139 32.1171C47.8276 35.1917 52.1349 42.6362 52.1349 48.7453Z" fill="white"/>
<path d="M42.8886 70.8529C29.4833 63.0986 18.6167 44.3169 18.6167 28.9039C18.6167 21.5454 21.0949 16.2872 25.142 13.6424C20.8735 16.2026 18.2422 21.5556 18.2422 29.1379C18.2422 44.5509 29.1095 63.3327 42.5141 71.0869C49.5195 75.1394 55.8309 75.3769 60.2614 72.4824C55.8527 75.1272 49.6986 74.7921 42.8886 70.8529Z" fill="#AFB6E5"/>
<path d="M42.8886 62.305C33.5896 56.9254 26.0511 43.8965 26.0511 33.2054C26.0511 28.0816 27.7855 24.429 30.6123 22.6017C27.5629 24.341 25.6765 28.0919 25.6765 33.4402C25.6765 44.1319 33.2144 57.1608 42.514 62.5398C47.3566 65.3408 51.719 65.5107 54.7903 63.5244C51.7435 65.2624 47.5357 64.9935 42.8886 62.305Z" fill="#CED3F4"/>
<path d="M42.8884 54.0076C37.5746 50.9336 33.2673 43.4885 33.2673 37.3787C33.2673 34.5306 34.2037 32.476 35.742 31.4054C33.983 32.392 32.8921 34.5408 32.8921 37.6134C32.8921 43.7232 37.2 51.1684 42.5131 54.2424C45.3495 55.8827 47.8984 55.9462 49.6595 54.7193C47.9216 55.6951 45.5293 55.5361 42.8884 54.0076Z" fill="#CED3F4"/>
<path d="M47.8673 46.2766C47.8673 49.676 45.4702 51.0455 42.5134 49.3349C39.5565 47.6242 37.1594 43.4816 37.1594 40.0822C37.1594 36.6827 39.5565 35.3132 42.5134 37.0239C45.4702 38.7345 47.8673 42.8771 47.8673 46.2766Z" fill="url(#paint4_linear_334_1524)"/>
<path opacity="0.5" d="M43.0853 43.3022C43.0853 43.5697 42.8966 43.6775 42.6637 43.5431C42.4308 43.4087 42.2422 43.0825 42.2422 42.815C42.2422 42.5475 42.4308 42.4397 42.6637 42.5741C42.8966 42.7086 43.0853 43.0347 43.0853 43.3022Z" fill="url(#paint5_linear_334_1524)"/>
<path d="M42.5132 37.0239C41.1757 36.2501 39.954 36.1088 39.0156 36.4978C39.8982 36.2712 40.9837 36.4636 42.157 37.1426C45.1139 38.8532 47.511 42.9958 47.511 46.396C47.511 48.2581 46.7905 49.5095 45.6546 49.9804C46.9948 49.6371 47.8672 48.327 47.8672 46.2766C47.8672 42.8771 45.4701 38.7345 42.5132 37.0239Z" fill="#BB6DF3"/>
<path d="M4.03718 65.6622L1.2315 65.2835C-0.303458 65.0761 -0.447145 62.9083 1.04695 62.4989L16.7758 58.1912L4.03718 65.6622Z" fill="url(#paint6_linear_334_1524)"/>
<path d="M4.14758 65.3865L1.34189 65.0078C0.369438 64.8768 -0.0425651 63.9577 0.164456 63.1982C-0.245501 63.9918 0.136537 65.1354 1.23157 65.2835L4.03725 65.6622L16.7759 58.1911L16.1017 58.376L4.14758 65.3865Z" fill="#5277F7"/>
<path opacity="0.7" d="M1.29992 65.0891L4.1056 65.4678L16.2804 58.327L16.1019 58.3754L4.14782 65.3866L1.34214 65.0079C0.369681 64.8769 -0.0423217 63.9577 0.1647 63.1983C0.148356 63.2303 0.13542 63.2638 0.121119 63.2972C-0.0770491 64.0533 0.333591 64.9581 1.29992 65.0891Z" fill="#836DF3"/>
<path d="M43.6097 42.7004C43.6097 42.7563 43.5906 42.7959 43.5593 42.8143C43.5593 42.8143 43.2781 44.104 39.8384 46.1005C34.925 48.9521 37.1117 47.4352 37.1117 47.4352C36.9796 47.5096 37.0626 47.3438 36.8652 47.2298C36.4675 46.9999 36.1453 46.4431 36.1453 45.9859C36.1453 45.7594 35.9363 45.758 36.0643 45.6823C36.0643 45.6823 33.6597 46.8341 38.5799 43.9825C42.0312 41.9819 43.3039 42.3756 43.3039 42.3756C43.3366 42.3578 43.3809 42.3612 43.4299 42.3892C43.5293 42.4472 43.6097 42.5864 43.6097 42.7004Z" fill="#AFB6E5"/>
<path d="M37.4947 47.0258C37.4947 47.5444 37.129 47.7532 36.6775 47.4925C36.226 47.2312 35.8604 46.5987 35.8604 46.0808C35.8604 45.5615 36.226 45.3527 36.6775 45.6133C37.129 45.874 37.4947 46.5065 37.4947 47.0258Z" fill="#CED3F4"/>
<path d="M37.3316 47.0442C37.3316 47.2858 37.2478 47.4571 37.1123 47.541L3.17373 67.3074C3.03276 67.3859 3.12265 67.2071 2.90882 67.0836C2.47775 66.8338 2.1284 66.2306 2.1284 65.7346C2.1284 65.4903 1.90231 65.4882 2.04123 65.4064L36.0071 45.6359C36.1473 45.5601 36.3394 45.5738 36.5512 45.6966C36.9816 45.9457 37.3316 46.5495 37.3316 47.0442Z" fill="url(#paint7_linear_334_1524)"/>
<path d="M3.3726 66.8168C3.3726 67.3128 3.02325 67.5121 2.59218 67.2623C2.16111 67.0126 1.81177 66.4094 1.81177 65.914C1.81177 65.4179 2.16111 65.2187 2.59218 65.4684C3.02325 65.7182 3.3726 66.3214 3.3726 66.8168Z" fill="#361CAC"/>
<path d="M3.56896 64.6298L16.5793 57.1192L6.42573 56.286C2.62239 55.9742 0.258661 60.3365 2.59174 63.362L3.56896 64.6298Z" fill="#5277F7"/>
<path d="M3.77539 64.5882L16.7857 57.0775L6.63147 56.2444C2.82814 55.9325 0.465085 60.2948 2.79816 63.3204L3.77539 64.5882Z" fill="url(#paint8_linear_334_1524)"/>
<path opacity="0.7" d="M2.99047 63.4037C0.657389 60.3774 3.0211 56.0158 6.82444 56.3276L16.6845 57.1369L16.7853 57.0782L6.63173 56.2451C2.82839 55.9332 0.465346 60.2955 2.79774 63.3211L3.77565 64.5882L3.86417 64.537L2.99047 63.4037Z" fill="#836DF3"/>
<path d="M4.39307 66.1603L4.71245 67.3108C5.56437 70.38 9.64215 70.9886 11.3494 68.3002L17.4041 58.7664L4.39307 66.1603Z" fill="#5277F7"/>
<path d="M4.59473 65.9952L4.91412 67.1457C5.76604 70.2149 9.84381 70.8236 11.5504 68.1351L17.6051 58.6013L4.59473 65.9952Z" fill="url(#paint9_linear_334_1524)"/>
<path opacity="0.7" d="M11.6604 67.942C9.95315 70.6298 5.87538 70.0218 5.02346 66.9526L4.7354 65.9147L4.59375 65.9946L4.91314 67.145C5.76506 70.2142 9.84216 70.8229 11.5494 68.1344L17.6041 58.6006L17.5844 58.6122L11.6604 67.942Z" fill="#836DF3"/>
<defs>
<radialGradient id="paint0_radial_334_1524" cx="0" cy="0" r="1" gradientUnits="userSpaceOnUse" gradientTransform="translate(56.905 66.1945) scale(21.5123 11.2494)">
<stop offset="0.1919" stop-color="#AFB6E5"/>
<stop offset="1" stop-color="white"/>
</radialGradient>
<linearGradient id="paint1_linear_334_1524" x1="72.1955" y1="66.3469" x2="32.1345" y2="7.28388" gradientUnits="userSpaceOnUse">
<stop offset="0.0909" stop-color="#4088EC"/>
<stop offset="0.5" stop-color="#388CD6"/>
<stop offset="0.691" stop-color="#4EC0EA"/>
<stop offset="0.798" stop-color="#58D9F3"/>
<stop offset="1" stop-color="#38A6F5"/>
</linearGradient>
<linearGradient id="paint2_linear_334_1524" x1="16.8527" y1="28.3344" x2="68.175" y2="28.3344" gradientUnits="userSpaceOnUse">
<stop stop-color="#311B61"/>
<stop offset="0.2031" stop-color="#290F52"/>
<stop offset="0.4949" stop-color="#200041"/>
<stop offset="1" stop-color="#0F001F"/>
</linearGradient>
<linearGradient id="paint3_linear_334_1524" x1="58.11" y1="28.6083" x2="24.4521" y2="59.9294" gradientUnits="userSpaceOnUse">
<stop stop-color="#00C7C5"/>
<stop offset="0.3301" stop-color="#2D9BE0"/>
<stop offset="0.6313" stop-color="#5277F7"/>
<stop offset="0.6913" stop-color="#5B76F7"/>
<stop offset="0.7887" stop-color="#7374F6"/>
<stop offset="0.9106" stop-color="#9A70F4"/>
<stop offset="1" stop-color="#BB6DF3"/>
</linearGradient>
<linearGradient id="paint4_linear_334_1524" x1="31.2639" y1="57.0105" x2="45.2206" y2="39.9214" gradientUnits="userSpaceOnUse">
<stop offset="0.0051" stop-color="#836DF3"/>
<stop offset="0.0529" stop-color="#8C6DF3"/>
<stop offset="0.2205" stop-color="#A66DF3"/>
<stop offset="0.3713" stop-color="#B56DF3"/>
<stop offset="0.4899" stop-color="#BB6DF3"/>
<stop offset="1" stop-color="#F36DD4"/>
</linearGradient>
<linearGradient id="paint5_linear_334_1524" x1="42.2421" y1="43.0583" x2="43.085" y2="43.0583" gradientUnits="userSpaceOnUse">
<stop stop-color="#311B61"/>
<stop offset="0.2031" stop-color="#290F52"/>
<stop offset="0.4949" stop-color="#200041"/>
<stop offset="1" stop-color="#0F001F"/>
</linearGradient>
<linearGradient id="paint6_linear_334_1524" x1="0.00040144" y1="61.9263" x2="16.7761" y2="61.9263" gradientUnits="userSpaceOnUse">
<stop offset="0.0051" stop-color="#00C7C5"/>
<stop offset="0.399" stop-color="#5277F7"/>
<stop offset="0.5195" stop-color="#6176F6"/>
<stop offset="0.7529" stop-color="#8A72F5"/>
<stop offset="1" stop-color="#BB6DF3"/>
</linearGradient>
<linearGradient id="paint7_linear_334_1524" x1="19.147" y1="55.3753" x2="20.2805" y2="57.3402" gradientUnits="userSpaceOnUse">
<stop offset="0.0051" stop-color="#273B98"/>
<stop offset="0.2274" stop-color="#2F2BA2"/>
<stop offset="0.399" stop-color="#361CAC"/>
<stop offset="0.768" stop-color="#440B89"/>
<stop offset="1" stop-color="#4E0070"/>
</linearGradient>
<linearGradient id="paint8_linear_334_1524" x1="3.29365" y1="61.004" x2="31.6815" y2="47.0681" gradientUnits="userSpaceOnUse">
<stop offset="0.0051" stop-color="#00C7C5"/>
<stop offset="0.399" stop-color="#5277F7"/>
<stop offset="0.5195" stop-color="#6176F6"/>
<stop offset="0.7529" stop-color="#8A72F5"/>
<stop offset="1" stop-color="#BB6DF3"/>
</linearGradient>
<linearGradient id="paint9_linear_334_1524" x1="7.14627" y1="68.1914" x2="23.898" y2="48.4056" gradientUnits="userSpaceOnUse">
<stop offset="0.0051" stop-color="#00C7C5"/>
<stop offset="0.399" stop-color="#5277F7"/>
<stop offset="0.5195" stop-color="#6176F6"/>
<stop offset="0.7529" stop-color="#8A72F5"/>
<stop offset="1" stop-color="#BB6DF3"/>
</linearGradient>
</defs>
</svg>
