<svg width="512" height="512" viewBox="0 0 512 512" fill="none" xmlns="http://www.w3.org/2000/svg">
<g clip-path="url(#clip0_360_1164)">
<path d="M308.518 164.261C307.467 164.264 306.425 164.058 305.454 163.657C304.482 163.256 303.599 162.667 302.855 161.923C302.112 161.18 301.523 160.297 301.122 159.325C300.72 158.353 300.515 157.312 300.518 156.26V122.258H257.248C252.815 122.258 249.248 118.692 249.248 114.258C249.248 109.823 252.814 106.257 257.248 106.257H308.518C309.57 106.254 310.611 106.46 311.583 106.861C312.555 107.262 313.438 107.851 314.181 108.595C314.925 109.338 315.514 110.221 315.915 111.193C316.316 112.165 316.522 113.206 316.519 114.258V156.26C316.518 160.661 312.952 164.261 308.518 164.261ZM308.518 463.879H40.8362C39.7848 463.881 38.7433 463.676 37.7715 463.275C36.7996 462.874 35.9166 462.284 35.1732 461.541C34.4298 460.797 33.8405 459.914 33.4393 458.943C33.0382 457.971 32.8329 456.929 32.8355 455.878V114.225C32.8329 113.174 33.0382 112.132 33.4393 111.161C33.8405 110.189 34.4298 109.306 35.1732 108.562C35.9166 107.819 36.7996 107.23 37.7715 106.828C38.7433 106.427 39.7848 106.222 40.8362 106.225H92.1062C96.5395 106.225 100.107 109.791 100.107 114.225C100.107 118.66 96.5405 122.226 92.1062 122.226H48.8359V447.845H300.518V417.51C300.518 413.077 304.084 409.509 308.518 409.509C312.953 409.509 316.519 413.076 316.519 417.51V455.846C316.518 460.279 312.952 463.879 308.518 463.879Z" fill="#6222C6"/>
<path d="M257.248 137.027H92.1052C91.0539 137.029 90.0123 136.824 89.0405 136.423C88.0687 136.022 87.1857 135.432 86.4422 134.689C85.6988 133.945 85.1096 133.062 84.7084 132.091C84.3072 131.119 84.102 130.077 84.1045 129.026V69.3554C84.1045 56.8881 94.2386 46.754 106.706 46.754H130.707C135.14 46.754 138.708 50.3204 138.708 54.7547C138.708 59.189 135.141 62.7554 130.707 62.7554H106.706C103.072 62.7554 100.106 65.7224 100.106 69.3554V121.025H249.248V69.3554C249.248 65.7214 246.281 62.7554 242.648 62.7554H218.646C214.213 62.7554 210.646 59.189 210.646 54.7547C210.646 50.3204 214.212 46.754 218.646 46.754H242.648C255.115 46.754 265.249 56.8881 265.249 69.3554V129.026C265.252 130.077 265.046 131.119 264.645 132.09C264.244 133.062 263.654 133.945 262.911 134.689C262.168 135.432 261.285 136.021 260.313 136.422C259.341 136.824 258.3 137.029 257.248 137.027Z" fill="#6222C6"/>
<path d="M341.386 496.714H8.00075C6.94937 496.717 5.90785 496.511 4.93601 496.11C3.96418 495.709 3.08118 495.12 2.33774 494.376C1.5943 493.633 1.00507 492.75 0.603892 491.778C0.202713 490.806 -0.00250572 489.765 2.30891e-05 488.713V81.3898C-0.00250572 80.3384 0.202713 79.2969 0.603892 78.3251C1.00507 77.3532 1.5943 76.4703 2.33774 75.7268C3.08118 74.9834 3.96418 74.3941 4.93601 73.993C5.90785 73.5918 6.94937 73.3866 8.00075 73.3891H92.1052C93.1566 73.3866 94.1982 73.5918 95.17 73.993C96.1418 74.3941 97.0248 74.9834 97.7683 75.7268C98.5117 76.4703 99.1009 77.3532 99.5021 78.3251C99.9033 79.2969 100.109 80.3384 100.106 81.3898C100.109 82.4412 99.9033 83.4827 99.5021 84.4545C99.1009 85.4264 98.5117 86.3094 97.7683 87.0528C97.0248 87.7963 96.1418 88.3855 95.17 88.7867C94.1982 89.1879 93.1566 89.3931 92.1052 89.3905H16.0005V480.714H333.385V419.11C333.385 414.676 336.952 411.109 341.386 411.109C345.82 411.109 349.387 414.675 349.387 419.11V488.713C349.387 493.113 345.787 496.714 341.386 496.714ZM341.386 162.695C340.335 162.697 339.293 162.492 338.321 162.091C337.35 161.69 336.467 161.101 335.723 160.357C334.98 159.614 334.391 158.731 333.989 157.759C333.588 156.787 333.383 155.746 333.385 154.694V89.3905H257.248C256.197 89.3931 255.155 89.1879 254.184 88.7867C253.212 88.3855 252.329 87.7963 251.585 87.0528C250.842 86.3094 250.253 85.4264 249.852 84.4545C249.45 83.4827 249.245 82.4412 249.248 81.3898C249.245 80.3384 249.45 79.2969 249.852 78.3251C250.253 77.3532 250.842 76.4703 251.585 75.7268C252.329 74.9834 253.212 74.3941 254.184 73.993C255.155 73.5918 256.197 73.3866 257.248 73.3891H341.353C342.404 73.3866 343.446 73.5918 344.418 73.993C345.389 74.3941 346.272 74.9834 347.016 75.7268C347.759 76.4703 348.349 77.3532 348.75 78.3251C349.151 79.2969 349.356 80.3384 349.354 81.3898V154.694C349.387 159.094 345.787 162.695 341.386 162.695ZM218.646 80.1899H130.708C129.657 80.1924 128.615 79.9872 127.643 79.586C126.672 79.1849 125.789 78.5956 125.045 77.8522C124.302 77.1088 123.712 76.2258 123.311 75.2539C122.91 74.2821 122.705 73.2406 122.707 72.1892V23.2867C122.705 22.2353 122.91 21.1938 123.311 20.2219C123.712 19.2501 124.302 18.3671 125.045 17.6237C125.789 16.8802 126.672 16.291 127.643 15.8898C128.615 15.4886 129.657 15.2834 130.708 15.2859H218.646C219.698 15.2834 220.739 15.4886 221.711 15.8898C222.683 16.291 223.566 16.8802 224.309 17.6237C225.053 18.3671 225.642 19.2501 226.043 20.2219C226.445 21.1938 226.65 22.2353 226.647 23.2867V72.1892C226.65 73.2405 226.444 74.282 226.043 75.2538C225.642 76.2255 225.053 77.1085 224.309 77.8519C223.566 78.5953 222.683 79.1845 221.711 79.5858C220.739 79.987 219.698 80.1923 218.646 80.1899ZM138.708 64.1885H210.646V31.2874H138.708V64.1885Z" fill="#6222C6"/>
<path d="M233.048 205.83H149.143C148.091 205.832 147.05 205.627 146.078 205.226C145.106 204.825 144.223 204.236 143.48 203.492C142.736 202.749 142.147 201.866 141.746 200.894C141.345 199.922 141.14 198.881 141.142 197.829C141.14 196.778 141.345 195.736 141.746 194.764C142.147 193.793 142.736 192.91 143.48 192.166C144.223 191.423 145.106 190.834 146.078 190.432C147.05 190.031 148.091 189.826 149.143 189.828H233.048C234.099 189.826 235.14 190.031 236.112 190.432C237.084 190.834 237.967 191.423 238.711 192.166C239.454 192.91 240.043 193.793 240.444 194.764C240.846 195.736 241.051 196.778 241.048 197.829C241.047 202.264 237.448 205.83 233.048 205.83ZM94.9392 211.864C93.8876 211.867 92.8458 211.662 91.8735 211.262C90.9011 210.861 90.0173 210.273 89.2727 209.531L78.8711 199.13C75.7376 195.997 75.7376 190.93 78.8711 187.829C82.0046 184.729 87.0716 184.696 90.1718 187.829L94.9059 192.563L113.34 174.129C116.474 170.995 121.541 170.995 124.641 174.129C127.775 177.262 127.775 182.329 124.641 185.43L100.54 209.531C99.106 210.997 97.0726 211.864 94.9392 211.864ZM200.945 270.434H149.142C144.709 270.434 141.141 266.868 141.141 262.433C141.141 257.999 144.708 254.433 149.142 254.433H200.945C205.378 254.433 208.945 257.999 208.945 262.433C208.945 266.868 205.346 270.434 200.945 270.434ZM94.9392 276.435C93.8876 276.438 92.8458 276.233 91.8735 275.833C90.9011 275.432 90.0173 274.844 89.2727 274.102L78.8721 263.701C75.7386 260.567 75.7386 255.5 78.8721 252.4C82.0056 249.267 87.0727 249.267 90.1728 252.4L94.9069 257.134L113.341 238.7C116.475 235.566 121.542 235.566 124.642 238.7C127.776 241.833 127.776 246.9 124.642 250L100.541 274.102C99.106 275.601 97.0726 276.435 94.9392 276.435ZM204.845 335.004H149.142C144.709 335.004 141.141 331.438 141.141 327.003C141.141 322.569 144.708 319.003 149.142 319.003H204.845C209.279 319.003 212.846 322.569 212.846 327.003C212.846 331.438 209.28 335.004 204.845 335.004ZM94.9392 341.038C93.8876 341.041 92.8458 340.836 91.8735 340.436C90.9011 340.036 90.0173 339.447 89.2727 338.705L78.8711 328.304C75.7376 325.171 75.7376 320.104 78.8711 317.004C82.0046 313.87 87.0716 313.87 90.1718 317.004L94.9059 321.738L113.34 303.303C116.474 300.169 121.541 300.169 124.641 303.303C127.775 306.436 127.775 311.504 124.641 314.604L100.54 338.705C99.106 340.204 97.0726 341.038 94.9392 341.038ZM249.915 399.608H149.142C144.709 399.608 141.141 396.042 141.141 391.608C141.141 387.173 144.708 383.607 149.142 383.607H249.915C254.348 383.607 257.916 387.173 257.916 391.608C257.916 396.042 254.348 399.608 249.915 399.608ZM94.9392 405.642C93.8876 405.645 92.8458 405.44 91.8735 405.04C90.9011 404.64 90.0173 404.051 89.2727 403.309L78.8721 392.908C75.7386 389.775 75.7386 384.708 78.8721 381.608C82.0056 378.474 87.0727 378.474 90.1728 381.608L94.9069 386.342L113.341 367.907C116.475 364.774 121.542 364.774 124.642 367.907C127.776 371.041 127.776 376.108 124.642 379.208L100.541 403.309C99.106 404.775 97.0726 405.642 94.9392 405.642Z" fill="#6222C6"/>
<path d="M331.253 427.477C312.286 427.477 293.851 423.743 276.517 416.409C259.782 409.342 244.748 399.208 231.848 386.274C218.947 373.374 208.813 358.339 201.713 341.605C194.379 324.271 190.645 305.869 190.645 286.869C190.645 267.868 194.379 249.467 201.713 232.132C208.78 215.398 218.914 200.363 231.848 187.463C244.781 174.563 259.782 164.429 276.517 157.328C293.851 149.994 312.252 146.26 331.253 146.26C350.254 146.26 368.655 149.994 385.99 157.328C402.724 164.395 417.758 174.529 430.659 187.463C443.559 200.363 453.693 215.398 460.794 232.132C468.127 249.467 471.861 267.868 471.861 286.869C471.861 305.869 468.127 324.271 460.794 341.605C453.726 358.339 443.592 373.374 430.659 386.274C417.758 399.174 402.724 409.309 385.99 416.409C368.655 423.776 350.221 427.477 331.253 427.477ZM331.253 162.294C262.55 162.294 206.679 218.197 206.679 286.902C206.679 355.606 262.582 411.476 331.253 411.476C399.924 411.476 455.827 355.573 455.827 286.902C455.827 218.231 399.957 162.294 331.253 162.294Z" fill="#6222C6"/>
<path d="M331.253 382.941C305.585 382.941 281.483 372.94 263.349 354.806C245.214 336.671 235.214 312.537 235.214 286.902C235.214 261.267 245.215 237.132 263.349 218.998C281.483 200.863 305.618 190.863 331.253 190.863C356.888 190.863 381.022 200.864 399.157 218.998C417.292 237.132 427.292 261.267 427.292 286.902C427.292 312.537 417.291 336.671 399.157 354.806C381.022 372.94 356.92 382.941 331.253 382.941ZM331.253 206.863C309.885 206.863 289.784 215.197 274.649 230.298C259.548 245.4 251.214 265.5 251.214 286.902C251.214 308.303 259.548 328.371 274.649 343.505C289.751 358.607 309.851 366.94 331.253 366.94C352.654 366.94 372.722 358.607 387.856 343.505C402.991 328.404 411.291 308.303 411.291 286.902C411.291 265.5 402.958 245.433 387.856 230.298C372.722 215.198 352.653 206.863 331.253 206.863Z" fill="#6222C6"/>
<path d="M331.253 338.372C324.386 338.372 317.752 337.072 311.519 334.505C305.318 331.938 299.685 328.171 294.851 323.304C289.984 318.437 286.218 312.837 283.65 306.636C281.084 300.436 279.783 293.803 279.783 286.902C279.783 280.001 281.083 273.401 283.65 267.168C286.217 260.967 289.984 255.334 294.851 250.5C299.718 245.633 305.318 241.867 311.519 239.299C317.719 236.733 324.352 235.432 331.253 235.432C338.154 235.432 344.754 236.732 350.987 239.299C357.188 241.866 362.821 245.633 367.655 250.5C372.522 255.367 376.288 260.967 378.856 267.168C381.422 273.368 382.723 280.001 382.723 286.902C382.723 293.803 381.423 300.403 378.856 306.636C376.289 312.837 372.522 318.47 367.655 323.304C362.788 328.171 357.188 331.937 350.987 334.505C344.787 337.071 338.153 338.372 331.253 338.372ZM331.253 251.4C326.486 251.4 321.919 252.3 317.652 254.067C313.386 255.834 309.518 258.434 306.152 261.801C302.785 265.167 300.185 269.034 298.419 273.301C296.652 277.568 295.751 282.136 295.751 286.902C295.751 291.668 296.652 296.236 298.419 300.503C300.186 304.769 302.785 308.636 306.152 312.003C309.518 315.37 313.386 317.97 317.652 319.736C321.919 321.502 326.487 322.404 331.253 322.404C336.02 322.404 340.587 321.503 344.854 319.736C349.12 317.969 352.988 315.37 356.354 312.003C359.721 308.636 362.321 304.769 364.088 300.503C365.855 296.236 366.755 291.668 366.755 286.902C366.755 282.136 365.855 277.568 364.088 273.301C362.32 269.034 359.721 265.167 356.354 261.801C352.988 258.434 349.12 255.833 344.854 254.067C340.587 252.301 336.019 251.4 331.253 251.4Z" fill="#6222C6"/>
<path d="M331.253 294.903C330.201 294.905 329.159 294.7 328.187 294.3C327.215 293.9 326.331 293.312 325.585 292.569C322.452 289.436 322.452 284.369 325.585 281.269L450.493 156.328C453.626 153.195 458.693 153.195 461.794 156.328C464.927 159.461 464.927 164.529 461.794 167.629L336.886 292.535C336.153 293.287 335.277 293.883 334.31 294.29C333.342 294.697 332.303 294.905 331.253 294.903Z" fill="#6222C6"/>
<path d="M456.159 169.995C454.037 169.995 452 169.156 450.492 167.662C449.693 166.862 449.072 165.901 448.67 164.844C448.268 163.787 448.094 162.657 448.159 161.528L449.558 137.727C449.658 135.76 450.492 133.926 451.892 132.527L475.959 108.459C478.293 106.126 481.86 105.459 484.894 106.825C487.927 108.191 489.794 111.292 489.594 114.593L488.728 129.393L503.528 128.526C505.147 128.426 506.759 128.823 508.147 129.663C509.535 130.503 510.633 131.746 511.296 133.227C511.96 134.706 512.16 136.353 511.868 137.948C511.576 139.544 510.807 141.013 509.662 142.161L485.594 166.229C484.194 167.629 482.361 168.429 480.394 168.562L456.592 169.962C456.493 169.995 456.327 169.995 456.159 169.995ZM465.36 141.693L464.66 153.46L476.427 152.76L483.461 145.726L480.66 145.892C479.531 145.962 478.399 145.789 477.342 145.387C476.284 144.985 475.324 144.362 474.526 143.559C473.728 142.758 473.107 141.798 472.705 140.741C472.303 139.684 472.128 138.554 472.193 137.425L472.36 134.625L465.36 141.693Z" fill="#6222C6"/>
</g>
<defs>
<clipPath id="clip0_360_1164">
<rect width="512" height="512" fill="white"/>
</clipPath>
</defs>
</svg>
