<svg width="40" height="40" viewBox="0 0 40 40" fill="none" xmlns="http://www.w3.org/2000/svg">
<path d="M36.6583 36.6664V36.665H36.6666V24.44C36.6666 18.4595 35.3791 13.8525 28.3875 13.8525C25.0264 13.8525 22.7708 15.697 21.85 17.4456H21.7528V14.4109H15.1236V36.665H22.0264V25.6456C22.0264 22.7442 22.5764 19.9387 26.1694 19.9387C29.7097 19.9387 29.7625 23.2498 29.7625 25.8317V36.6664H36.6583Z" fill="#FEFCFF"/>
<path d="M3.8833 14.4126H10.7944V36.6668H3.8833V14.4126Z" fill="#FEFCFF"/>
<path d="M7.33609 3.33325C5.12637 3.33325 3.33331 5.12631 3.33331 7.33603C3.33331 9.54575 5.12637 11.3763 7.33609 11.3763C9.54581 11.3763 11.3389 9.54575 11.3389 7.33603C11.3375 5.12631 9.54442 3.33325 7.33609 3.33325V3.33325Z" fill="#FEFCFF"/>
</svg>
