<svg width="40" height="40" viewBox="0 0 40 40" fill="none" xmlns="http://www.w3.org/2000/svg">
<path d="M28.3333 3.33325H11.6666C7.08372 3.33325 3.33331 7.08203 3.33331 11.6666V28.3333C3.33331 32.9162 7.08372 36.6666 11.6666 36.6666H28.3333C32.9162 36.6666 36.6666 32.9162 36.6666 28.3333V11.6666C36.6666 7.08203 32.9162 3.33325 28.3333 3.33325ZM20 26.9441C16.1641 26.9441 13.0554 23.8341 13.0554 19.9999C13.0554 16.1641 16.1641 13.0553 20 13.0553C23.8341 13.0553 26.9446 16.1641 26.9446 19.9999C26.9446 23.8341 23.8341 26.9441 20 26.9441ZM29.0279 13.0553C27.8762 13.0553 26.9446 12.1224 26.9446 10.972C26.9446 9.82161 27.8762 8.88867 29.0279 8.88867C30.1796 8.88867 31.1112 9.82161 31.1112 10.972C31.1112 12.1224 30.1796 13.0553 29.0279 13.0553Z" fill="#FEFCFF"/>
</svg>
