<svg width="512" height="512" viewBox="0 0 512 512" fill="none" xmlns="http://www.w3.org/2000/svg">
<path d="M488 448H480V160C480 157.878 479.157 155.843 477.657 154.343C476.157 152.843 474.122 152 472 152H346.352C352.689 133.889 356.859 115.092 358.776 96H400C401.582 95.9997 403.128 95.5303 404.444 94.6512C405.759 93.7721 406.784 92.5228 407.389 91.0612C407.995 89.5996 408.153 87.9914 407.845 86.4398C407.536 84.8881 406.774 83.4628 405.656 82.344L341.656 18.344C340.156 16.8442 338.121 16.0017 336 16.0017C333.879 16.0017 331.844 16.8442 330.344 18.344L266.344 82.344C265.226 83.4628 264.464 84.8881 264.155 86.4398C263.847 87.9914 264.005 89.5996 264.611 91.0612C265.216 92.5228 266.241 93.7721 267.556 94.6512C268.872 95.5303 270.418 95.9997 272 96H297.256C287.914 117.13 274.429 136.172 257.6 152H40C37.8783 152 35.8434 152.843 34.3431 154.343C32.8429 155.843 32 157.878 32 160V448H24C21.8783 448 19.8434 448.843 18.3431 450.343C16.8429 451.843 16 453.878 16 456V472C16 478.365 18.5286 484.47 23.0294 488.971C27.5303 493.471 33.6348 496 40 496H472C478.365 496 484.47 493.471 488.971 488.971C493.471 484.47 496 478.365 496 472V456C496 453.878 495.157 451.843 493.657 450.343C492.157 448.843 490.122 448 488 448ZM316.608 90.728C317.046 89.5197 317.187 88.2236 317.018 86.9495C316.849 85.6753 316.376 84.4605 315.638 83.408C314.901 82.3556 313.92 81.4963 312.78 80.9031C311.64 80.3098 310.373 80.0001 309.088 80H291.312L336 35.312L380.688 80H351.408C349.375 79.9956 347.416 80.7656 345.93 82.1535C344.444 83.5414 343.542 85.4431 343.408 87.472C339.735 140.269 317.978 190.187 281.802 228.818C245.626 267.449 197.243 292.432 144.8 299.56L120 302.856V215.128C161.89 218.896 203.853 208.75 239.395 186.262C274.937 163.773 302.075 130.196 316.608 90.728ZM48 168H237.832C202.136 193.226 158.255 204.096 114.912 198.448L113.088 198.192C111.955 198.037 110.802 198.126 109.707 198.453C108.612 198.781 107.599 199.34 106.738 200.092C105.877 200.844 105.187 201.772 104.714 202.813C104.242 203.854 103.999 204.985 104 206.128V312C104 314.122 104.843 316.157 106.343 317.657C107.843 319.157 109.878 320 112 320C112.353 320 112.706 319.976 113.056 319.928L146.88 315.424C189.091 309.667 229.087 293.057 262.958 267.217C296.828 241.377 323.415 207.191 340.12 168H464V448H448V192C448 189.878 447.157 187.843 445.657 186.343C444.157 184.843 442.122 184 440 184H352V200H432V448H80V200H96V184H72C69.8783 184 67.8434 184.843 66.3431 186.343C64.8429 187.843 64 189.878 64 192V448H48V168ZM480 472C480 474.122 479.157 476.157 477.657 477.657C476.157 479.157 474.122 480 472 480H40C37.8783 480 35.8434 479.157 34.3431 477.657C32.8429 476.157 32 474.122 32 472V464H480V472Z" fill="#6222C6"/>
<path d="M96 440H416V424H384V240C384 237.878 383.157 235.843 381.657 234.343C380.157 232.843 378.122 232 376 232H328C325.878 232 323.843 232.843 322.343 234.343C320.843 235.843 320 237.878 320 240V424H288V304C288 301.878 287.157 299.843 285.657 298.343C284.157 296.843 282.122 296 280 296H232C229.878 296 227.843 296.843 226.343 298.343C224.843 299.843 224 301.878 224 304V424H192V344C192 341.878 191.157 339.843 189.657 338.343C188.157 336.843 186.122 336 184 336H136C133.878 336 131.843 336.843 130.343 338.343C128.843 339.843 128 341.878 128 344V424H96V440ZM336 248H368V424H336V248ZM240 312H272V424H240V312ZM144 352H176V424H144V352ZM144 256H128V280C128 282.122 128.843 284.157 130.343 285.657C131.843 287.157 133.878 288 136 288C163.338 286.809 189.806 278.034 212.44 262.656L203.56 249.344C185.733 261.342 165.327 268.967 144 271.6V256ZM128 224H144V240H128V224Z" fill="#6222C6"/>
</svg>
