<svg width="512" height="512" viewBox="0 0 512 512" fill="none" xmlns="http://www.w3.org/2000/svg">
<g clip-path="url(#clip0_360_1178)">
<path d="M504.711 134.447H504.709L504.692 134.43L471.644 129.715C469.98 129.478 468.424 128.752 467.172 127.631C465.921 126.509 465.03 125.042 464.612 123.414C464.195 121.786 464.27 120.071 464.827 118.486C465.385 116.9 466.4 115.516 467.744 114.507L494.454 94.4747C496.257 93.1228 497.449 91.1102 497.767 88.8797C498.086 86.6491 497.505 84.3833 496.154 82.5808L465.569 41.8018C464.217 39.9992 462.205 38.8075 459.974 38.4889C457.744 38.1702 455.478 38.7507 453.675 40.1026L426.974 60.1353C425.63 61.1548 424.014 61.7513 422.33 61.8489C420.646 61.9465 418.972 61.5408 417.519 60.6835C416.067 59.8261 414.903 58.5559 414.175 57.0346C413.447 55.5133 413.188 53.8098 413.432 52.1409L418.155 19.0929C418.314 17.9886 418.253 16.8638 417.977 15.7829C417.7 14.7019 417.214 13.686 416.545 12.7931C415.876 11.9001 415.038 11.1477 414.078 10.5787C413.119 10.0097 412.056 9.63535 410.952 9.47693L410.942 9.47587L360.512 2.27157C359.408 2.11298 358.283 2.17347 357.202 2.44958C356.121 2.7257 355.105 3.21204 354.212 3.88083C353.319 4.54962 352.566 5.38776 351.997 6.34739C351.428 7.30703 351.054 8.36937 350.895 9.47374V9.47587L346.172 42.5239C345.935 44.1877 345.21 45.7438 344.088 46.9954C342.967 48.247 341.499 49.1379 339.871 49.5553C338.243 49.9727 336.528 49.898 334.943 49.3405C333.357 48.783 331.973 47.7678 330.964 46.4234L310.94 19.7131C309.588 17.9106 307.576 16.7189 305.345 16.4002C303.115 16.0816 300.849 16.6621 299.046 18.014L273.517 37.1716C261.967 35.944 250.32 35.944 238.77 37.1716C163.131 45.817 103.816 106.138 96.4425 181.912C96.2131 184.316 96.1281 186.703 96.0092 189.091H93.4605C91.5049 189.094 89.6104 189.772 88.0967 191.01C86.583 192.249 85.5429 193.971 85.1518 195.887L79.2813 223.804L55.7654 207.586C54.1297 206.457 52.1501 205.938 50.171 206.118C48.1919 206.298 46.3386 207.166 44.9334 208.571L19.4465 234.058C18.0435 235.463 17.1767 237.314 16.9967 239.291C16.8166 241.269 17.3347 243.246 18.461 244.881L34.6027 268.355L6.67759 274.225C4.78204 274.641 3.08577 275.692 1.87091 277.205C0.656051 278.719 -0.00418285 280.602 1.99416e-05 282.543V316.525C-0.0008536 318.475 0.669066 320.366 1.89733 321.88C3.1256 323.395 4.83745 324.441 6.74555 324.842L34.6707 330.713L18.529 354.186C17.4027 355.821 16.8846 357.799 17.0646 359.776C17.2446 361.753 18.1114 363.605 19.5145 365.01L45.0014 390.497C46.4066 391.902 48.2599 392.77 50.239 392.95C52.218 393.13 54.1976 392.611 55.8333 391.482L79.3068 375.298L85.1772 403.223C85.5684 405.139 86.6085 406.862 88.1222 408.1C89.6359 409.338 91.5304 410.016 93.486 410.02H127.469C129.418 410.02 131.309 409.35 132.824 408.122C134.338 406.894 135.384 405.182 135.786 403.274L141.656 375.349L165.13 391.491C166.765 392.617 168.742 393.135 170.72 392.955C172.697 392.775 174.548 391.908 175.953 390.505L189.147 377.269V401.481C189.166 407.42 190.745 413.249 193.727 418.384C196.71 423.52 200.99 427.781 206.138 430.74V477.942C206.138 496.71 221.353 511.925 240.121 511.925H274.103C292.871 511.925 308.086 496.71 308.086 477.942V430.74C313.234 427.781 317.514 423.52 320.496 418.384C323.479 413.249 325.058 407.42 325.077 401.481V367.856C325.19 360.893 327.049 354.07 330.482 348.011C333.915 341.953 338.813 336.852 344.727 333.177C351.778 328.602 358.464 323.49 364.726 317.884L353.393 305.226C347.791 310.247 341.806 314.823 335.493 318.912C327.191 324.123 320.331 331.334 315.542 339.886C310.754 348.438 308.19 358.055 308.086 367.856V401.481C308.086 410.866 300.479 418.473 291.094 418.473H223.129C213.745 418.473 206.138 410.866 206.138 401.481V367.151C206.041 357.537 203.521 348.103 198.811 339.721C194.1 331.34 187.352 324.282 179.19 319.201C111.855 276.891 91.567 188.006 133.877 120.671C146.793 100.116 164.696 83.1594 185.923 71.3786C207.149 59.5977 231.009 53.3746 255.285 53.2879C255.159 53.5904 255.048 53.8995 254.954 54.2139C254.639 56.4444 255.223 58.7088 256.577 60.5091L276.601 87.2109C277.632 88.5457 278.233 90.1624 278.324 91.8466C278.415 93.5308 277.992 95.2029 277.111 96.6411C276.261 98.0897 274.999 99.2522 273.486 99.9801C271.973 100.708 270.277 100.968 268.615 100.727L235.567 96.0039C234.463 95.8455 233.338 95.9061 232.257 96.1824C231.176 96.4586 230.16 96.9451 229.267 97.614C228.374 98.2828 227.622 99.1211 227.053 100.081C226.484 101.04 226.109 102.103 225.951 103.207L225.95 103.217L218.737 153.672C218.417 155.903 218.997 158.169 220.348 159.972C221.698 161.775 223.71 162.968 225.94 163.288L225.95 163.289L258.998 168.013C260.662 168.25 262.218 168.975 263.469 170.096C264.721 171.218 265.612 172.686 266.029 174.313C266.447 175.941 266.372 177.656 265.815 179.242C265.257 180.827 264.242 182.212 262.897 183.22L236.196 203.244C234.393 204.596 233.201 206.609 232.883 208.839C232.564 211.07 233.145 213.336 234.497 215.138L265.081 255.917C266.433 257.72 268.445 258.911 270.676 259.23C272.906 259.549 275.172 258.968 276.975 257.616L303.685 237.592C305.029 236.587 306.641 236.003 308.317 235.912C309.993 235.822 311.658 236.231 313.102 237.086C314.546 237.941 315.704 239.205 316.431 240.718C317.157 242.231 317.42 243.925 317.185 245.587L312.469 278.635C312.311 279.739 312.371 280.864 312.647 281.945C312.924 283.026 313.41 284.042 314.079 284.935C314.747 285.828 315.586 286.58 316.545 287.149C317.505 287.719 318.567 288.093 319.672 288.252H319.674L370.138 295.464C370.535 295.515 370.935 295.541 371.336 295.541C373.382 295.543 375.359 294.807 376.906 293.468C378.453 292.129 379.464 290.277 379.755 288.252L384.47 255.204C384.707 253.54 385.432 251.984 386.554 250.732C387.675 249.48 389.143 248.59 390.77 248.172C392.398 247.755 394.114 247.83 395.699 248.387C397.284 248.944 398.669 249.96 399.677 251.304L419.71 278.006C421.062 279.808 423.074 281 425.305 281.319C427.535 281.637 429.801 281.057 431.604 279.705L472.383 249.121C474.185 247.769 475.377 245.756 475.696 243.526C476.014 241.295 475.434 239.029 474.082 237.227L454.058 210.525C453.031 209.188 452.433 207.572 452.342 205.889C452.251 204.206 452.671 202.535 453.548 201.095C454.378 199.629 455.637 198.452 457.156 197.723C458.675 196.994 460.381 196.748 462.044 197.017L495.092 201.732C496.196 201.891 497.321 201.83 498.402 201.554C499.483 201.278 500.499 200.792 501.392 200.123C502.285 199.454 503.037 198.616 503.606 197.656C504.176 196.697 504.55 195.634 504.709 194.53V194.528L511.913 144.064C512.072 142.959 512.011 141.835 511.735 140.754C511.459 139.673 510.972 138.657 510.304 137.764C509.635 136.87 508.797 136.118 507.837 135.549C506.878 134.98 505.815 134.605 504.711 134.447ZM223.129 435.464H291.094V452.455H223.129V435.464ZM223.129 469.446H291.094V477.942C291.094 487.327 283.488 494.933 274.103 494.933H240.121C230.736 494.933 223.129 487.327 223.129 477.942V469.446ZM155.496 322.939C160.134 326.733 164.981 330.264 170.015 333.516C178.042 338.589 184.084 346.264 187.133 355.257L168.91 373.446L151.265 361.28C143.538 355.955 132.958 357.903 127.632 365.63C126.356 367.483 125.46 369.57 124.996 371.772L120.545 392.986H100.35L95.8987 371.806C93.966 362.623 84.9553 356.746 75.7726 358.678C73.5708 359.142 71.483 360.038 69.6302 361.314L51.9763 373.446L36.4973 358.001L48.6545 340.364C53.9845 332.64 52.0432 322.059 44.3196 316.729C42.4656 315.449 40.3754 314.551 38.1709 314.087L16.9913 309.627V289.441L38.1709 284.981C47.3504 283.034 53.2145 274.015 51.268 264.834C50.8064 262.657 49.9213 260.591 48.663 258.755L36.4973 241.067L51.9763 225.622L69.6387 237.788C77.3687 243.107 87.9489 241.153 93.2683 233.423C94.5427 231.572 95.4368 229.486 95.8987 227.287L97.3855 220.219C98.7465 230.007 101.002 239.65 104.123 249.027C76.1687 252.36 56.2093 277.723 59.5417 305.677C62.8741 333.631 88.2378 353.59 116.192 350.258C124.479 349.27 132.396 346.262 139.249 341.498C146.102 336.735 151.681 330.362 155.496 322.939ZM142.302 310.969C135.958 328.603 116.521 337.755 98.8871 331.412C81.2533 325.067 72.1014 305.63 78.4444 287.997C80.8129 281.413 85.1589 275.722 90.887 271.704C96.6151 267.686 103.445 265.537 110.442 265.551H110.765C118.578 282.397 129.248 297.763 142.302 310.969ZM489.043 183.687L464.405 180.17C450.47 178.18 437.561 187.864 435.571 201.798C434.615 208.489 436.357 215.287 440.414 220.694L455.341 240.6L428.154 260.989L413.219 241.092C404.775 229.83 388.8 227.546 377.539 235.991C372.131 240.046 368.555 246.083 367.598 252.774L364.157 277.445L330.523 272.637L334.04 247.999C336.035 234.065 326.357 221.152 312.423 219.158C309.108 218.683 305.732 218.866 302.487 219.697C299.243 220.527 296.195 221.989 293.516 223.999L273.61 238.926L253.221 211.74L273.118 196.805C284.38 188.36 286.664 172.385 278.219 161.124C274.164 155.716 268.127 152.141 261.436 151.183L236.799 147.666L241.607 114.032L266.245 117.549C280.179 119.544 293.092 109.866 295.086 95.9317C295.561 92.6167 295.378 89.2405 294.547 85.9963C293.717 82.7521 292.255 79.7035 290.245 77.0247L275.267 57.1024L302.453 36.7129L317.388 56.6181C325.833 67.8802 341.808 70.1644 353.069 61.7198C358.477 57.6646 362.052 51.6277 363.01 44.9366L366.527 20.2993L400.161 25.0993L396.644 49.7367C394.654 63.6716 404.337 76.5808 418.272 78.5709C424.963 79.5266 431.761 77.785 437.168 73.7284L457.074 58.8015L477.463 85.9876L457.558 100.923C446.296 109.368 444.012 125.343 452.456 136.603C456.511 142.011 462.548 145.587 469.239 146.544L493.877 150.062L489.043 183.687Z" fill="#6222C6"/>
<path d="M365.312 80.8901C327.777 80.8901 297.347 111.319 297.347 148.855C297.347 186.391 327.777 216.82 365.312 216.82C402.848 216.82 433.278 186.391 433.278 148.855C433.235 111.336 402.831 80.9315 365.312 80.8901ZM365.312 199.829C337.16 199.829 314.339 177.008 314.339 148.855C314.339 120.703 337.16 97.8814 365.312 97.8814C393.465 97.8814 416.286 120.703 416.286 148.855C416.253 176.994 393.451 199.796 365.312 199.829ZM248.616 375.994H265.608V401.481H248.616V375.994ZM219.952 292.559C167.508 272.072 141.601 212.948 162.089 160.504C170.028 140.183 184.277 122.944 202.74 111.321L193.658 96.9469C138.08 131.961 121.408 205.4 156.422 260.978C169.982 282.504 190.087 299.114 213.784 308.369C234.76 316.406 248.611 336.541 248.616 359.003H265.608C265.634 329.532 247.473 303.101 219.952 292.559ZM418.529 316.525H477.999V333.516H418.529V316.525ZM404.597 374.02L415.473 360.966L466.451 403.438L455.574 416.491L404.597 374.02ZM367.555 384.49H384.547V443.96H367.555V384.49ZM8.67529 146.858L76.6361 129.871L80.7544 146.345L12.7936 163.334L8.67529 146.858ZM22.7876 60.0769L32.6585 46.2577L92.1226 88.7316L82.2528 102.551L22.7876 60.0769ZM95.5793 4.27969L112.04 0.071167L129.416 68.0309L112.956 72.2395L95.5793 4.27969Z" fill="#6222C6"/>
</g>
<defs>
<clipPath id="clip0_360_1178">
<rect width="512" height="512" fill="white"/>
</clipPath>
</defs>
</svg>
