<svg width="80" height="82" viewBox="0 0 80 82" fill="none" xmlns="http://www.w3.org/2000/svg">
<path opacity="0.5" d="M22.6517 76.1448C31.2362 80.1351 39.9417 79.6128 42.0958 74.9784C44.25 70.344 39.0372 63.3523 30.4527 59.362C21.8681 55.3718 13.1627 55.894 11.0085 60.5285C8.85437 65.1629 14.0672 72.1546 22.6517 76.1448Z" fill="url(#paint0_radial_312_517)"/>
<path d="M42.0947 58.9307L48.1849 66.9816L50.7096 61.5291C51.0632 60.765 51.2297 60.0261 51.1962 59.3644L50.7801 51.1045C50.6909 49.3265 49.1816 48.3192 46.9132 48.5239L42.0947 58.9307Z" fill="url(#paint1_linear_312_517)"/>
<path d="M23.8119 50.4649L13.7326 51.0285L16.2572 45.5761C16.6108 44.812 17.0665 44.2075 17.5933 43.8047L24.1617 38.7785C25.5752 37.696 27.3196 38.1959 28.6312 40.0578L23.8119 50.4649Z" fill="url(#paint2_linear_312_517)"/>
<path d="M31.2277 68.5192L23.5281 64.9546L23.0257 66.0404L23.0269 66.041C23.022 66.0515 23.0162 66.0608 23.0113 66.0714C22.438 67.3095 23.6969 69.1115 25.8223 70.0957C27.9487 71.0796 30.1367 70.8744 30.71 69.6363C30.7148 69.6258 30.7182 69.6153 30.7231 69.6048L30.7243 69.6053L31.2277 68.5192Z" fill="url(#paint3_linear_312_517)"/>
<path d="M41.0317 61.3651L22.6432 52.8502L20.1134 58.3138L20.1165 58.3152C20.1044 58.3397 20.0907 58.3627 20.0792 58.3875C18.7102 61.3439 21.7165 65.648 26.7941 67.9991C31.8725 70.3499 37.0987 69.8588 38.4676 66.9024C38.4791 66.8776 38.4882 66.8517 38.4988 66.8272L38.5019 66.8287L41.0317 61.3651Z" fill="url(#paint4_linear_312_517)"/>
<path opacity="0.5" d="M40.9424 61.5571L22.5537 53.0428L20.5367 57.3984L20.5398 57.3998C20.5299 57.4193 20.5185 57.4374 20.509 57.4578C19.4175 59.8158 22.6489 63.6326 27.727 65.984C32.8052 68.3353 37.8063 68.33 38.8984 65.9724C38.9076 65.9526 38.9141 65.9322 38.9227 65.9121L38.9258 65.9135L40.9424 61.5571Z" fill="#AFB6E5"/>
<path d="M54.5862 45.6799C59.1262 38.3185 60.9923 29.5553 59.5263 21.0318C59.4647 20.6733 59.3986 20.3166 59.3273 19.9596L56.2285 4.4299L42.3813 12.1129C42.0635 12.2897 41.7478 12.4698 41.4351 12.655C33.9863 17.0514 28.5117 24.1425 25.8346 32.3676L19.6188 51.4671L19.6232 51.4691C19.6073 51.5016 19.5889 51.5314 19.5734 51.5649C17.7546 55.4922 21.748 61.2078 28.4925 64.3307C35.2369 67.4536 42.1789 66.8014 43.997 62.8737C44.0125 62.8403 44.0235 62.807 44.0381 62.7739L44.0424 62.7759L54.5862 45.6799Z" fill="url(#paint5_linear_312_517)"/>
<path d="M59.328 19.9599L56.2291 4.43015L42.382 12.1132C42.3041 12.156 42.229 12.2025 42.1517 12.2456C42.7279 14.8456 45.4107 17.7154 49.2538 19.495C53.097 21.2745 57.0206 21.4635 59.3767 20.2212C59.3589 20.1346 59.3454 20.047 59.328 19.9599Z" fill="url(#paint6_linear_312_517)"/>
<path opacity="0.3" d="M59.328 19.9599L56.2291 4.43015L42.382 12.1132C42.3041 12.156 42.229 12.2025 42.1517 12.2456C42.7279 14.8456 45.4107 17.7154 49.2538 19.495C53.097 21.2745 57.0206 21.4635 59.3767 20.2212C59.3589 20.1346 59.3454 20.047 59.328 19.9599Z" fill="url(#paint7_linear_312_517)"/>
<path opacity="0.5" d="M54.5862 45.6799C59.1262 38.3185 60.9923 29.5553 59.5263 21.0318C59.4647 20.6733 59.3986 20.3166 59.3273 19.9596L56.2285 4.4299L42.3813 12.1129C42.0635 12.2897 41.7478 12.4698 41.4351 12.655C33.9863 17.0514 28.5117 24.1425 25.8346 32.3676L19.6188 51.4671L19.6232 51.4691C19.6073 51.5016 19.5889 51.5314 19.5734 51.5649C17.7546 55.4922 21.748 61.2078 28.4925 64.3307C35.2369 67.4536 42.1789 66.8014 43.997 62.8737C44.0125 62.8403 44.0235 62.807 44.0381 62.7739L44.0424 62.7759L54.5862 45.6799Z" fill="url(#paint8_radial_312_517)"/>
<g style="mix-blend-mode:screen" opacity="0.7">
<path d="M50.6071 31.6236C52.696 20.7448 52.8679 7.18117 54.3133 7.19185C56.86 7.21141 60.5826 22.2238 58.4937 33.1026C56.6545 42.6795 44.3436 62.9437 41.8652 62.4679C39.3882 61.992 48.7682 41.1998 50.6071 31.6236Z" fill="url(#paint9_radial_312_517)"/>
</g>
<path d="M36.1351 42.9749C35.3532 44.6635 34.2174 45.5889 33.0022 45.7296C32.9659 45.7331 31.8252 45.8851 31.7886 45.8877C30.5488 45.9824 31.7572 45.0237 30.6615 43.4669C28.4551 40.3336 27.9639 34.9929 29.5635 31.5368C30.3546 29.8284 28.7813 29.0835 30.0133 28.9604C30.0472 28.9573 31.3918 28.8639 31.426 28.8617C32.6544 28.7851 33.9526 29.5045 35.0375 31.0457C37.2438 34.1774 37.7348 39.5188 36.1351 42.9749Z" fill="url(#paint10_linear_312_517)"/>
<path d="M34.7636 43.113C33.1636 46.5683 30.078 46.8299 27.8717 43.6966C25.665 40.5639 25.1741 35.2226 26.7741 31.7673C28.3744 28.3115 31.4599 28.0499 33.6663 31.1832C35.8726 34.3165 36.3636 39.6578 34.7636 43.113Z" fill="url(#paint11_linear_312_517)"/>
<path d="M34.0131 42.0472C32.7141 44.8532 30.2088 45.0652 28.4168 42.5214C26.6247 39.9775 26.2259 35.6399 27.5249 32.8339C28.8239 30.028 31.3298 29.8162 33.1218 32.3601C34.9133 34.9037 35.313 39.2409 34.0131 42.0472Z" fill="url(#paint12_linear_312_517)"/>
<path d="M33.7403 40.2201C32.7625 42.332 30.8765 42.4915 29.5283 40.5772C28.1804 38.6622 27.8795 35.3987 28.8576 33.2863C29.8352 31.1751 31.7205 31.0152 33.0694 32.9299C34.4182 34.8445 34.7179 38.1089 33.7403 40.2201Z" fill="url(#paint13_linear_312_517)"/>
<path d="M29.4566 42.5589C27.6645 40.015 27.2654 35.6781 28.5644 32.8721C29.1636 31.5783 30.0192 30.8374 30.9424 30.6626C29.6444 30.3266 28.3441 31.0633 27.5249 32.834C26.2253 35.6396 26.6247 39.9775 28.4167 42.5214C29.3825 43.8928 30.5554 44.4621 31.6351 44.2568C30.8764 44.06 30.1179 43.4981 29.4566 42.5589Z" fill="url(#paint14_linear_312_517)"/>
<path d="M33.8905 31.1187C32.8331 29.6173 31.3133 28.981 30.4706 28.9876C31.4976 29.1547 32.712 29.9037 33.6068 31.1751C35.8131 34.3084 36.3044 39.6491 34.7047 43.1052C33.8716 44.904 32.4619 45.7985 31.1575 45.8375C32.4592 45.9418 34.0386 45.1021 34.9891 43.0491C36.5879 39.5933 36.0969 34.252 33.8905 31.1187Z" fill="url(#paint15_radial_312_517)"/>
<g style="mix-blend-mode:screen">
<path d="M39.4368 27.235C47.7739 16.8741 60.0571 6.18389 58.9243 4.86892C56.9292 2.55295 40.8593 11.1946 32.5222 21.5555C25.1832 30.6762 20.7851 43.3605 23.1448 45.2601C25.5043 47.1581 32.0978 36.3557 39.4368 27.235Z" fill="url(#paint16_radial_312_517)"/>
</g>
<path d="M20.4406 57.981L8.30039 67.3234L7.3545 65.953L9.77003 60.7352C10.1093 60.0036 10.6192 59.2647 11.2657 58.5704L19.3377 49.9026C21.0757 48.0364 23.5768 46.717 25.7468 46.5215L26.6474 47.8566L20.4406 57.981Z" fill="url(#paint17_linear_312_517)"/>
<path d="M21.3871 59.3517L8.30043 67.3234L10.7166 62.1059C11.0553 61.374 11.5655 60.636 12.212 59.9417L20.2843 51.2733C22.0213 49.4074 24.5234 48.0877 26.6934 47.8922L21.3871 59.3517Z" fill="url(#paint18_linear_312_517)"/>
<g style="mix-blend-mode:overlay">
<path d="M10.7634 62.3009C11.1027 61.5693 11.6132 60.8306 12.2591 60.1361L20.3314 51.4677C21.9914 49.685 24.3482 48.4039 26.4482 48.1224L26.5921 47.8113C24.4218 48.0074 21.9201 49.3265 20.1833 51.1917L12.111 59.8602C11.4645 60.5544 10.9546 61.2933 10.6156 62.0243L8.19944 67.2418L8.58412 67.0072L10.7634 62.3009Z" fill="url(#paint19_radial_312_517)"/>
</g>
<path d="M38.5448 66.3638L39.2744 81.6657L40.9316 81.5008L43.3478 76.2833C43.6865 75.5514 43.9193 74.6844 44.0305 73.7421L45.419 61.979C45.7179 59.4469 45.106 56.6857 43.8514 54.9037L42.2506 55.0814L38.5448 66.3638Z" fill="url(#paint20_linear_312_517)"/>
<path d="M36.8879 66.5288L39.2741 81.6655L41.6902 76.448C42.0286 75.7167 42.2617 74.8492 42.3726 73.9075L43.7614 62.1437C44.0603 59.6116 43.4481 56.8511 42.1935 55.0691L36.8879 66.5288Z" fill="url(#paint21_linear_312_517)"/>
<g style="mix-blend-mode:overlay">
<path d="M42.5435 73.9861L43.932 62.223C44.2309 59.6909 43.619 56.9297 42.3641 55.1484L42.3336 55.214C43.3928 56.9903 43.8913 59.5127 43.6159 61.8434L42.2274 73.6065C42.1162 74.5489 41.8834 75.4158 41.5447 76.1477L39.32 80.9519L39.4446 81.7448L41.8608 76.5273C42.1995 75.7954 42.4323 74.9284 42.5435 73.9861Z" fill="url(#paint22_radial_312_517)"/>
</g>
<defs>
<radialGradient id="paint0_radial_312_517" cx="0" cy="0" r="1" gradientUnits="userSpaceOnUse" gradientTransform="translate(26.5523 67.7534) rotate(24.9298) scale(17.1402 9.25372)">
<stop offset="0.1919" stop-color="#AFB6E5"/>
<stop offset="1" stop-color="white"/>
</radialGradient>
<linearGradient id="paint1_linear_312_517" x1="50.254" y1="69.3324" x2="44.6665" y2="48.1898" gradientUnits="userSpaceOnUse">
<stop offset="0.0051" stop-color="#BB6DF3"/>
<stop offset="0.4343" stop-color="#5277F7"/>
<stop offset="1" stop-color="#61C2F2"/>
</linearGradient>
<linearGradient id="paint2_linear_312_517" x1="33.2629" y1="54.6416" x2="9.57959" y2="36.4826" gradientUnits="userSpaceOnUse">
<stop offset="0.0051" stop-color="#BB6DF3"/>
<stop offset="0.4343" stop-color="#5277F7"/>
<stop offset="1" stop-color="#61C2F2"/>
</linearGradient>
<linearGradient id="paint3_linear_312_517" x1="28.1681" y1="65.0687" x2="25.4714" y2="70.7928" gradientUnits="userSpaceOnUse">
<stop offset="0.0051" stop-color="#273B98"/>
<stop offset="0.2274" stop-color="#2F2BA2"/>
<stop offset="0.399" stop-color="#361CAC"/>
<stop offset="0.768" stop-color="#440B89"/>
<stop offset="1" stop-color="#4E0070"/>
</linearGradient>
<linearGradient id="paint4_linear_312_517" x1="20.2084" y1="58.3369" x2="38.3069" y2="66.7164" gradientUnits="userSpaceOnUse">
<stop stop-color="#676FAE"/>
<stop offset="0.0484" stop-color="#757CB8"/>
<stop offset="0.1061" stop-color="#8B92C8"/>
<stop offset="0.2273" stop-color="#AFB6E5"/>
<stop offset="0.3489" stop-color="#949BCF"/>
<stop offset="0.3788" stop-color="#8D94C9"/>
<stop offset="0.5455" stop-color="#5E67A8"/>
<stop offset="0.6122" stop-color="#616AAA"/>
<stop offset="0.6703" stop-color="#6C75B2"/>
<stop offset="0.7249" stop-color="#7E86BF"/>
<stop offset="0.7774" stop-color="#979ED1"/>
<stop offset="0.7778" stop-color="#979ED1"/>
<stop offset="1" stop-color="#7179B5"/>
</linearGradient>
<linearGradient id="paint5_linear_312_517" x1="27.8862" y1="27.6785" x2="56.6514" y2="40.9967" gradientUnits="userSpaceOnUse">
<stop offset="0.0101" stop-color="#CED3F4"/>
<stop offset="0.0661" stop-color="#D8DCF6"/>
<stop offset="0.1615" stop-color="#F3F4FC"/>
<stop offset="0.197" stop-color="white"/>
<stop offset="0.2734" stop-color="#F5F7FF"/>
<stop offset="0.3586" stop-color="#E5E9FF"/>
<stop offset="0.3876" stop-color="#DBDFFA"/>
<stop offset="0.4705" stop-color="#C3C9EE"/>
<stop offset="0.5472" stop-color="#B4BBE7"/>
<stop offset="0.6111" stop-color="#AFB6E5"/>
<stop offset="0.7831" stop-color="#BAC0EA"/>
<stop offset="1" stop-color="#CED3F4"/>
</linearGradient>
<linearGradient id="paint6_linear_312_517" x1="47.9843" y1="7.77466" x2="60.3055" y2="20.939" gradientUnits="userSpaceOnUse">
<stop stop-color="#5277F7"/>
<stop offset="0.0355" stop-color="#547EF8"/>
<stop offset="0.0886" stop-color="#5993FA"/>
<stop offset="0.1524" stop-color="#60B4FD"/>
<stop offset="0.1919" stop-color="#66CCFF"/>
<stop offset="0.3434" stop-color="#5277F7"/>
<stop offset="0.6211" stop-color="#5A99FA"/>
<stop offset="0.8497" stop-color="#5FAEFC"/>
<stop offset="1" stop-color="#61B6FD"/>
</linearGradient>
<linearGradient id="paint7_linear_312_517" x1="60.5181" y1="12.6257" x2="36.4942" y2="13.1466" gradientUnits="userSpaceOnUse">
<stop stop-color="#5277F7"/>
<stop offset="0.0355" stop-color="#547EF8"/>
<stop offset="0.0886" stop-color="#5993FA"/>
<stop offset="0.1524" stop-color="#60B4FD"/>
<stop offset="0.1919" stop-color="#66CCFF"/>
<stop offset="0.3434" stop-color="#5277F7"/>
<stop offset="0.3504" stop-color="#5379F7"/>
<stop offset="0.4583" stop-color="#5A97FA"/>
<stop offset="0.5723" stop-color="#5FAEFC"/>
<stop offset="0.6939" stop-color="#63BFFE"/>
<stop offset="0.8282" stop-color="#65C9FF"/>
<stop offset="1" stop-color="#66CCFF"/>
</linearGradient>
<radialGradient id="paint8_radial_312_517" cx="0" cy="0" r="1" gradientUnits="userSpaceOnUse" gradientTransform="translate(42.3607 34.3805) rotate(24.8439) scale(22.4924 35.9878)">
<stop offset="0.5253" stop-color="white"/>
<stop offset="0.7086" stop-color="#FAFBFF"/>
<stop offset="0.9208" stop-color="#ECEFFF"/>
<stop offset="1" stop-color="#E5E9FF"/>
</radialGradient>
<radialGradient id="paint9_radial_312_517" cx="0" cy="0" r="1" gradientUnits="userSpaceOnUse" gradientTransform="translate(54.7405 32.2918) rotate(-169.125) scale(6.12598 26.9004)">
<stop stop-color="#AFB6E5"/>
<stop offset="0.0664" stop-color="#8D92B8"/>
<stop offset="0.1416" stop-color="#6C708D"/>
<stop offset="0.2228" stop-color="#4F5267"/>
<stop offset="0.3092" stop-color="#363947"/>
<stop offset="0.402" stop-color="#22242D"/>
<stop offset="0.504" stop-color="#131419"/>
<stop offset="0.6197" stop-color="#08090B"/>
<stop offset="0.7608" stop-color="#020202"/>
<stop offset="1"/>
</radialGradient>
<linearGradient id="paint10_linear_312_517" x1="32.076" y1="28.6898" x2="33.6249" y2="45.8553" gradientUnits="userSpaceOnUse">
<stop stop-color="#676FAE"/>
<stop offset="0.0484" stop-color="#757CB8"/>
<stop offset="0.1061" stop-color="#8B92C8"/>
<stop offset="0.2273" stop-color="#AFB6E5"/>
<stop offset="0.3489" stop-color="#949BCF"/>
<stop offset="0.3788" stop-color="#8D94C9"/>
<stop offset="0.5455" stop-color="#5E67A8"/>
<stop offset="0.6122" stop-color="#616AAA"/>
<stop offset="0.6703" stop-color="#6C75B2"/>
<stop offset="0.7249" stop-color="#7E86BF"/>
<stop offset="0.7774" stop-color="#979ED1"/>
<stop offset="0.7778" stop-color="#979ED1"/>
<stop offset="1" stop-color="#7179B5"/>
</linearGradient>
<linearGradient id="paint11_linear_312_517" x1="25.3165" y1="34.9152" x2="36.2216" y2="39.9642" gradientUnits="userSpaceOnUse">
<stop offset="0.0354" stop-color="#929AD6"/>
<stop offset="0.3636" stop-color="#AFB6E5"/>
<stop offset="0.6144" stop-color="#949CD4"/>
<stop offset="1" stop-color="#646EB5"/>
</linearGradient>
<linearGradient id="paint12_linear_312_517" x1="27.815" y1="33.3506" x2="34.7411" y2="42.9382" gradientUnits="userSpaceOnUse">
<stop offset="0.096" stop-color="#45108A"/>
<stop offset="1" stop-color="#7C1DC9"/>
</linearGradient>
<linearGradient id="paint13_linear_312_517" x1="29.4281" y1="29.078" x2="31.8225" y2="38.902" gradientUnits="userSpaceOnUse">
<stop stop-color="#5277F7"/>
<stop offset="1"/>
</linearGradient>
<linearGradient id="paint14_linear_312_517" x1="29.7943" y1="44.3823" x2="28.5726" y2="30.843" gradientUnits="userSpaceOnUse">
<stop stop-color="#676FAE"/>
<stop offset="0.0484" stop-color="#757CB8"/>
<stop offset="0.1061" stop-color="#8B92C8"/>
<stop offset="0.2273" stop-color="#AFB6E5"/>
<stop offset="0.3489" stop-color="#949BCF"/>
<stop offset="0.3788" stop-color="#8D94C9"/>
<stop offset="0.5455" stop-color="#5E67A8"/>
<stop offset="0.6122" stop-color="#616AAA"/>
<stop offset="0.6703" stop-color="#6C75B2"/>
<stop offset="0.7249" stop-color="#7E86BF"/>
<stop offset="0.7774" stop-color="#979ED1"/>
<stop offset="0.7778" stop-color="#979ED1"/>
<stop offset="1" stop-color="#7179B5"/>
</linearGradient>
<radialGradient id="paint15_radial_312_517" cx="0" cy="0" r="1" gradientUnits="userSpaceOnUse" gradientTransform="translate(31.911 37.7854) rotate(24.8439) scale(6.44836 6.44836)">
<stop stop-color="white"/>
<stop offset="1"/>
</radialGradient>
<radialGradient id="paint16_radial_312_517" cx="0" cy="0" r="1" gradientUnits="userSpaceOnUse" gradientTransform="translate(37.6715 21.5434) rotate(38.8258) scale(5.74723 25.2319)">
<stop stop-color="#972A74"/>
<stop offset="0.0228" stop-color="#8C276C"/>
<stop offset="0.1136" stop-color="#671D4F"/>
<stop offset="0.212" stop-color="#471437"/>
<stop offset="0.3179" stop-color="#2D0D23"/>
<stop offset="0.4342" stop-color="#190713"/>
<stop offset="0.5661" stop-color="#0B0308"/>
<stop offset="0.7271" stop-color="#020102"/>
<stop offset="1"/>
</radialGradient>
<linearGradient id="paint17_linear_312_517" x1="9.7389" y1="64.8472" x2="27.8774" y2="45.3536" gradientUnits="userSpaceOnUse">
<stop stop-color="#4666D4"/>
<stop offset="0.3286" stop-color="#4E72EC"/>
<stop offset="0.4646" stop-color="#5277F7"/>
<stop offset="0.5026" stop-color="#537DF8"/>
<stop offset="0.5523" stop-color="#578DF9"/>
<stop offset="0.6085" stop-color="#5EA8FC"/>
<stop offset="0.6667" stop-color="#66CCFF"/>
<stop offset="0.803" stop-color="#5277F7"/>
</linearGradient>
<linearGradient id="paint18_linear_312_517" x1="5.50455" y1="60.385" x2="35.6499" y2="53.3124" gradientUnits="userSpaceOnUse">
<stop offset="0.0051" stop-color="#BB6DF3"/>
<stop offset="0.4343" stop-color="#5277F7"/>
<stop offset="1" stop-color="#61C2F2"/>
</linearGradient>
<radialGradient id="paint19_radial_312_517" cx="0" cy="0" r="1" gradientUnits="userSpaceOnUse" gradientTransform="translate(23.1564 57.536) rotate(24.8461) scale(9.45933 9.45933)">
<stop stop-color="white"/>
<stop offset="1"/>
</radialGradient>
<linearGradient id="paint20_linear_312_517" x1="41.2839" y1="70.6301" x2="42.7971" y2="56.6256" gradientUnits="userSpaceOnUse">
<stop stop-color="#4666D4"/>
<stop offset="0.3286" stop-color="#4E72EC"/>
<stop offset="0.4646" stop-color="#5277F7"/>
<stop offset="0.5026" stop-color="#537DF8"/>
<stop offset="0.5523" stop-color="#578DF9"/>
<stop offset="0.6085" stop-color="#5EA8FC"/>
<stop offset="0.6667" stop-color="#66CCFF"/>
<stop offset="0.803" stop-color="#5277F7"/>
</linearGradient>
<linearGradient id="paint21_linear_312_517" x1="41.5075" y1="83.9036" x2="39.5018" y2="48.2022" gradientUnits="userSpaceOnUse">
<stop offset="0.0051" stop-color="#BB6DF3"/>
<stop offset="0.4343" stop-color="#5277F7"/>
<stop offset="1" stop-color="#61C2F2"/>
</linearGradient>
<radialGradient id="paint22_radial_312_517" cx="0" cy="0" r="1" gradientUnits="userSpaceOnUse" gradientTransform="translate(38.5348 63.277) rotate(24.8439) scale(9.45934 9.45935)">
<stop stop-color="white"/>
<stop offset="1"/>
</radialGradient>
</defs>
</svg>
