<svg width="481" height="482" viewBox="0 0 481 482" fill="none" xmlns="http://www.w3.org/2000/svg">
<path d="M241.015 1.02548C236.733 0.889805 232.468 1.61545 228.472 3.15937C224.476 4.70328 220.831 7.03401 217.753 10.0133C214.675 12.9926 212.227 16.5598 210.553 20.5032C208.88 24.4466 208.015 28.6859 208.011 32.9697C208.007 37.2535 208.864 41.4945 210.53 45.4411C212.195 49.3876 214.637 52.9594 217.71 55.9445C220.782 58.9296 224.423 61.2673 228.416 62.8187C232.409 64.3702 236.673 65.1039 240.955 64.9763C245.156 64.9803 249.316 64.1568 253.199 62.5528C257.082 60.9488 260.611 58.5957 263.584 55.6279C266.557 52.6601 268.917 49.1357 270.529 45.256C272.14 41.3762 272.971 37.2171 272.975 33.016C272.979 28.815 272.156 24.6543 270.552 20.7715C268.948 16.8887 266.595 13.3598 263.627 10.3864C260.659 7.41303 257.135 5.05329 253.255 3.44195C249.375 1.8306 245.216 1.02945 241.015 1.02548ZM241.015 16.9905C245.257 16.9825 249.329 18.66 252.334 21.654C255.34 24.6481 257.032 28.7133 257.04 32.9556C257.048 37.1978 255.371 41.2694 252.377 44.2748C249.383 47.2801 245.318 48.973 241.075 48.9811C236.833 48.9891 232.762 47.3116 229.756 44.3175C226.751 41.3235 225.058 37.2582 225.05 33.016C225.042 28.7738 226.719 24.7022 229.713 21.6968C232.707 18.6914 236.773 16.9985 241.015 16.9905ZM187.193 49.0113L80.0946 98.388C70.4189 102.621 76.8895 117.437 86.777 112.902L193.936 63.5552C201.405 60.2292 199.47 48.8601 191.094 48.2554C189.748 48.1745 188.403 48.4152 187.193 49.0113ZM395.223 112.962C405.11 117.467 411.581 102.682 401.935 98.4183L294.806 49.0113C293.594 48.423 292.251 48.1524 290.906 48.2251C282.56 48.8299 280.625 60.1989 288.094 63.525L395.223 112.962ZM220.031 92.2802C215.607 94.4049 212.197 98.1845 210.536 102.803C209.206 105.947 208.722 107.731 207.059 109.757C205.396 111.783 202.372 114.383 195.418 117.316C188.403 120.279 184.351 120.703 181.63 120.521C178.939 120.34 177.336 119.524 174.282 118.314C169.934 116.383 165.028 116.115 160.494 117.558C155.142 119.312 149.911 123.575 144.046 129.502C137.696 135.942 133.856 141.234 132.344 146.102C131.009 150.633 131.385 155.497 133.402 159.769C134.642 162.792 135.458 164.455 135.7 167.116C135.942 169.777 135.579 173.859 132.737 180.874C129.895 187.889 127.325 191.064 125.299 192.787C123.303 194.541 121.549 195.085 118.586 196.355C114.151 197.941 110.464 201.121 108.245 205.275C105.887 209.811 104.919 216.16 105.01 224.99C104.949 233.093 105.645 239.745 108.245 244.704C110.469 248.855 114.154 252.033 118.586 253.624C121.549 254.894 123.212 255.408 125.238 257.131C127.234 258.885 129.895 262.09 132.737 269.105C135.549 275.969 135.912 280.021 135.7 282.712C135.488 285.342 134.733 286.945 133.523 289.817C131.551 293.897 131.049 298.533 132.102 302.94C133.359 307.198 135.549 311.123 138.512 314.43C133.07 323.38 128.776 332.875 125.813 343.155C120.081 334.726 112.407 327.799 103.437 322.957C107.599 318.053 110.516 312.216 111.94 305.944C113.364 299.672 113.253 293.148 111.617 286.928C109.981 280.707 106.869 274.973 102.543 270.213C98.2177 265.452 92.8074 261.806 86.7716 259.583C80.7358 257.361 74.2528 256.627 67.873 257.446C61.4932 258.264 55.4051 260.61 50.1257 264.284C44.8462 267.958 40.5313 272.852 37.5474 278.55C34.5635 284.248 32.9986 290.582 32.9857 297.014C32.9554 306.901 36.5536 315.942 42.5707 322.957C32.3856 328.457 23.8843 336.619 17.9735 346.571C12.0626 356.524 8.96396 367.894 9.00788 379.469V388.843C9.00788 408.89 25.1543 425.006 44.9897 425.006H100.958C108.366 425.006 115.26 422.799 121.005 418.898V449.075C121.005 458.66 124.029 468.063 131.346 474.262C138.663 480.46 149.397 482.396 161.643 480.007L162.188 479.886L240.955 458.66L320.054 479.946C332.572 482.365 343.004 480.702 350.654 474.262C357.971 468.094 360.995 458.72 360.995 449.165V418.929C366.74 422.829 373.634 424.976 381.042 424.976H437.01C456.845 424.976 472.992 408.89 472.992 388.873V379.469C472.992 355.008 459.536 333.812 439.429 322.927C445.476 315.972 449.044 306.901 449.044 297.014C449.058 290.558 447.51 284.195 444.533 278.467C441.555 272.739 437.237 267.815 431.946 264.117C426.654 260.419 420.547 258.055 414.145 257.227C407.743 256.399 401.235 257.132 395.177 259.362C389.119 261.593 383.69 265.256 379.354 270.038C375.017 274.821 371.902 280.581 370.273 286.827C368.644 293.074 368.55 299.622 369.998 305.913C371.447 312.204 374.395 318.052 378.592 322.957C369.642 327.795 361.962 334.659 356.187 343.216C353.255 333.088 348.984 323.397 343.488 314.4C346.453 311.106 348.643 307.191 349.898 302.94C350.951 298.533 350.449 293.897 348.477 289.817C347.267 286.945 346.511 285.342 346.3 282.681C346.088 280.021 346.451 275.969 349.263 269.075C352.105 262.09 354.766 258.885 356.792 257.131C358.818 255.408 360.42 254.894 363.444 253.624C367.876 252.033 371.561 248.855 373.785 244.704C376.355 239.745 377.081 233.123 377.02 224.99C377.081 216.13 376.113 209.811 373.785 205.275C371.563 201.122 367.878 197.943 363.444 196.355C360.42 195.085 358.727 194.541 356.701 192.787C354.675 191.064 352.105 187.889 349.263 180.874C346.42 173.859 346.058 169.777 346.3 167.116C346.541 164.455 347.358 162.823 348.628 159.769C350.65 155.498 351.027 150.632 349.686 146.102C348.174 141.264 344.334 135.942 337.984 129.502C332.118 123.575 326.857 119.342 321.505 117.558C315.579 115.623 310.802 117.135 307.748 118.344C304.694 119.554 303.061 120.34 300.37 120.521C297.649 120.703 293.597 120.279 286.612 117.316C279.627 114.383 276.634 111.783 274.971 109.757C273.308 107.731 272.794 105.947 271.463 102.803C269.803 98.1845 266.393 94.4049 261.969 92.2802C256.799 89.7705 250.57 88.9844 241.015 88.9541C231.43 88.9541 225.231 89.7705 220.031 92.2802ZM32.9857 96.9669C28.7866 96.9649 24.6283 97.79 20.7481 99.3951C16.8679 101 13.3418 103.354 10.3712 106.322C7.4006 109.289 5.04364 112.813 3.43489 116.692C1.82614 120.571 0.997106 124.728 0.995121 128.927C0.993135 133.126 1.81824 137.285 3.42332 141.165C5.0284 145.045 7.38203 148.571 10.3498 151.542C13.3176 154.512 16.8414 156.869 20.7201 158.478C24.5988 160.087 28.7564 160.916 32.9554 160.918C41.4358 160.922 49.5705 157.557 55.5699 151.563C61.5693 145.569 64.942 137.438 64.946 128.957C64.95 120.477 61.585 112.342 55.5913 106.343C49.5976 100.344 41.4661 96.9709 32.9857 96.9669ZM449.014 96.9669C440.53 96.9589 432.39 100.322 426.384 106.315C420.379 112.309 417.001 120.443 416.993 128.927C416.985 137.412 420.348 145.552 426.342 151.557C432.335 157.562 440.469 160.94 448.954 160.948C453.155 160.952 457.315 160.128 461.198 158.524C465.081 156.92 468.61 154.567 471.583 151.6C474.557 148.632 476.916 145.107 478.528 141.228C480.139 137.348 480.97 133.189 480.974 128.988C480.978 124.787 480.155 120.626 478.551 116.743C476.947 112.86 474.594 109.331 471.626 106.358C468.658 103.385 465.134 101.025 461.254 99.4136C457.374 97.8023 453.215 96.9709 449.014 96.9669ZM255.015 106.643C256.103 107.157 256.224 108.034 256.708 109.001C257.615 111.118 258.976 115.442 262.574 119.856C266.172 124.271 271.675 128.443 280.323 132.102C288.94 135.73 295.804 136.91 301.489 136.517C307.143 136.124 311.316 134.128 313.583 133.251C314.914 132.737 315.609 132.435 316.486 132.737C317.635 133.1 320.538 134.582 326.585 140.72C332.33 146.555 334.023 149.73 334.386 150.879C334.628 151.816 334.235 152.663 333.782 153.691C333.026 155.505 330.849 160.041 330.365 165.695C329.881 171.349 330.909 178.243 334.416 186.861C337.954 195.539 341.945 201.193 346.239 204.912C350.533 208.601 354.947 210.143 357.185 211.111C358.455 211.655 359.059 211.716 359.543 212.623C360.027 213.59 361.146 216.705 361.055 224.99C361.116 232.76 360.178 236.056 359.543 237.326C359.059 238.264 358.152 238.445 357.185 238.838C354.917 239.806 350.533 241.348 346.239 245.067C341.945 248.756 337.954 254.44 334.447 263.058C331 271.554 329.911 278.327 330.365 283.921C330.788 289.515 332.633 293.295 333.721 295.955C334.205 297.286 334.658 298.011 334.416 298.919C334.229 299.5 333.997 300.066 333.721 300.612C321.734 286.102 306.51 274.606 289.273 267.049C299.13 255.771 304.996 241.076 304.996 225.02C304.972 208.058 298.23 191.796 286.244 179.794C274.259 167.792 258.007 161.026 241.045 160.978C205.789 160.978 177.034 189.733 177.034 224.99C177.034 241.076 182.9 255.771 192.757 267.019C175.519 274.574 160.294 286.07 148.309 300.582C148.037 300.045 147.804 299.489 147.613 298.919C147.372 298.011 147.855 297.286 148.309 295.955C149.428 293.325 151.242 289.515 151.665 283.921C152.088 278.327 151.06 271.554 147.613 263.058C144.106 254.41 140.115 248.756 135.821 245.067C131.497 241.348 127.113 239.806 124.875 238.838C123.878 238.445 123.001 238.264 122.517 237.326C121.852 236.056 120.914 232.76 120.975 224.99C120.914 216.705 122.003 213.59 122.487 212.623C123.001 211.716 123.605 211.655 124.875 211.111C127.113 210.143 131.497 208.601 135.791 204.912C140.115 201.193 144.106 195.539 147.613 186.891C151.121 178.243 152.149 171.349 151.665 165.695C151.181 160.041 149.004 155.536 148.248 153.691C147.825 152.663 147.402 151.816 147.644 150.879C148.007 149.73 149.7 146.555 155.445 140.72C161.492 134.582 164.425 133.1 165.574 132.737C166.451 132.435 167.116 132.737 168.447 133.251C170.714 134.158 174.917 136.124 180.541 136.517C186.226 136.91 193.09 135.73 201.707 132.102C210.355 128.443 215.888 124.241 219.486 119.856C223.054 115.442 224.445 111.118 225.322 108.971C225.836 108.034 225.927 107.157 227.046 106.643C228.316 106.038 232.549 104.98 241.045 104.98C249.512 104.98 253.714 106.008 255.015 106.643ZM32.9857 112.992C35.1423 112.893 37.2968 113.23 39.3194 113.986C41.342 114.741 43.1908 115.897 44.7543 117.386C46.3179 118.875 47.564 120.665 48.4174 122.648C49.2708 124.631 49.7139 126.766 49.72 128.925C49.7262 131.084 49.2952 133.222 48.453 135.21C47.6109 137.198 46.375 138.995 44.8199 140.492C43.2648 141.99 41.4226 143.157 39.4044 143.924C37.3861 144.69 35.2335 145.04 33.0764 144.953C28.9577 144.786 25.0625 143.035 22.2032 140.066C19.3439 137.097 17.7413 133.138 17.7296 129.016C17.7179 124.894 19.298 120.926 22.1404 117.941C24.9828 114.956 28.868 113.183 32.9857 112.992ZM449.014 112.992C453.256 112.992 457.325 114.678 460.324 117.677C463.324 120.677 465.009 124.745 465.009 128.988C465.009 133.23 463.324 137.298 460.324 140.298C457.325 143.298 453.256 144.983 449.014 144.983C444.942 144.732 441.118 142.938 438.324 139.966C435.529 136.994 433.972 133.068 433.972 128.988C433.972 124.908 435.529 120.981 438.324 118.009C441.118 115.037 444.942 113.243 449.014 112.992ZM47.4086 173.98C46.1338 173.904 44.8592 174.133 43.691 174.65C42.5229 175.166 41.4951 175.954 40.6933 176.948C39.8916 177.942 39.339 179.114 39.0818 180.365C38.8245 181.616 38.87 182.91 39.2145 184.14L53.2746 237.417C55.6935 248.151 71.8702 243.888 68.7256 233.335L54.6655 180.088C54.2636 178.43 53.3431 176.943 52.0379 175.845C50.7327 174.746 49.1109 174.093 47.4086 173.98ZM434.591 173.98C432.887 174.088 431.263 174.74 429.957 175.839C428.651 176.939 427.732 178.428 427.334 180.088L413.274 233.335C410.129 243.918 426.276 248.151 428.755 237.417L442.815 184.14C443.161 182.907 443.206 181.61 442.947 180.357C442.689 179.103 442.133 177.93 441.328 176.935C440.523 175.94 439.491 175.153 438.319 174.639C437.147 174.125 435.868 173.899 434.591 173.98ZM241.015 176.974C253.75 176.974 265.963 182.032 274.967 191.037C283.972 200.042 289.031 212.255 289.031 224.99C289.031 237.724 283.972 249.937 274.967 258.942C265.963 267.947 253.75 273.006 241.015 273.006C228.28 273.006 216.067 267.947 207.062 258.942C198.058 249.937 192.999 237.724 192.999 224.99C192.999 212.255 198.058 200.042 207.062 191.037C216.067 182.032 228.28 176.974 241.015 176.974ZM72.989 272.975C79.3523 272.975 85.455 275.503 89.9545 280.003C94.4541 284.502 96.9819 290.605 96.9819 296.968C96.9819 303.332 94.4541 309.434 89.9545 313.934C85.455 318.433 79.3523 320.961 72.989 320.961C66.6257 320.961 60.523 318.433 56.0234 313.934C51.5239 309.434 48.9961 303.332 48.9961 296.968C48.9961 290.605 51.5239 284.502 56.0234 280.003C60.523 275.503 66.6257 272.975 72.989 272.975ZM409.011 272.975C412.233 272.857 415.446 273.389 418.458 274.539C421.471 275.69 424.22 277.435 426.543 279.672C428.866 281.908 430.715 284.589 431.979 287.556C433.243 290.522 433.896 293.713 433.9 296.937C433.904 300.161 433.259 303.354 432.002 306.323C430.746 309.293 428.904 311.979 426.587 314.221C424.269 316.463 421.524 318.215 418.515 319.373C415.506 320.531 412.294 321.072 409.071 320.961C402.855 320.748 396.964 318.132 392.639 313.662C388.314 309.192 385.892 303.217 385.884 296.997C385.876 290.778 388.283 284.797 392.597 280.316C396.911 275.836 402.795 273.204 409.011 272.975ZM185.016 404.627V376.93C184.774 366.498 169.263 366.498 168.991 376.93V408.739L167.025 409.253C156.654 411.883 160.615 427.395 170.956 424.764L291.904 393.711C294.026 393.139 296.24 392.991 298.42 393.275C300.599 393.559 302.702 394.269 304.607 395.366C306.512 396.462 308.182 397.923 309.523 399.665C310.863 401.407 311.847 403.396 312.419 405.518C312.991 407.641 313.139 409.855 312.855 412.035C312.571 414.214 311.861 416.317 310.764 418.222C309.668 420.127 308.207 421.797 306.465 423.138C304.723 424.478 302.734 425.462 300.612 426.034L158.559 464.254H158.499C149.428 466.007 144.529 464.405 141.687 462.016C138.815 459.597 137.031 455.394 137.031 449.014V376.99C137.031 331.363 166.118 292.871 206.364 278.811C216.69 285.451 228.708 288.982 240.985 288.982C253.262 288.982 265.28 285.451 275.606 278.811C295.948 285.925 313.564 299.206 326.003 316.804C338.441 334.402 345.082 355.44 344.999 376.99V449.135C344.999 455.424 343.185 459.597 340.343 462.016C337.47 464.435 332.602 466.007 323.501 464.254L271.796 450.345L304.754 441.455C310.973 439.783 316.562 436.315 320.82 431.484C325.078 426.653 327.818 420.674 328.696 414.294C329.573 407.914 328.551 401.417 325.755 395.616C322.959 389.814 318.515 384.966 312.979 381.677V376.899C312.737 366.468 297.225 366.558 296.983 377.171C293.929 377.051 290.873 377.377 287.912 378.139L185.016 404.627ZM273.005 329.004C262.574 329.246 262.574 344.758 273.005 344.999H296.983C307.415 344.758 307.415 329.216 296.983 328.974L273.005 329.004ZM57.5077 333.842C62.4195 335.903 67.6927 336.964 73.0192 336.964C78.3458 336.964 83.6189 335.903 88.5307 333.842C98.0342 337.098 106.278 343.251 112.103 351.435C117.928 359.619 121.042 369.424 121.005 379.469V388.843C121.029 391.488 120.528 394.111 119.53 396.561C118.533 399.011 117.059 401.238 115.194 403.114C113.33 404.99 111.111 406.478 108.667 407.49C106.224 408.502 103.603 409.019 100.958 409.011H44.9897C42.3508 409.007 39.7388 408.481 37.3038 407.464C34.8689 406.447 32.6591 404.958 30.8016 403.084C28.944 401.21 27.4755 398.986 26.4804 396.542C25.4853 394.098 24.9832 391.482 25.0032 388.843V379.469C25.0032 358.334 38.4888 340.252 57.5077 333.842ZM393.469 333.842C398.382 335.917 403.662 336.986 408.996 336.986C414.329 336.986 419.609 335.917 424.522 333.842C443.511 340.222 456.997 358.334 456.997 379.469V388.843C456.997 399.879 448.228 409.011 437.04 409.011H381.042C378.399 409.011 375.782 408.488 373.342 407.473C370.902 406.458 368.686 404.971 366.823 403.096C364.96 401.222 363.486 398.998 362.486 396.552C361.485 394.105 360.979 391.486 360.995 388.843V379.469C360.995 358.364 374.48 340.252 393.469 333.842Z" fill="#6222C6"/>
</svg>
