<svg width="80" height="80" viewBox="0 0 80 80" fill="none" xmlns="http://www.w3.org/2000/svg">
<path d="M14.8316 22.8456C15.846 22.7345 16.9198 22.7592 18.0414 22.9236L17.8972 21.5807C17.5465 21.5876 17.2004 21.6038 16.8627 21.6409L14.3683 17.2271C13.0502 17.4448 11.8223 17.86 10.7046 18.4681L8.67345 19.6729C9.79192 19.0647 11.0191 18.6495 12.3372 18.4319L14.8316 22.8456Z" fill="#C6CCF4"/>
<path d="M41.4278 38.6075L39.4584 40.929C40.2785 42.3884 41.0239 43.8872 41.6814 45.4091L45.0577 45.9239C45.8701 47.9166 46.5554 49.9348 47.0942 51.9499L49.1253 50.7444C48.5858 48.7301 47.9013 46.7111 47.0888 44.7184L43.7126 44.2036C43.0551 42.6817 42.3097 41.1837 41.4895 39.7235L43.459 37.402C42.3405 35.5011 41.1133 33.6666 39.7952 31.9247L37.7641 33.1302C39.0822 34.8721 40.3094 36.7066 41.4278 38.6075Z" fill="#C6CCF4"/>
<path d="M22.1445 20.0071L23.2699 24.5821C23.8573 24.8615 24.4493 25.1679 25.0505 25.5152C25.6502 25.8625 26.2437 26.2407 26.8304 26.6397L27.5364 24.586C27.3846 24.4941 27.2335 24.3984 27.0809 24.3097C26.4804 23.9624 25.8876 23.656 25.301 23.3766L24.1756 18.8023C22.5977 18.1139 21.0692 17.6346 19.6046 17.3537L17.5734 18.5584C19.0388 18.8394 20.5674 19.3194 22.1445 20.0071Z" fill="#C6CCF4"/>
<path d="M32.5273 27.2022L32.0602 31.0271C33.1817 32.1593 34.2547 33.3756 35.2699 34.6606L37.2787 33.4289C36.2705 32.1547 35.2052 30.9469 34.0913 29.8224L34.5584 25.9975C33.0939 24.5852 31.5653 23.2979 29.9874 22.1618L27.9563 23.3665C29.5342 24.5034 31.0627 25.7899 32.5273 27.2022Z" fill="#C6CCF4"/>
<path d="M46.4737 63.6993L44.7979 62.9121C44.6376 64.1917 44.3725 65.3725 44.0102 66.4468L47.0935 70.3674C46.5547 71.7589 45.8694 72.9853 45.0569 74.0387L47.0881 72.834C47.9005 71.7805 48.585 70.5534 49.1246 69.1627L46.0413 65.2421C46.207 64.7505 46.3496 64.2342 46.4737 63.6993Z" fill="#C6CCF4"/>
<path d="M50.415 58.0068L46.8299 55.5456C46.7034 54.3903 46.5092 53.221 46.2556 52.0464L44.0102 52.3049C44.3725 53.7991 44.6376 55.2855 44.7979 56.7511L48.3831 59.2123C48.4594 60.1423 48.5003 61.063 48.5003 61.9721C48.5003 62.8805 48.4594 63.7549 48.3831 64.5962L50.4142 63.3914C50.4905 62.5502 50.5314 61.6758 50.5314 60.7666C50.5314 59.8575 50.4913 58.9368 50.415 58.0068Z" fill="#C6CCF4"/>
<path d="M42.0232 70.9934L41.6817 70.6507C41.0241 71.4117 40.2788 72.0491 39.4586 72.5608L41.2947 76.8488C42.0532 76.6227 42.7763 76.324 43.4584 75.9535L41.489 71.3553C41.6716 71.2419 41.8489 71.1192 42.0232 70.9934Z" fill="#CED3F4"/>
<path d="M32.0602 73.9084L32.5273 78.2727L34.5576 77.068L34.0905 72.7036L32.0602 73.9084Z" fill="#AFB6E5"/>
<path d="M41.4281 77.1582L43.4584 75.9535L41.4897 71.3553L39.4586 72.56L41.4281 77.1582Z" fill="#AFB6E5"/>
<path d="M46.0413 65.2421L44.0102 66.4468L47.0943 70.3666L49.1246 69.1619L46.0413 65.2421Z" fill="#AFB6E5"/>
<path d="M32.0602 31.0272L34.0905 29.8225L34.5576 25.9976L32.5273 27.2023L32.0602 31.0272Z" fill="#AFB6E5"/>
<path d="M23.2707 24.5821L25.3018 23.3766L24.1757 18.8023L22.1445 20.007L23.2707 24.5821Z" fill="#AFB6E5"/>
<path d="M14.8313 22.8456L16.8625 21.6409L14.3681 17.2271L12.3369 18.4326L14.8313 22.8456Z" fill="#AFB6E5"/>
<path d="M8.4192 26.1812L10.4503 24.9765L7.0741 21.5884L5.04297 22.7931L8.4192 26.1812Z" fill="#AFB6E5"/>
<path d="M1.7164 32.2358L3.74755 31.0303L7.33268 32.7143L5.30231 33.919L1.7164 32.2358Z" fill="#AFB6E5"/>
<path d="M5.03817 43.6773L3.00703 44.882L6.09036 44.527L8.12149 43.3223L5.03817 43.6773Z" fill="#AFB6E5"/>
<path d="M22.1445 73.4654L24.1757 72.2598L25.3018 68.9868L23.2707 70.1923L22.1445 73.4654Z" fill="#AFB6E5"/>
<path d="M48.384 64.5961C48.4604 63.7549 48.5012 62.8805 48.5012 61.9721C48.5012 61.0629 48.4604 60.1422 48.384 59.2122L44.7989 56.7511C44.6386 55.2855 44.3734 53.799 44.0111 52.3049L47.0944 51.9499C46.5556 49.9348 45.8704 47.9166 45.0579 45.9239L41.6817 45.4091C41.0241 43.8872 40.2788 42.3884 39.4586 40.929L41.4281 38.6075C40.3096 36.7066 39.0824 34.8721 37.7643 33.1302L35.2699 34.6599C34.2555 33.3756 33.1817 32.1593 32.0602 31.0264L32.5273 27.2015C31.0627 25.7891 29.5341 24.5018 27.9563 23.3658L26.8308 26.6388C26.2442 26.2398 25.6507 25.8617 25.051 25.5144C24.4505 25.1671 23.8578 24.8607 23.2704 24.5813L22.145 20.0062C20.5671 19.3186 19.0385 18.8385 17.5739 18.5576L18.0411 22.9228C16.9195 22.7584 15.8465 22.7345 14.8313 22.8448L12.3369 18.4318C11.0188 18.6495 9.79086 19.0647 8.67316 19.6728L10.6426 24.271C9.82246 24.7827 9.07707 25.4194 8.41955 26.1812L5.04332 22.7931C4.23086 23.8466 3.54636 25.0729 3.00678 26.4644L6.0901 30.385C5.72781 31.4593 5.46265 32.6401 5.30231 33.9197L1.71718 32.2357C1.64087 33.077 1.60001 33.9514 1.60001 34.8605C1.60001 35.7689 1.64087 36.6904 1.71718 37.6204L5.30231 40.0816C5.46265 41.5472 5.72781 43.0336 6.0901 44.5277L3.00678 44.8828C3.54636 46.8978 4.23086 48.916 5.04332 50.9087L8.41955 51.4235C9.07707 52.9454 9.82246 54.4435 10.6426 55.9036L8.67316 58.2251C9.79163 60.126 11.0188 61.9605 12.3369 63.7024L14.8313 62.1727C15.8457 63.457 16.9195 64.6733 18.0411 65.8062L17.5739 69.6311C19.0385 71.0435 20.5671 72.3308 22.145 73.4669L23.2704 70.1938C23.8578 70.5928 24.4497 70.9709 25.051 71.3182C25.6507 71.6655 26.2442 71.9719 26.8308 72.2513L27.9563 76.8256C29.5341 77.5132 31.0627 77.9933 32.5273 78.2742L32.0602 73.9098C33.1817 74.0735 34.2547 74.0982 35.2699 73.987L37.7643 78.4C39.0824 78.1824 40.3096 77.7672 41.4281 77.159L39.4586 72.5608C40.2788 72.0491 41.0241 71.4124 41.6817 70.6507L45.0579 74.0387C45.8704 72.9853 46.5556 71.7589 47.0944 70.3674L44.0111 66.4468C44.3734 65.3725 44.6386 64.1917 44.7989 62.9121L48.384 64.5961ZM25.0502 54.7776C21.9923 53.0095 19.5126 48.7285 19.5126 45.2154C19.5126 41.7023 21.9916 40.2868 25.0502 42.055C28.1081 43.8231 30.5871 48.1034 30.5871 51.6172C30.5871 55.1311 28.1081 56.545 25.0502 54.7776Z" fill="url(#paint0_linear_312_1010)"/>
<path d="M25.05 27.7602C15.1201 22.0198 7.07111 26.6157 7.07111 38.0232C7.07111 49.4308 15.1201 63.3319 25.05 69.0716C34.979 74.812 43.0288 70.2161 43.0288 58.8086C43.0288 47.401 34.9798 33.4999 25.05 27.7602ZM25.05 56.9478C20.9484 54.5769 17.6238 48.835 17.6238 44.1233C17.6238 39.4116 20.9484 37.5139 25.05 39.884C29.1508 42.2548 32.4761 47.9968 32.4761 52.7085C32.4761 57.4202 29.1516 59.3179 25.05 56.9478Z" fill="url(#paint1_linear_312_1010)"/>
<path d="M33.2473 51.936C33.2473 47.2243 29.9227 41.4823 25.8211 39.1115C23.1193 37.5494 20.7614 37.8504 19.4617 39.5784C20.823 38.5758 22.8187 38.5936 25.0503 39.8832C29.1518 42.2541 32.4764 47.9961 32.4764 52.7078C32.4764 54.3154 32.0833 55.5857 31.4104 56.4802C32.5504 55.6397 33.2473 54.0854 33.2473 51.936Z" fill="#AFB6E5"/>
<path d="M25.8208 68.2998C15.8917 62.5602 7.84271 48.659 7.84271 37.2515C7.84271 33.0044 8.95888 29.7035 10.8721 27.5264C8.4933 29.6541 7.07188 33.2352 7.07188 38.0232C7.07188 49.4308 15.1209 63.3319 25.05 69.0716C31.2829 72.6742 36.7735 72.2034 39.9995 68.5329C36.7088 71.4749 31.5835 71.6308 25.8208 68.2998Z" fill="#AFB6E5"/>
<path d="M43.4584 37.402L41.4281 38.6075L39.4586 40.929L41.4897 39.7235L43.4584 37.402Z" fill="#AFB6E5"/>
<path d="M43.7124 44.2036L41.682 45.4084L45.0583 45.9231L47.0887 44.7184L43.7124 44.2036Z" fill="#AFB6E5"/>
<path d="M44.7992 56.7503L46.8296 55.5456L50.4155 58.0068L48.3844 59.2115L44.7992 56.7503Z" fill="#AFB6E5"/>
<path d="M19.4374 45.2918C19.4374 48.8049 21.9164 53.0859 24.9743 54.8541C26.8343 55.9292 28.4785 55.825 29.4829 54.7892C28.4715 55.7378 26.8705 55.8026 25.0675 54.7599C22.0096 52.9918 19.5307 48.7108 19.5307 45.1977C19.5307 43.8208 19.9122 42.7689 20.5589 42.1013C19.8559 42.762 19.4374 43.8494 19.4374 45.2918Z" fill="#AFB6E5"/>
<path d="M8.89824 25.6672C9.41161 25.1617 9.96816 24.7203 10.5656 24.3483L10.5555 24.3243C9.96199 24.7056 9.40776 25.1525 8.89824 25.6672Z" fill="#AFB6E5"/>
<path d="M22.0675 20.0834L23.1937 24.6577C23.7803 24.9371 24.3731 25.2443 24.9735 25.5908C25.574 25.9373 26.1668 26.3163 26.7534 26.7153L26.7973 26.5879C26.2269 26.2013 25.6511 25.8331 25.0676 25.4959C24.4671 25.1486 23.8743 24.8422 23.2877 24.5628L22.1616 19.9877C20.5844 19.3001 19.0559 18.82 17.5913 18.5391L17.6036 18.6549C19.0358 18.9404 20.5282 19.412 22.0675 20.0834Z" fill="#AFB6E5"/>
<path d="M12.2602 18.5082L14.7546 22.922C15.769 22.8109 16.8428 22.8356 17.9644 22.9992L17.9528 22.8927C16.8698 22.7422 15.8315 22.7198 14.8487 22.8278L12.3543 18.4149C11.0361 18.6325 9.80821 19.0477 8.69051 19.6559L8.70669 19.6929C9.7951 19.1172 10.9845 18.7189 12.2602 18.5082Z" fill="#AFB6E5"/>
<path d="M5.99644 44.5223L3.02489 44.8642C3.03182 44.8912 3.0403 44.9183 3.04801 44.9445L6.01494 44.6034C6.008 44.5764 6.0026 44.5494 5.99644 44.5223Z" fill="#AFB6E5"/>
<path d="M32.4513 27.2787L31.9841 31.1036C33.1057 32.2357 34.1787 33.4521 35.1939 34.7363L37.6883 33.2066C39.0064 34.9477 40.2343 36.783 41.3521 38.6839L39.3833 41.0054C40.2027 42.4656 40.9481 43.9636 41.6064 45.4855L44.9819 46.0003C45.7836 47.9668 46.4596 49.9579 46.9953 51.946L47.1125 51.9321C46.5729 49.917 45.8884 47.8988 45.0759 45.9061L41.6997 45.3914C41.0422 43.8694 40.2968 42.3714 39.4766 40.9112L41.4461 38.5897C40.3276 36.6889 39.1005 34.8544 37.7823 33.1125L35.2879 34.6421C34.2735 33.3579 33.1997 32.1416 32.0782 31.0086L32.5453 27.1837C31.0807 25.7714 29.5522 24.4841 27.9743 23.348L27.9296 23.4785C29.4897 24.6068 31.0021 25.881 32.4513 27.2787Z" fill="#AFB6E5"/>
<path d="M41.1436 71.2233C41.3032 71.0659 41.4574 70.9007 41.6085 70.7301L41.6054 70.7271C41.4566 70.8992 41.3009 71.0635 41.1436 71.2233Z" fill="#AFB6E5"/>
<path d="M39.3819 72.6364L41.3352 77.1968C41.3714 77.1775 41.4092 77.1598 41.4454 77.1397L39.486 72.5654C39.4505 72.5886 39.4174 72.614 39.3819 72.6364Z" fill="#AFB6E5"/>
<path d="M31.9835 73.9847L32.4382 78.2333C32.4737 78.2402 32.5092 78.2487 32.5446 78.2549L32.0891 73.9963C32.0528 73.9924 32.0189 73.9901 31.9835 73.9847Z" fill="#AFB6E5"/>
<path d="M44.7976 63.024L44.7228 62.9893C44.5625 64.2689 44.2966 65.4497 43.9343 66.524L47.0176 70.4446C46.4965 71.7898 45.8382 72.9784 45.0612 74.0079L45.0751 74.0218C45.8876 72.9683 46.5721 71.742 47.1116 70.3505L44.0275 66.4299C44.3783 65.3918 44.635 64.2527 44.7976 63.024Z" fill="#AFB6E5"/>
<path d="M8.34351 26.2576C8.3728 26.2237 8.40441 26.1936 8.43447 26.1604L5.06209 22.7754C5.03511 22.8109 5.0089 22.8479 4.98192 22.8834L8.34351 26.2576Z" fill="#AFB6E5"/>
<path d="M48.402 59.1937L44.8169 56.7325C44.6588 55.2939 44.3991 53.8345 44.0468 52.3674L43.9343 52.3805C44.2966 53.8746 44.5617 55.3611 44.7228 56.8267L48.308 59.2871C48.3851 60.2171 48.4251 61.1386 48.4251 62.0469C48.4251 62.9082 48.3866 63.7363 48.3172 64.5382L48.402 64.5783C48.4783 63.7371 48.5192 62.8619 48.5192 61.9535C48.5192 61.0452 48.4783 60.1237 48.402 59.1937Z" fill="#AFB6E5"/>
<path d="M5.22601 33.9954C5.2314 33.9514 5.23988 33.9097 5.24527 33.8665L1.73491 32.218C1.73105 32.262 1.72952 32.3075 1.72566 32.3515L5.22601 33.9954Z" fill="#AFB6E5"/>
<path d="M23.1939 70.2686L22.1132 73.4105C22.1293 73.4221 22.1455 73.4352 22.1617 73.4468L23.244 70.301C23.2278 70.2902 23.2108 70.2802 23.1939 70.2686Z" fill="#AFB6E5"/>
<path d="M46.4467 36.1347L48.4778 34.93L47.7833 31.1985L45.7522 32.4032L46.4467 36.1347Z" fill="#AFB6E5"/>
<path d="M50.8724 35.3931C51.8005 34.8922 52.855 34.6167 54.0097 34.5835L53.8871 33.7608C53.5456 33.8781 53.2165 34.0185 52.9035 34.1883L50.6827 31.5134C50.0383 31.9317 49.454 32.4503 48.9376 33.0631L50.8724 35.3931Z" fill="#C6CCF4"/>
<path d="M75.3074 63.129L73.7349 62.4537C73.5113 63.822 73.1043 65.0106 72.5386 66.0031L74.377 69.0631C73.7318 70.0309 72.944 70.8127 72.0391 71.3993L74.0702 70.1945C74.9752 69.608 75.7629 68.8262 76.4081 67.8576L74.5697 64.7983C74.858 64.292 75.1047 63.7348 75.3074 63.129Z" fill="#C6CCF4"/>
<path d="M53.543 31.4563C54.73 31.5026 55.9958 31.7572 57.32 32.2319L58.4046 35.4849C59.039 35.7473 59.6857 36.0645 60.3448 36.4458C61.0038 36.827 61.6513 37.2577 62.285 37.7284L63.3163 35.8276C63.0049 35.6223 62.692 35.4239 62.3752 35.241C61.7161 34.8598 61.0694 34.5426 60.435 34.2802L59.3504 31.0264C58.0261 30.5517 56.7604 30.2971 55.5733 30.2515L53.543 31.4563Z" fill="#C6CCF4"/>
<path d="M78.2736 57.7621L75.7661 55.9392C75.5487 54.3563 75.1555 52.741 74.6121 51.1372L76.4074 50.0722C75.7622 48.3581 74.9744 46.6656 74.0694 45.0325L71.8487 45.1406C70.9206 43.5677 69.8661 42.072 68.7114 40.7044L69.177 38.1159C67.9899 36.7892 66.7242 35.5806 65.3999 34.5248L63.3695 35.7304C64.6938 36.7869 65.9595 37.9955 67.1458 39.3214L66.6803 41.9099C67.835 43.2775 68.8895 44.7724 69.8175 46.3461L72.0383 46.238C72.9433 47.8711 73.7311 49.5636 74.3762 51.2769L72.5378 52.2108C73.1036 53.8577 73.5114 55.5178 73.7341 57.1439L76.2416 58.9676C76.3218 59.7625 76.3688 60.549 76.3688 61.3223C76.3688 62.0948 76.3226 62.8288 76.2416 63.5303L78.2728 62.3256C78.353 61.6241 78.4 60.8909 78.4 60.1176C78.4 59.3442 78.3537 58.557 78.2736 57.7621Z" fill="#C6CCF4"/>
<path d="M57.3204 68.3886L59.3515 67.1839L60.4361 65.185L58.4049 66.3897L57.3204 68.3886Z" fill="#AFB6E5"/>
<path d="M67.1469 72.6612L69.1781 71.4564L68.7125 68.3284L66.6813 69.5339L67.1469 72.6612Z" fill="#AFB6E5"/>
<path d="M72.5381 66.0031L74.5692 64.7983L76.4077 67.8576L74.3765 69.0631L72.5381 66.0031Z" fill="#AFB6E5"/>
<path d="M73.7352 57.1439L75.7656 55.9391L78.2739 57.7621L76.2427 58.9668L73.7352 57.1439Z" fill="#AFB6E5"/>
<path d="M69.8186 46.3453L71.849 45.1397L74.0697 45.0325L72.0386 46.2372L69.8186 46.3453Z" fill="#AFB6E5"/>
<path d="M66.6813 41.9091L68.7125 40.7044L69.1781 38.1151L67.1469 39.3206L66.6813 41.9091Z" fill="#AFB6E5"/>
<path d="M58.4049 35.4849L60.4361 34.2802L59.3515 31.0264L57.3204 32.2319L58.4049 35.4849Z" fill="#AFB6E5"/>
<path d="M50.8724 35.3931L52.9027 34.1883L50.682 31.5134L48.6516 32.7181L50.8724 35.3931Z" fill="#AFB6E5"/>
<path d="M46.955 41.6629L48.9861 40.4582L46.4786 39.3823L44.4475 40.5871L46.955 41.6629Z" fill="#AFB6E5"/>
<path d="M76.2427 63.5295C76.3229 62.828 76.3699 62.0948 76.3699 61.3215C76.3699 60.5482 76.3237 59.7617 76.2427 58.9668L73.7352 57.1431C73.5117 55.517 73.1047 53.8569 72.5381 52.2099L74.3765 51.2761C73.7314 49.562 72.9436 47.8695 72.0386 46.2372L69.8178 46.3453C68.8898 44.7724 67.8353 43.2767 66.6806 41.9091L67.1461 39.3206C65.9591 37.9939 64.6934 36.7853 63.3698 35.7295L62.2845 37.7284C61.6509 37.2576 61.0034 36.827 60.3443 36.4457C59.6853 36.0645 59.0385 35.7473 58.4041 35.4849L57.3196 32.2319C55.9953 31.7572 54.7296 31.5025 53.5425 31.4562L54.0081 34.5842C52.8534 34.6174 51.7989 34.8929 50.8708 35.3938L48.6501 32.7181C47.7451 33.3046 46.9573 34.0864 46.3121 35.055L48.1506 38.1151C47.584 39.1068 47.177 40.2961 46.9535 41.6637L44.4459 40.5878C44.3658 41.2894 44.3188 42.0226 44.3188 42.7959C44.3188 43.5684 44.365 44.3556 44.4459 45.1505L46.9535 46.9735C47.177 48.5996 47.584 50.2597 48.1506 51.9066L46.3121 52.8405C46.9573 54.5546 47.7451 56.2471 48.6501 57.8802L50.8708 57.7721C51.7989 59.345 52.8534 60.8407 54.0081 62.2082L53.5425 64.7975C54.7296 66.1234 55.9953 67.3328 57.3196 68.3886L58.4041 66.3897C59.0385 66.8605 59.6853 67.2911 60.3443 67.6724C61.0034 68.0536 61.6509 68.3708 62.2845 68.6333L63.3698 71.8863C64.6941 72.3609 65.9598 72.6156 67.1461 72.6619L66.6806 69.5339C67.8353 69.5007 68.8898 69.2252 69.8178 68.7243L72.0386 71.3993C72.9436 70.8127 73.7314 70.0309 74.3765 69.0631L72.5381 66.0031C73.1047 65.0113 73.5117 63.822 73.7352 62.4537L76.2427 63.5295ZM60.3451 57.4765C57.7405 55.9708 55.6292 52.3249 55.6292 49.3328C55.6292 46.3406 57.7405 45.1359 60.3451 46.6408C62.9497 48.1458 65.061 51.7924 65.061 54.7846C65.061 57.7767 62.9497 58.9822 60.3451 57.4765Z" fill="url(#paint2_linear_312_1010)"/>
<path d="M57.2618 32.3492L58.3471 35.6022C58.9807 35.8646 59.6282 36.1818 60.2873 36.563C60.9464 36.9443 61.5939 37.375 62.2275 37.8457L62.3061 37.7014C61.6733 37.2322 61.0273 36.8023 60.3698 36.4218C59.7115 36.0406 59.064 35.7234 58.4296 35.461L57.3443 32.2072C56.02 31.7325 54.7543 31.4778 53.5672 31.4323L53.5895 31.5797C54.745 31.6361 55.976 31.8884 57.2618 32.3492Z" fill="url(#paint3_radial_312_1010)"/>
<path d="M55.5711 49.4501C55.5711 52.4423 57.6824 56.0881 60.287 57.5938C62.1332 58.6604 63.7265 58.361 64.5004 57.0343C63.698 58.2429 62.1494 58.4821 60.3688 57.4526C57.7649 55.9469 55.6528 52.301 55.6528 49.3089C55.6528 48.4368 55.8363 47.7221 56.1546 47.1765C55.7839 47.7368 55.5711 48.5031 55.5711 49.4501Z" fill="url(#paint4_radial_312_1010)"/>
<path d="M67.0896 39.4379L66.6233 42.0264C67.778 43.394 68.8325 44.8897 69.7606 46.4626L71.9813 46.3545C72.8716 47.9614 73.6471 49.6261 74.2861 51.3116L74.401 51.253C73.7558 49.5389 72.9688 47.8464 72.063 46.2133L69.8423 46.3214C68.915 44.7485 67.8597 43.2528 66.7058 41.8852L67.1713 39.2967C65.9843 37.97 64.7186 36.7614 63.3943 35.7056L63.3156 35.85C64.6384 36.905 65.9033 38.1128 67.0896 39.4379Z" fill="url(#paint5_radial_312_1010)"/>
<path d="M48.0649 51.9391L46.3367 52.8174C46.3475 52.8451 46.3591 52.8722 46.3691 52.8999L48.0927 52.024C48.0834 51.9962 48.075 51.9676 48.0649 51.9391Z" fill="url(#paint6_radial_312_1010)"/>
<path d="M48.5922 32.8354L50.8129 35.5104C51.7402 35.0103 52.7955 34.7347 53.9494 34.7016L53.9294 34.5665C52.8148 34.6128 51.7942 34.8845 50.8946 35.3699L48.6739 32.6949C47.7689 33.2815 46.9819 34.0633 46.3359 35.0311L46.3436 35.0442C46.9726 34.1358 47.7281 33.3957 48.5922 32.8354Z" fill="url(#paint7_radial_312_1010)"/>
<path d="M76.2661 58.9437L73.7586 57.1207C73.5389 55.5224 73.1412 53.8917 72.59 52.2733L72.4798 52.3288C73.0456 53.9758 73.4534 55.6359 73.6769 57.262L76.1844 59.0857C76.2646 59.8798 76.3116 60.667 76.3116 61.4404C76.3116 62.1519 76.2707 62.8288 76.2021 63.4801L76.2669 63.5079C76.3471 62.8064 76.3941 62.0732 76.3941 61.2999C76.3933 60.525 76.347 59.7378 76.2661 58.9437Z" fill="url(#paint8_radial_312_1010)"/>
<path d="M73.7285 62.5942L73.6769 62.5718C73.4534 63.9401 73.0464 65.1287 72.4798 66.1212L74.3105 69.1681C74.3406 69.1249 74.3714 69.084 74.3999 69.04L72.5615 65.9807C73.1057 65.0275 73.5004 63.893 73.7285 62.5942Z" fill="url(#paint9_radial_312_1010)"/>
<path d="M66.6227 69.6512L67.0667 72.6318C67.1014 72.6333 67.1361 72.6364 67.1707 72.638L66.7244 69.6458C66.6905 69.6466 66.6574 69.6504 66.6227 69.6512Z" fill="url(#paint10_radial_312_1010)"/>
<path d="M58.3466 66.507L57.3399 68.3616L57.343 68.3639L58.3505 66.5101L58.3466 66.507Z" fill="url(#paint11_radial_312_1010)"/>
<path d="M46.8967 41.781C46.9059 41.7254 46.9167 41.6722 46.9267 41.6174L44.4709 40.5639C44.4647 40.6195 44.4593 40.6766 44.4539 40.7329L46.8967 41.781Z" fill="url(#paint12_radial_312_1010)"/>
<path d="M60.3451 38.3636C53.7614 34.558 48.4242 37.6042 48.4242 45.1683C48.4242 52.7325 53.7614 61.9489 60.3451 65.7545C66.9288 69.5602 72.266 66.5132 72.266 58.9498C72.266 51.3857 66.9288 42.1692 60.3451 38.3636ZM60.3451 59.2431C56.8918 57.2473 54.0913 52.4114 54.0913 48.4437C54.0913 44.476 56.891 42.8777 60.3451 44.8743C63.7984 46.8701 66.5988 51.706 66.5988 55.6737C66.5988 59.6413 63.7992 61.2397 60.3451 59.2431Z" fill="url(#paint13_linear_312_1010)"/>
<path d="M64.9819 59.5472C66.4342 59.071 67.3692 57.5769 67.3692 55.287C67.3692 51.3186 64.5703 46.4842 61.1162 44.4876C59.2739 43.4233 57.6236 43.3894 56.4796 44.1835C57.5434 43.8339 58.8846 44.0292 60.3454 44.8735C63.7995 46.8701 66.5983 51.7052 66.5983 55.6729C66.5983 57.5251 65.984 58.8526 64.9819 59.5472Z" fill="#AFB6E5"/>
<path d="M61.1159 65.3686C54.5323 61.563 49.1958 52.3458 49.1958 44.7824C49.1958 41.0748 50.4831 38.4616 52.5659 37.199C50.0337 38.2463 48.425 41.0231 48.425 45.1683C48.425 52.7324 53.7614 61.9489 60.3451 65.7545C63.7013 67.6947 66.7283 67.8452 68.8951 66.5325C66.8062 67.3968 64.0913 67.0889 61.1159 65.3686Z" fill="#AFB6E5"/>
<path d="M55.6289 49.3328C55.6289 52.325 57.7402 55.9708 60.3448 57.4765C62.191 58.5439 63.7851 58.2437 64.559 56.9154C63.9061 56.9309 63.1638 56.7271 62.3752 56.2718C59.7706 54.7661 57.6593 51.1202 57.6593 48.1281C57.6593 47.2567 57.8427 46.5428 58.1603 45.9972C56.6572 46.0327 55.6289 47.2467 55.6289 49.3328Z" fill="url(#paint14_linear_312_1010)"/>
<path d="M36.8859 4.09078L38.4445 7.91105C38.8461 8.08625 39.2546 8.28922 39.6693 8.52924C40.0841 8.76926 40.4926 9.03784 40.8942 9.32725L42.2023 7.63399C42.0358 7.52748 41.8693 7.42252 41.7005 7.32528C41.285 7.08526 40.8772 6.88151 40.4756 6.70709L38.917 2.88605C37.4779 2.4253 36.132 2.29796 34.9233 2.47932L32.893 3.68406C34.1016 3.50269 35.4475 3.63004 36.8859 4.09078Z" fill="#C6CCF4"/>
<path d="M46.4467 11.5191L45.7522 14.4472C46.3981 15.3995 46.9801 16.4044 47.4842 17.4386L50.3826 18.3161C51.1488 20.1475 51.7153 22.0213 52.0375 23.8605L54.0687 22.6557C53.7465 20.8158 53.1791 18.942 52.4137 17.1113L49.5154 16.2338C49.0113 15.2004 48.4293 14.1948 47.7833 13.2432L48.4778 10.3151C47.2699 8.73684 45.9241 7.30829 44.4842 6.1051L42.4538 7.30984C43.8929 8.51149 45.2388 9.94081 46.4467 11.5191Z" fill="#C6CCF4"/>
<path d="M36.3477 17.9888C36.3477 20.0966 37.8354 22.6658 39.6699 23.7262C41.1353 24.5736 42.3771 24.1993 42.818 22.9413C42.4681 22.8826 42.0934 22.7484 41.7003 22.5215C39.8657 21.4603 38.378 18.8918 38.378 16.7841C38.378 16.3604 38.4412 15.9899 38.5522 15.6728C37.268 15.4582 36.3477 16.3326 36.3477 17.9888Z" fill="url(#paint15_linear_312_1010)"/>
<path d="M51.6058 24.43C51.6058 24.2602 51.5981 24.0889 51.5912 23.9168L49.4969 24.1823C49.5462 24.6724 49.5755 25.1578 49.5755 25.6348C49.5755 26.1117 49.547 26.564 49.4969 26.9969L52.0383 30.2569C51.7161 31.7233 51.1487 32.9419 50.3833 33.8881L52.4145 32.6834C53.1807 31.7379 53.7472 30.5193 54.0694 29.0522L51.528 25.7922C51.5773 25.3593 51.6058 24.907 51.6058 24.43Z" fill="#AFB6E5"/>
<path d="M30.9882 4.72595L28.957 5.93146L31.8554 8.40422L33.8865 7.19948L30.9882 4.72595Z" fill="#AFB6E5"/>
<path d="M27.3023 15.9583L29.3335 14.7536L31.8741 14.4318L29.8438 15.6365L27.3023 15.9583Z" fill="#AFB6E5"/>
<path d="M36.8861 32.5097L38.9172 31.305L40.4758 29.286L38.4447 30.4915L36.8861 32.5097Z" fill="#AFB6E5"/>
<path d="M51.528 25.7922L49.4969 26.9977L52.0383 30.2569L54.0687 29.0522L51.528 25.7922Z" fill="#C6CCF4"/>
<path d="M49.5747 25.6348C49.5747 25.1579 49.5462 24.6724 49.4961 24.1823L52.0375 23.8605C51.7153 22.0206 51.148 20.1468 50.3826 18.3153L47.4842 17.4378C46.9801 16.4037 46.3981 15.3988 45.7522 14.4464L46.4467 11.5183C45.2388 9.94007 43.8929 8.51152 42.4538 7.30833L40.8952 9.32651C40.4936 9.0371 40.0858 8.76852 39.6703 8.5285C39.2548 8.28848 38.8471 8.08551 38.4455 7.91031L36.8868 4.09004C35.4477 3.62852 34.1018 3.50195 32.8932 3.68332L33.5877 7.41483C32.941 7.62013 32.3598 7.95199 31.8556 8.40348L28.9573 5.92995C28.1911 6.87537 27.6245 8.09399 27.3023 9.56113L29.8438 12.8211C29.7944 13.2541 29.7651 13.7063 29.7651 14.1833C29.7651 14.6602 29.7937 15.1457 29.8438 15.6357L27.3023 15.9576C27.6245 17.7967 28.1911 19.6713 28.9573 21.502L31.8556 22.3795C32.359 23.4129 32.941 24.4185 33.5877 25.3709L32.8932 28.299C34.1011 29.8772 35.4477 31.3058 36.8868 32.509L38.4455 30.4908C38.8471 30.7802 39.2556 31.0488 39.6703 31.2888C40.085 31.5288 40.4936 31.7318 40.8952 31.907L42.4538 35.7273C43.8929 36.1888 45.2388 36.3154 46.4467 36.134L45.7522 32.4033C46.3981 32.198 46.9801 31.8661 47.4842 31.4146L50.3826 33.8881C51.1488 32.9427 51.7153 31.7241 52.0375 30.257L49.4961 26.997C49.5462 26.564 49.5747 26.1125 49.5747 25.6348ZM39.6703 23.7262C37.8357 22.6658 36.348 20.0966 36.348 17.9889C36.348 15.8812 37.8357 15.0315 39.6703 16.0919C41.5049 17.1531 42.9926 19.7215 42.9926 21.8292C42.9926 23.9377 41.5049 24.7874 39.6703 23.7262Z" fill="url(#paint16_linear_312_1010)"/>
<path d="M29.8191 15.6288L27.3547 15.9414C27.3594 15.9691 27.3655 15.9969 27.3709 16.0239L29.826 15.7129C29.8229 15.6844 29.8214 15.6566 29.8191 15.6288Z" fill="url(#paint17_radial_312_1010)"/>
<path d="M36.8681 4.16721L38.4267 7.98748C38.8283 8.16267 39.2361 8.36565 39.6516 8.60567C40.0671 8.84569 40.4748 9.11426 40.8764 9.40368L42.435 7.3855C43.8742 8.58792 45.2201 10.0165 46.428 11.5955L45.7334 14.5236C46.3802 15.476 46.9614 16.4808 47.4655 17.5142L50.3638 18.3917C51.1185 20.1946 51.6781 22.0407 52.0026 23.8536L52.0889 23.8428C51.7667 22.0029 51.2002 20.129 50.434 18.2976L47.5356 17.4201C47.0323 16.3859 46.4503 15.3811 45.8036 14.4295L46.4981 11.5006C45.2894 9.92231 43.9443 8.49376 42.5044 7.29057L40.9458 9.30875C40.5442 9.01934 40.1364 8.75076 39.721 8.51074C39.3055 8.27072 38.8977 8.06774 38.4961 7.89255L36.9375 4.07228C35.4983 3.61076 34.1525 3.48419 32.9446 3.66556L32.96 3.74891C34.1479 3.58761 35.4637 3.71649 36.8681 4.16721Z" fill="url(#paint18_radial_312_1010)"/>
<path d="M36.3305 18.0653C36.3305 20.173 37.8182 22.7422 39.6528 23.8026C40.917 24.5335 42.0154 24.3575 42.5773 23.4877C41.9984 24.2719 40.9385 24.4108 39.7229 23.7085C37.8884 22.648 36.4007 20.0796 36.4007 17.9711C36.4007 17.3151 36.5448 16.781 36.7984 16.389C36.5032 16.7888 36.3305 17.3537 36.3305 18.0653Z" fill="url(#paint19_radial_312_1010)"/>
<path d="M49.6279 25.6179C49.6279 25.1679 49.6009 24.711 49.5562 24.2495L49.4791 24.2588C49.5285 24.7488 49.5578 25.2351 49.5578 25.7112C49.5578 26.1874 49.5292 26.6405 49.4791 27.0734L52.0206 30.3334C51.7392 31.6138 51.2713 32.7043 50.6477 33.5903C51.306 32.6881 51.7993 31.5659 52.0907 30.2392L49.5493 26.9793C49.5994 26.5471 49.6279 26.0948 49.6279 25.6179Z" fill="url(#paint20_radial_312_1010)"/>
<path d="M45.7344 32.4797L46.4135 36.1271C46.4421 36.1232 46.4713 36.1217 46.4999 36.117L45.8169 32.4488C45.7892 32.4581 45.763 32.4712 45.7344 32.4797Z" fill="url(#paint21_radial_312_1010)"/>
<path d="M28.9394 6.00712L31.8377 8.48065C32.3418 8.02993 32.9238 7.6973 33.5698 7.49201L33.5582 7.42872C32.9454 7.63556 32.3904 7.9543 31.9078 8.38649L29.0095 5.91296C28.9124 6.03336 28.8176 6.15762 28.7266 6.28727C28.7968 6.19235 28.8661 6.09742 28.9394 6.00712Z" fill="url(#paint22_radial_312_1010)"/>
<path d="M39.6703 10.0311C34.9212 7.28595 31.0717 9.48395 31.0717 14.9396C31.0717 20.3953 34.922 27.0441 39.6703 29.7893C44.4194 32.5345 48.2689 30.3364 48.2689 24.8808C48.2689 19.4251 44.4186 12.7756 39.6703 10.0311ZM39.6703 25.2983C37.0803 23.8011 34.9806 20.1745 34.9806 17.1986C34.9806 14.2226 37.0803 13.0241 39.6703 14.5213C42.2603 16.0185 44.36 19.6451 44.36 22.621C44.36 25.597 42.2603 26.7956 39.6703 25.2983Z" fill="url(#paint23_linear_312_1010)"/>
<path d="M44.7465 21.8492C44.7465 18.8733 42.6468 15.2467 40.056 13.7495C37.9748 12.5463 36.2134 13.0866 35.6006 14.8879C36.4077 13.7318 37.927 13.5141 39.6706 14.5213C42.2614 16.0185 44.3611 19.6451 44.3611 22.621C44.3611 23.206 44.2771 23.7192 44.1268 24.1607C44.5191 23.5989 44.7465 22.8209 44.7465 21.8492Z" fill="#AFB6E5"/>
<path d="M40.055 29.0167C35.3066 26.2715 31.4563 19.6235 31.4563 14.1678C31.4563 12.9222 31.6652 11.8548 32.0322 10.9688C31.4217 11.9729 31.0709 13.3065 31.0709 14.9396C31.0709 20.3952 34.9212 27.044 39.6695 29.7885C43.3341 31.907 46.4544 31.0727 47.6924 28.079C46.2632 30.429 43.3826 30.9399 40.055 29.0167Z" fill="#AFB6E5"/>
<path d="M40.4758 6.70709L38.4447 7.91182L36.8861 4.09078L38.9172 2.88605L40.4758 6.70709Z" fill="#AFB6E5"/>
<path d="M46.4467 11.5191L48.4778 10.3143L47.7833 13.2424L45.7522 14.4472L46.4467 11.5191Z" fill="#AFB6E5"/>
<path d="M49.5154 16.2338L52.4137 17.1113L50.3826 18.3161L47.4842 17.4386L49.5154 16.2338Z" fill="#AFB6E5"/>
<defs>
<linearGradient id="paint0_linear_312_1010" x1="-11.2763" y1="99.0717" x2="39.3558" y2="28.6393" gradientUnits="userSpaceOnUse">
<stop stop-color="#B9BFEA"/>
<stop offset="0.3889" stop-color="#CED3F4"/>
<stop offset="0.6747" stop-color="#DEE2FC"/>
<stop offset="0.7828" stop-color="#E5E9FF"/>
<stop offset="1" stop-color="#EFF1FF"/>
</linearGradient>
<linearGradient id="paint1_linear_312_1010" x1="4.57099" y1="41.3045" x2="71.2658" y2="64.4074" gradientUnits="userSpaceOnUse">
<stop stop-color="#00C7C5"/>
<stop offset="0.3301" stop-color="#2D9BE0"/>
<stop offset="0.6313" stop-color="#5277F7"/>
<stop offset="0.6913" stop-color="#5B76F7"/>
<stop offset="0.7887" stop-color="#7374F6"/>
<stop offset="0.9106" stop-color="#9A70F4"/>
<stop offset="1" stop-color="#BB6DF3"/>
</linearGradient>
<linearGradient id="paint2_linear_312_1010" x1="20.8337" y1="91.5059" x2="69.8952" y2="42.6449" gradientUnits="userSpaceOnUse">
<stop stop-color="#B9BFEA"/>
<stop offset="0.3889" stop-color="#CED3F4"/>
<stop offset="0.6747" stop-color="#DEE2FC"/>
<stop offset="0.7828" stop-color="#E5E9FF"/>
<stop offset="1" stop-color="#EFF1FF"/>
</linearGradient>
<radialGradient id="paint3_radial_312_1010" cx="0" cy="0" r="1" gradientUnits="userSpaceOnUse" gradientTransform="translate(57.9356 34.6393) scale(3.83056 3.83524)">
<stop stop-color="white"/>
<stop offset="1"/>
</radialGradient>
<radialGradient id="paint4_radial_312_1010" cx="0" cy="0" r="1" gradientUnits="userSpaceOnUse" gradientTransform="translate(60.0359 52.7089) scale(5.02281 5.02894)">
<stop stop-color="white"/>
<stop offset="1"/>
</radialGradient>
<radialGradient id="paint5_radial_312_1010" cx="0" cy="0" r="1" gradientUnits="userSpaceOnUse" gradientTransform="translate(68.8583 43.5087) scale(6.76212 6.77037)">
<stop stop-color="white"/>
<stop offset="1"/>
</radialGradient>
<radialGradient id="paint6_radial_312_1010" cx="0" cy="0" r="1" gradientUnits="userSpaceOnUse" gradientTransform="translate(47.2154 52.4195) scale(0.707622 0.708485)">
<stop stop-color="white"/>
<stop offset="1"/>
</radialGradient>
<radialGradient id="paint7_radial_312_1010" cx="0" cy="0" r="1" gradientUnits="userSpaceOnUse" gradientTransform="translate(50.1436 34.1027) scale(2.86957 2.87308)">
<stop stop-color="white"/>
<stop offset="1"/>
</radialGradient>
<radialGradient id="paint8_radial_312_1010" cx="0" cy="0" r="1" gradientUnits="userSpaceOnUse" gradientTransform="translate(74.4368 57.8897) scale(4.20126 4.20639)">
<stop stop-color="white"/>
<stop offset="1"/>
</radialGradient>
<radialGradient id="paint9_radial_312_1010" cx="0" cy="0" r="1" gradientUnits="userSpaceOnUse" gradientTransform="translate(73.4402 65.8697) scale(2.42596 2.42892)">
<stop stop-color="white"/>
<stop offset="1"/>
</radialGradient>
<radialGradient id="paint10_radial_312_1010" cx="0" cy="0" r="1" gradientUnits="userSpaceOnUse" gradientTransform="translate(66.8964 71.1417) scale(1.07422 1.07554)">
<stop stop-color="white"/>
<stop offset="1"/>
</radialGradient>
<radialGradient id="paint11_radial_312_1010" cx="0" cy="0" r="1" gradientUnits="userSpaceOnUse" gradientTransform="translate(57.8455 67.4355) scale(0.746707 0.747617)">
<stop stop-color="white"/>
<stop offset="1"/>
</radialGradient>
<radialGradient id="paint12_radial_312_1010" cx="0" cy="0" r="1" gradientUnits="userSpaceOnUse" gradientTransform="translate(45.6906 41.1722) scale(0.973943 0.97513)">
<stop stop-color="white"/>
<stop offset="1"/>
</radialGradient>
<linearGradient id="paint13_linear_312_1010" x1="7.23501" y1="33.6166" x2="73.9289" y2="56.7192" gradientUnits="userSpaceOnUse">
<stop stop-color="#00C7C5"/>
<stop offset="0.3301" stop-color="#2D9BE0"/>
<stop offset="0.6313" stop-color="#5277F7"/>
<stop offset="0.6913" stop-color="#5B76F7"/>
<stop offset="0.7887" stop-color="#7374F6"/>
<stop offset="0.9106" stop-color="#9A70F4"/>
<stop offset="1" stop-color="#BB6DF3"/>
</linearGradient>
<linearGradient id="paint14_linear_312_1010" x1="55.7094" y1="47.3577" x2="63.3259" y2="58.1347" gradientUnits="userSpaceOnUse">
<stop stop-color="#AFB6E5"/>
<stop offset="0.4697" stop-color="#D1D5F0"/>
<stop offset="0.796" stop-color="#B8BEE8"/>
<stop offset="0.9949" stop-color="#AFB6E5"/>
</linearGradient>
<linearGradient id="paint15_linear_312_1010" x1="36.5097" y1="16.4846" x2="41.728" y2="23.8096" gradientUnits="userSpaceOnUse">
<stop stop-color="#AFB6E5"/>
<stop offset="0.4697" stop-color="#D1D5F0"/>
<stop offset="0.796" stop-color="#B8BEE8"/>
<stop offset="0.9949" stop-color="#AFB6E5"/>
</linearGradient>
<linearGradient id="paint16_linear_312_1010" x1="7.02425" y1="80.2048" x2="44.2679" y2="11.5854" gradientUnits="userSpaceOnUse">
<stop stop-color="#B9BFEA"/>
<stop offset="0.3889" stop-color="#CED3F4"/>
<stop offset="0.6747" stop-color="#DEE2FC"/>
<stop offset="0.7828" stop-color="#E5E9FF"/>
<stop offset="1" stop-color="#EFF1FF"/>
</linearGradient>
<radialGradient id="paint17_radial_312_1010" cx="0" cy="0" r="1" gradientUnits="userSpaceOnUse" gradientTransform="translate(28.5902 15.8259) scale(0.884839 0.885917)">
<stop stop-color="white"/>
<stop offset="1"/>
</radialGradient>
<radialGradient id="paint18_radial_312_1010" cx="0" cy="0" r="1" gradientUnits="userSpaceOnUse" gradientTransform="translate(45.4402 14.6019) scale(9.85037 9.86239)">
<stop stop-color="white"/>
<stop offset="1"/>
</radialGradient>
<radialGradient id="paint19_radial_312_1010" cx="0" cy="0" r="1" gradientUnits="userSpaceOnUse" gradientTransform="translate(38.1509 21.4525) scale(3.54999 3.55432)">
<stop stop-color="white"/>
<stop offset="1"/>
</radialGradient>
<radialGradient id="paint20_radial_312_1010" cx="0" cy="0" r="1" gradientUnits="userSpaceOnUse" gradientTransform="translate(50.7847 28.9197) scale(3.42542 3.4296)">
<stop stop-color="white"/>
<stop offset="1"/>
</radialGradient>
<radialGradient id="paint21_radial_312_1010" cx="0" cy="0" r="1" gradientUnits="userSpaceOnUse" gradientTransform="translate(46.1175 34.2882) scale(1.3266 1.32822)">
<stop stop-color="white"/>
<stop offset="1"/>
</radialGradient>
<radialGradient id="paint22_radial_312_1010" cx="0" cy="0" r="1" gradientUnits="userSpaceOnUse" gradientTransform="translate(31.1487 7.19704) scale(1.93725 1.93962)">
<stop stop-color="white"/>
<stop offset="1"/>
</radialGradient>
<linearGradient id="paint23_linear_312_1010" x1="14.9554" y1="11.3279" x2="81.6485" y2="34.4303" gradientUnits="userSpaceOnUse">
<stop stop-color="#00C7C5"/>
<stop offset="0.3301" stop-color="#2D9BE0"/>
<stop offset="0.6313" stop-color="#5277F7"/>
<stop offset="0.6913" stop-color="#5B76F7"/>
<stop offset="0.7887" stop-color="#7374F6"/>
<stop offset="0.9106" stop-color="#9A70F4"/>
<stop offset="1" stop-color="#BB6DF3"/>
</linearGradient>
</defs>
</svg>
