<?xml version="1.0" standalone="no"?>
<!DOCTYPE svg PUBLIC "-//W3C//DTD SVG 20010904//EN"
 "http://www.w3.org/TR/2001/REC-SVG-20010904/DTD/svg10.dtd">
<svg version="1.0" xmlns="http://www.w3.org/2000/svg"
 width="1360.000000pt" height="1360.000000pt" viewBox="0 0 1360.000000 1360.000000"
 preserveAspectRatio="xMidYMid meet">
<metadata>
Created by potrace 1.14, written by Peter Selinger 2001-2017
</metadata>
<g transform="translate(0.000000,1360.000000) scale(0.100000,-0.100000)"
fill="#000000" stroke="none">
<path d="M10946 11123 c-3 -3 -20 -8 -38 -10 -68 -7 -208 -95 -208 -130 0 -7
-4 -13 -8 -13 -8 0 -26 -37 -52 -106 -14 -36 -8 -145 11 -196 10 -27 29 -64
43 -83 14 -18 214 -222 446 -452 231 -231 420 -423 420 -427 0 -8 -17 -24
-116 -111 -37 -33 -92 -82 -122 -110 -30 -27 -64 -58 -76 -68 -36 -31 -169
-151 -194 -174 -12 -13 -25 -23 -28 -23 -3 0 -23 -18 -45 -40 -22 -22 -42 -40
-44 -40 -3 0 -20 -15 -39 -32 -30 -29 -61 -58 -185 -168 -19 -16 -38 -30 -43
-30 -4 0 -8 -7 -8 -15 0 -8 -4 -15 -9 -15 -5 0 -22 -12 -39 -27 -16 -16 -47
-44 -69 -63 -22 -19 -72 -64 -113 -100 -40 -36 -82 -73 -92 -82 -11 -9 -52
-45 -90 -80 -106 -95 -114 -101 -190 -170 -39 -35 -86 -76 -104 -93 -17 -16
-60 -55 -95 -85 -35 -30 -73 -64 -85 -75 -12 -11 -48 -43 -80 -71 -33 -29 -71
-62 -85 -75 -14 -13 -63 -58 -110 -99 -46 -41 -89 -79 -95 -85 -6 -5 -41 -37
-78 -70 -38 -33 -78 -69 -90 -80 -13 -11 -56 -49 -96 -85 -40 -36 -88 -78
-105 -95 -18 -16 -55 -49 -81 -72 -27 -22 -58 -49 -69 -60 -11 -10 -63 -56
-115 -103 -52 -47 -111 -99 -130 -117 -19 -17 -46 -41 -60 -53 -14 -11 -53
-47 -88 -78 -134 -121 -252 -226 -306 -273 -22 -19 -49 -43 -61 -54 -11 -11
-52 -47 -89 -80 -38 -33 -84 -74 -102 -91 -18 -17 -48 -44 -66 -59 -41 -35
-181 -161 -220 -197 -16 -16 -31 -28 -33 -28 -2 0 -19 -15 -38 -32 -18 -18
-64 -60 -101 -93 -38 -33 -79 -69 -91 -80 -108 -95 -162 -144 -190 -170 -18
-16 -64 -57 -101 -90 -38 -33 -82 -72 -97 -87 -16 -16 -30 -28 -32 -28 -3 0
-17 -12 -33 -27 -29 -29 -148 -135 -192 -173 -14 -12 -58 -52 -99 -88 -40 -37
-79 -71 -85 -77 -76 -68 -193 -172 -202 -180 -6 -5 -41 -37 -79 -70 -37 -33
-80 -71 -95 -85 -15 -14 -45 -40 -66 -59 -22 -18 -75 -66 -119 -106 -44 -40
-96 -85 -114 -101 -19 -16 -44 -38 -56 -49 -22 -21 -153 -139 -194 -174 -27
-24 -163 -145 -200 -179 -14 -13 -53 -47 -85 -75 -33 -29 -64 -57 -70 -63 -10
-10 -45 4 -66 26 -7 7 -65 52 -190 145 -58 44 -109 83 -115 87 -5 5 -32 25
-60 46 -27 20 -51 40 -53 45 -2 4 -10 7 -17 7 -7 0 -15 4 -17 8 -1 5 -77 64
-168 132 -91 68 -167 126 -170 130 -3 3 -25 20 -50 37 -25 17 -55 41 -67 52
-12 12 -25 21 -28 21 -6 0 -82 57 -95 70 -3 3 -41 32 -85 65 -44 32 -82 61
-85 64 -3 4 -21 17 -40 31 -19 13 -39 28 -45 32 -5 4 -23 18 -40 31 -16 13
-106 81 -200 151 -93 70 -177 133 -185 140 -9 6 -42 32 -75 56 -33 25 -61 48
-63 53 -2 4 -10 7 -17 7 -7 0 -15 4 -17 8 -1 4 -32 30 -68 57 -36 27 -67 53
-68 57 -2 4 -10 8 -18 8 -8 0 -17 7 -20 15 -4 8 -12 15 -19 15 -7 0 -15 3 -17
8 -1 4 -48 41 -103 82 -55 41 -102 77 -105 80 -8 9 -440 333 -474 356 -17 12
-37 29 -45 38 -7 9 -18 16 -23 16 -5 0 -23 13 -41 30 -18 16 -35 30 -39 30 -4
0 -13 6 -20 13 -19 19 -102 67 -130 74 -12 4 -61 7 -108 7 -73 0 -92 -4 -136
-27 -97 -50 -180 -159 -189 -250 -2 -17 -4 -689 -4 -1492 l-1 -1460 -464 0
c-255 0 -468 3 -472 7 -10 10 -12 169 -2 190 4 9 5 19 0 22 -4 2 -6 26 -5 53
3 48 3 68 -1 173 -1 30 2 65 6 77 4 12 4 24 -1 27 -4 3 -6 27 -4 53 2 26 4 55
4 63 -4 129 -2 270 3 279 4 6 3 11 -2 11 -9 0 -8 81 2 106 3 8 2 14 -2 14 -8
0 -7 322 2 345 3 8 2 15 -2 15 -9 0 -7 82 2 106 3 8 2 14 -2 14 -8 0 -7 322 2
345 3 8 2 15 -2 15 -9 0 -7 82 2 106 3 8 2 14 -2 14 -9 0 -8 72 2 88 3 6 3 13
-1 15 -5 3 -7 27 -6 54 3 48 3 68 -1 173 -1 30 2 65 6 77 4 12 4 24 0 27 -5 3
-7 24 -5 48 2 24 3 59 2 78 -4 134 0 420 5 429 4 6 3 11 -2 11 -9 0 -8 81 2
106 3 8 2 14 -2 14 -8 0 -7 482 1 504 4 9 3 16 -1 16 -9 0 -7 82 2 106 3 8 2
14 -2 14 -9 0 -8 233 1 248 4 6 4 13 0 15 -5 3 -7 27 -6 54 3 48 3 68 -1 173
-1 30 2 65 6 77 4 12 4 24 -1 27 -4 3 -6 27 -4 53 2 26 4 55 4 63 -4 129 -2
270 3 279 4 6 3 11 -2 11 -9 0 -8 81 2 106 3 8 2 14 -2 14 -8 0 -7 322 2 345
3 8 2 15 -2 15 -9 0 -7 82 2 106 3 8 2 14 -2 14 -8 0 -7 322 2 345 3 8 0 15
-7 15 -7 0 -8 3 -2 8 6 4 10 14 10 22 0 8 6 14 14 12 8 -2 263 -3 567 -4 l553
0 1583 -1580 c871 -869 1602 -1591 1625 -1605 55 -32 174 -59 196 -44 1 1 21
4 44 6 23 2 65 16 93 31 38 20 461 437 1636 1610 l1586 1582 753 0 c414 1 770
4 791 8 120 21 232 127 262 244 4 14 6 60 6 102 0 66 -4 85 -32 137 -37 71
-87 120 -162 158 l-55 28 -870 -1 c-478 0 -883 -2 -900 -5 -16 -3 -41 -11 -55
-19 -14 -7 -26 -13 -28 -11 -15 10 -262 -232 -1574 -1543 l-1518 -1515 -1495
1493 c-1470 1467 -1495 1493 -1495 1531 0 36 -1 37 -19 21 -17 -15 -47 -14
-61 4 -3 3 -27 15 -55 25 -48 19 -83 20 -905 21 -752 2 -885 -1 -945 -20 -72
-22 -133 -74 -181 -154 -27 -46 -33 -65 -39 -127 -2 -22 -4 -42 -5 -45 -6 -15
-4 -47 2 -62 5 -9 3 -20 -2 -23 -6 -4 -7 -12 -1 -23 5 -9 5 -26 1 -37 -5 -12
-4 -28 0 -35 5 -9 4 -20 -2 -27 -7 -9 -7 -13 1 -13 6 0 8 -8 3 -22 -4 -13 -6
-38 -4 -55 2 -31 2 -43 2 -75 0 -7 0 -31 1 -53 0 -22 0 -44 -1 -50 -5 -27 -4
-52 2 -67 5 -9 3 -20 -2 -23 -6 -4 -7 -12 -1 -23 5 -9 5 -26 1 -37 -5 -12 -4
-28 0 -35 5 -9 4 -20 -2 -27 -7 -9 -7 -13 1 -13 6 0 8 -8 3 -22 -4 -13 -6 -38
-4 -55 2 -31 2 -43 2 -75 0 -7 0 -31 1 -53 0 -22 0 -44 -1 -50 -5 -27 -4 -52
2 -67 5 -9 3 -20 -2 -23 -6 -4 -7 -12 -1 -23 5 -9 5 -26 1 -37 -5 -12 -4 -28
0 -35 5 -9 4 -20 -2 -27 -7 -9 -7 -13 1 -13 6 0 8 -8 3 -22 -4 -13 -6 -38 -4
-55 2 -31 2 -43 2 -75 0 -7 0 -31 1 -53 0 -22 0 -44 -1 -50 -5 -27 -4 -52 2
-67 5 -9 3 -20 -2 -23 -6 -4 -7 -12 -1 -23 5 -9 5 -26 1 -37 -5 -12 -4 -28 0
-35 5 -9 4 -20 -2 -27 -7 -9 -7 -13 1 -13 6 0 8 -8 3 -22 -4 -13 -6 -38 -4
-55 2 -31 2 -43 2 -75 0 -7 0 -31 1 -53 0 -22 0 -44 -1 -50 -5 -27 -4 -52 2
-67 5 -9 3 -20 -2 -23 -6 -4 -7 -12 -1 -23 5 -9 5 -26 1 -37 -5 -12 -4 -28 0
-35 5 -9 4 -20 -2 -27 -7 -9 -7 -13 1 -13 6 0 8 -8 3 -22 -4 -13 -6 -38 -4
-55 2 -31 2 -43 2 -75 0 -7 0 -31 1 -53 0 -22 0 -44 -1 -50 -5 -27 -4 -52 2
-67 5 -9 3 -20 -2 -23 -6 -4 -7 -12 -1 -23 5 -9 5 -26 1 -37 -5 -12 -4 -28 0
-35 5 -9 4 -20 -2 -27 -7 -9 -7 -13 1 -13 6 0 8 -8 3 -22 -4 -13 -6 -38 -4
-55 2 -31 2 -43 2 -75 0 -7 0 -31 1 -53 0 -22 0 -44 -1 -50 -5 -27 -4 -52 2
-67 5 -9 3 -20 -2 -23 -6 -4 -7 -12 -1 -23 5 -9 5 -26 1 -37 -5 -12 -4 -28 0
-35 5 -9 4 -20 -2 -27 -7 -9 -7 -13 1 -13 6 0 8 -8 3 -22 -4 -13 -6 -38 -4
-55 2 -31 2 -43 2 -75 0 -7 0 -31 1 -53 0 -22 0 -44 -1 -50 -5 -27 -4 -52 2
-67 5 -9 3 -20 -2 -23 -6 -4 -7 -12 -1 -23 5 -9 5 -26 1 -37 -5 -12 -4 -28 0
-35 5 -9 4 -20 -2 -27 -7 -9 -7 -13 1 -13 6 0 8 -8 3 -22 -4 -13 -6 -38 -4
-55 2 -31 2 -43 2 -75 0 -7 0 -31 1 -53 0 -22 0 -44 -1 -50 -5 -27 -4 -52 2
-67 5 -9 3 -20 -2 -23 -6 -4 -7 -12 -1 -23 5 -9 5 -26 1 -37 -5 -12 -4 -28 0
-35 5 -9 4 -20 -2 -27 -7 -9 -7 -13 1 -13 6 0 8 -8 3 -22 -4 -13 -6 -38 -4
-55 2 -31 2 -43 2 -75 0 -7 0 -31 1 -53 0 -22 0 -44 -1 -50 -5 -27 -4 -52 2
-67 5 -9 3 -20 -2 -23 -6 -4 -7 -12 -1 -23 5 -9 5 -26 1 -37 -5 -12 -4 -28 0
-35 5 -9 4 -20 -2 -27 -7 -9 -7 -13 1 -13 6 0 8 -8 3 -22 -4 -13 -6 -38 -4
-55 2 -31 2 -43 2 -75 0 -7 0 -31 1 -53 0 -22 0 -44 -1 -50 -5 -27 -4 -52 2
-67 5 -9 3 -20 -2 -23 -6 -4 -7 -12 -1 -23 5 -9 5 -26 1 -37 -5 -12 -4 -28 0
-35 5 -9 4 -20 -2 -27 -7 -9 -7 -13 1 -13 6 0 8 -8 3 -22 -4 -13 -6 -38 -4
-55 2 -31 2 -43 2 -75 0 -7 0 -31 1 -53 0 -22 0 -44 -1 -50 -5 -27 -4 -52 2
-67 5 -9 3 -20 -2 -23 -6 -4 -7 -12 -1 -23 5 -9 5 -26 1 -37 -5 -12 -4 -28 0
-35 5 -9 4 -20 -2 -27 -7 -9 -7 -13 1 -13 6 0 8 -8 3 -22 -4 -13 -6 -38 -4
-55 2 -31 2 -43 2 -75 0 -7 0 -31 1 -53 0 -22 0 -44 -1 -50 -5 -27 -4 -52 2
-67 5 -9 3 -20 -2 -23 -6 -4 -7 -12 -1 -23 5 -9 5 -26 1 -37 -5 -12 -4 -28 0
-35 5 -9 4 -20 -2 -27 -7 -9 -7 -13 1 -13 6 0 8 -8 3 -22 -4 -13 -6 -38 -4
-55 2 -31 2 -43 2 -75 0 -7 0 -31 1 -53 0 -22 0 -44 -1 -50 -5 -27 -4 -52 2
-67 5 -9 3 -20 -2 -23 -6 -4 -7 -12 -1 -23 5 -9 5 -26 1 -37 -5 -12 -4 -28 0
-35 5 -9 4 -20 -2 -27 -6 -7 -7 -13 -2 -13 5 0 9 -14 8 -32 -2 -71 48 -172
111 -227 43 -37 116 -69 176 -78 64 -10 1677 -9 1732 1 21 3 51 13 68 21 16 9
29 13 29 10 0 -7 35 22 83 69 21 21 51 63 66 95 l26 56 2 1245 c2 685 3 1275
3 1313 0 67 7 78 32 54 7 -7 94 -73 193 -147 98 -74 186 -140 195 -147 8 -7
51 -39 95 -72 44 -33 85 -64 90 -68 6 -5 28 -22 50 -38 22 -17 44 -33 50 -38
5 -4 37 -28 70 -53 33 -25 67 -50 75 -57 62 -49 454 -344 468 -352 9 -5 19
-13 22 -16 3 -3 61 -48 130 -100 69 -51 127 -96 130 -99 3 -3 39 -30 80 -60
41 -30 77 -57 80 -60 3 -3 21 -17 40 -30 19 -13 41 -30 49 -38 8 -7 26 -21 40
-30 14 -9 33 -23 41 -29 8 -7 98 -76 200 -152 102 -77 190 -144 195 -148 110
-90 455 -340 455 -329 0 2 19 -2 43 -8 48 -15 113 -13 174 3 64 17 117 56 274
201 15 14 50 45 79 70 28 25 71 63 95 85 24 22 64 58 90 80 25 22 63 56 84 75
21 19 66 60 101 90 34 30 72 64 84 75 32 28 176 157 197 176 53 46 145 127
168 149 51 46 176 158 197 177 12 10 54 47 94 83 40 36 81 72 90 80 24 21 149
133 181 161 36 33 159 143 190 171 79 69 155 136 184 163 18 17 63 57 101 90
37 33 79 70 92 83 14 12 50 44 80 70 30 26 66 58 81 72 15 14 60 54 101 90 40
36 85 76 100 90 14 14 57 52 95 85 38 33 81 71 95 85 15 14 57 52 95 85 38 33
81 72 97 88 16 15 31 27 34 27 2 0 17 12 32 28 23 23 112 103 196 175 40 35
137 122 175 157 20 19 66 60 100 90 35 30 78 69 96 85 47 43 153 137 199 176
21 19 52 48 70 64 18 17 59 53 91 80 32 28 81 72 109 98 28 27 68 63 90 80 21
18 52 46 70 62 17 17 62 57 100 90 38 33 79 69 91 80 25 24 156 141 203 181
19 16 48 43 66 59 18 17 66 59 106 95 40 36 83 75 96 88 13 12 26 22 28 22 3
0 18 13 33 28 16 16 53 50 83 77 30 26 91 79 134 119 44 39 102 91 130 116 28
25 56 50 62 55 6 6 39 35 74 65 34 30 77 69 94 85 18 17 61 55 95 85 62 54 84
73 166 148 51 46 191 171 219 195 12 10 48 42 81 72 33 29 69 62 81 72 21 18
147 131 188 168 12 11 52 46 89 79 36 32 79 70 95 85 115 104 146 132 197 176
142 123 187 187 201 290 8 56 8 57 -1 105 -18 96 -44 130 -329 416 -152 152
-276 277 -276 278 0 5 869 -2 878 -8 6 -3 13 -3 16 2 5 9 115 6 125 -3 3 -4 7
-433 8 -953 0 -521 3 -954 5 -962 31 -117 130 -216 247 -246 187 -47 374 69
417 259 1 4 2 8 4 10 7 7 4 2251 -3 2292 -25 149 -147 266 -292 282 -46 5
-106 4 -115 -2 -5 -3 -11 -1 -15 5 -4 6 -12 7 -24 1 -9 -5 -23 -6 -29 -2 -7 4
-33 5 -58 1 -24 -4 -47 -3 -50 2 -3 4 -13 4 -23 -2 -10 -5 -21 -7 -24 -4 -7 7
-97 11 -97 4 0 -3 -21 -4 -47 -3 -27 1 -48 2 -48 3 0 6 -58 4 -61 -2 -3 -5
-13 -4 -22 1 -11 6 -24 6 -35 0 -11 -7 -17 -7 -17 0 0 6 -11 6 -28 1 -16 -4
-36 -4 -45 1 -10 6 -18 5 -22 -1 -4 -7 -12 -7 -25 0 -13 7 -21 7 -25 0 -4 -6
-11 -8 -16 -5 -12 8 -89 12 -89 5 0 -3 -21 -4 -47 -3 -27 1 -48 2 -48 3 0 6
-58 4 -61 -2 -3 -5 -13 -4 -22 1 -11 6 -24 6 -35 0 -11 -7 -17 -7 -17 0 0 6
-11 6 -28 1 -16 -4 -36 -4 -45 1 -10 6 -18 5 -22 -1 -4 -7 -12 -7 -25 0 -13 7
-21 7 -25 0 -4 -6 -11 -8 -16 -5 -12 8 -89 12 -89 5 0 -3 -21 -4 -47 -3 -27 1
-48 2 -48 3 0 6 -58 4 -61 -2 -3 -5 -13 -4 -22 1 -11 6 -24 6 -35 0 -11 -7
-17 -7 -17 0 0 6 -11 6 -28 1 -16 -4 -36 -4 -45 1 -10 6 -18 5 -22 -1 -4 -7
-12 -7 -25 0 -13 7 -21 7 -25 0 -4 -6 -11 -8 -16 -5 -12 8 -89 12 -89 5 0 -3
-21 -4 -47 -3 -27 1 -48 2 -48 3 0 6 -58 4 -61 -2 -3 -5 -13 -4 -22 1 -11 6
-24 6 -35 0 -11 -7 -17 -7 -17 0 0 6 -11 6 -28 1 -16 -4 -36 -4 -45 1 -10 6
-18 5 -22 -1 -4 -7 -12 -7 -24 0 -10 5 -21 6 -25 3z"/>
<path d="M10043 6416 c-55 -18 -111 -53 -148 -92 -39 -41 -53 -66 -75 -129
-17 -49 -18 -145 -18 -1719 0 -1744 -1 -1703 42 -1782 19 -37 73 -96 111 -121
73 -50 192 -67 285 -41 61 17 180 105 180 134 0 8 3 14 8 14 10 0 40 78 47
125 5 37 9 347 5 370 -1 6 -1 15 0 20 1 6 1 30 1 55 0 25 0 70 0 100 0 30 0
87 -1 125 0 160 0 177 5 185 3 5 1 11 -5 15 -6 4 -8 11 -4 16 3 6 6 47 5 92
-1 171 -1 189 4 197 3 5 1 11 -5 15 -6 4 -8 11 -4 16 3 6 5 47 5 92 -1 172 -1
189 4 197 3 5 1 11 -5 15 -6 4 -8 11 -4 16 3 6 6 47 5 92 -1 171 -1 189 4 197
3 5 1 11 -5 15 -6 4 -8 11 -4 16 3 6 5 47 5 92 -1 172 -1 189 4 197 3 5 1 11
-5 15 -6 4 -8 11 -4 16 3 6 6 47 5 92 -1 171 -1 189 4 197 3 5 1 11 -5 15 -6
4 -8 11 -4 16 3 6 5 47 5 92 -1 172 -1 189 4 197 3 5 1 11 -5 15 -6 4 -8 11
-4 16 3 6 6 47 5 92 -1 171 -1 189 4 197 3 5 1 11 -5 15 -6 4 -7 11 -4 17 7
10 7 143 0 204 -17 160 -153 283 -321 291 -41 1 -87 -3 -112 -11z"/>
</g>
</svg>
