<svg width="514" height="87" viewBox="0 0 514 87" fill="none" xmlns="http://www.w3.org/2000/svg">
<g clip-path="url(#clip0_70_934)">
<path d="M90.322 76.513C89.026 76.513 87.975 75.463 87.975 74.167V44.842C87.975 43.547 89.026 42.496 90.322 42.496C91.618 42.496 92.668 43.547 92.668 44.842V74.167C92.667 75.463 91.618 76.513 90.322 76.513Z" fill="white"/>
<path d="M17.009 76.513H2.346C1.05 76.513 0 75.463 0 74.167V15.517C0 14.222 1.05 13.171 2.346 13.171H17.009C17.632 13.171 18.228 13.418 18.668 13.859L46.333 41.525L73.999 13.859C74.44 13.419 75.036 13.171 75.658 13.171H90.321C91.617 13.171 92.667 14.222 92.667 15.517C92.667 16.813 91.617 17.864 90.321 17.864H76.63L47.993 46.501C47.113 47.381 45.556 47.381 44.676 46.501L16.038 17.864H4.692V71.821H14.664V44.842C14.664 43.951 15.168 43.138 15.965 42.741C16.762 42.345 17.714 42.434 18.426 42.971L46.211 63.996L104.287 12.133L96.159 4.006C95.488 3.334 95.288 2.325 95.651 1.449C96.013 0.572001 96.869 0 97.818 0H117.584C118.88 0 119.931 1.051 119.931 2.347V22.112C119.931 23.408 118.88 24.459 117.584 24.459C116.288 24.459 115.238 23.408 115.238 22.112V4.695H103.482L109.361 10.572C109.816 11.029 110.064 11.653 110.047 12.298C110.03 12.943 109.746 13.552 109.264 13.982L47.896 68.782C47.059 69.528 45.813 69.579 44.917 68.903L19.355 49.56V74.167C19.355 75.463 18.306 76.513 17.009 76.513Z" fill="white"/>
<path d="M120.58 75V43.504L119.96 38.544H129.384L143.396 63.344L157.904 38.544H166.274V75H158.09V51.874H157.408L154.99 57.268L147.178 71.28H139.676L131.864 57.268L129.384 51.874H128.764V75H120.58ZM182.906 75C180.839 75 179.248 74.7313 178.132 74.194C177.016 73.6567 176.21 72.9747 175.714 72.148C175.259 71.3213 174.97 70.4533 174.846 69.544C174.763 68.6347 174.722 67.808 174.722 67.064V55.16C174.722 54.54 174.763 53.796 174.846 52.928C174.97 52.0187 175.259 51.13 175.714 50.262C176.21 49.394 177.016 48.6707 178.132 48.092C179.289 47.5133 180.881 47.224 182.906 47.224H196.236C198.964 47.224 201.093 47.4927 202.622 48.03C204.193 48.526 205.288 49.3527 205.908 50.51C206.569 51.6673 206.9 53.2173 206.9 55.16V64.336H196.05C192.33 64.336 189.292 64.2533 186.936 64.088C184.621 63.9227 183.071 63.8193 182.286 63.778V67.188C182.245 68.8413 183.237 69.668 185.262 69.668H188.424C190.656 69.668 192.826 69.6473 194.934 69.606C197.083 69.5233 199.047 69.4407 200.824 69.358C202.601 69.234 204.027 69.1307 205.102 69.048L207.582 73.078C207.582 74.3593 203.511 75 195.368 75H182.906ZM182.286 59.004H199.336V55.036C199.336 54.2093 199.233 53.6307 199.026 53.3C198.861 52.9693 198.323 52.7627 197.414 52.68C196.505 52.5973 194.955 52.556 192.764 52.556H185.262C183.278 52.556 182.286 53.3827 182.286 55.036V59.004ZM234.561 85.912C230.015 85.912 226.315 85.8707 223.463 85.788C220.611 85.7053 218.421 85.5813 216.891 85.416C215.362 85.2507 214.308 85.044 213.729 84.796C213.192 84.548 212.923 84.2793 212.923 83.99L214.783 79.34C215.445 79.5467 216.602 79.7947 218.255 80.084C219.95 80.4147 222.099 80.58 224.703 80.58H235.305C236.835 80.58 237.909 80.3527 238.529 79.898C239.191 79.4433 239.521 78.6373 239.521 77.48V73.76C237.744 74.0907 235.636 74.38 233.197 74.628C230.8 74.876 228.031 75 224.889 75H221.789C219.723 75 218.131 74.7313 217.015 74.194C215.899 73.6567 215.093 72.9747 214.597 72.148C214.143 71.3213 213.853 70.4533 213.729 69.544C213.647 68.6347 213.605 67.808 213.605 67.064V55.16C213.605 54.54 213.647 53.796 213.729 52.928C213.853 52.0187 214.143 51.13 214.597 50.262C215.093 49.394 215.899 48.6707 217.015 48.092C218.173 47.5133 219.764 47.224 221.789 47.224H224.951C229.291 47.224 232.66 47.3067 235.057 47.472C237.496 47.6373 239.273 47.8233 240.389 48.03L242.001 47.224H247.085V77.976C247.085 78.72 246.961 79.5467 246.713 80.456C246.507 81.3653 246.073 82.2333 245.411 83.06C244.75 83.8867 243.799 84.5687 242.559 85.106C241.319 85.6433 239.687 85.912 237.661 85.912H234.561ZM224.145 69.668H237.599C238.55 69.668 239.108 69.5853 239.273 69.42C239.439 69.2547 239.521 68.7173 239.521 67.808V52.99C238.116 52.9073 236.339 52.8247 234.189 52.742C232.04 52.618 229.746 52.556 227.307 52.556H224.145C222.161 52.556 221.169 53.3827 221.169 55.036V67.188C221.128 68.8413 222.12 69.668 224.145 69.668ZM262.92 75C259.779 75 257.505 74.2767 256.1 72.83C254.695 71.342 253.992 69.3167 253.992 66.754C253.992 64.0673 254.715 62.0007 256.162 60.554C257.65 59.1073 259.903 58.384 262.92 58.384H266.082C269.182 58.384 271.972 58.4667 274.452 58.632C276.932 58.7973 278.978 58.9627 280.59 59.128V55.036C280.59 54.664 280.549 54.292 280.466 53.92C280.383 53.5067 280.135 53.176 279.722 52.928C279.309 52.68 278.606 52.556 277.614 52.556H274.514C270.009 52.556 266.247 52.6387 263.23 52.804C260.213 52.928 258.167 53.052 257.092 53.176L256.41 48.464C256.41 47.8853 257.981 47.534 261.122 47.41C264.263 47.286 269.513 47.224 276.87 47.224H279.97C282.037 47.224 283.628 47.5133 284.744 48.092C285.86 48.6707 286.645 49.394 287.1 50.262C287.596 51.13 287.885 52.0187 287.968 52.928C288.092 53.796 288.154 54.54 288.154 55.16V75H283.07L280.652 73.76C278.916 74.0493 276.829 74.3387 274.39 74.628C271.951 74.876 269.161 75 266.02 75H262.92ZM264.532 69.668H278.73C279.639 69.668 280.177 69.5853 280.342 69.42C280.507 69.2547 280.59 68.738 280.59 67.87V63.096H264.532C263.416 63.096 262.631 63.3647 262.176 63.902C261.763 64.4393 261.556 65.2867 261.556 66.444C261.556 67.6013 261.804 68.428 262.3 68.924C262.796 69.42 263.54 69.668 264.532 69.668ZM296.921 75V38.544H305.105V75H296.921ZM314.158 75V47.224H319.242L320.792 47.968C321.991 47.7613 323.458 47.596 325.194 47.472C326.93 47.3067 328.997 47.224 331.394 47.224H334.494C335.693 47.224 336.85 47.3893 337.966 47.72C339.082 48.0093 339.909 48.4433 340.446 49.022C341.521 48.4847 343.009 48.0507 344.91 47.72C346.812 47.3893 349.292 47.224 352.35 47.224H355.45C357.517 47.224 359.108 47.5133 360.224 48.092C361.34 48.6707 362.126 49.394 362.58 50.262C363.076 51.13 363.366 52.0187 363.448 52.928C363.572 53.796 363.634 54.54 363.634 55.16V75H356.07V55.036C356.07 53.3827 355.078 52.556 353.094 52.556H344.414C343.753 52.556 343.298 52.6387 343.05 52.804C342.802 52.9693 342.678 53.3413 342.678 53.92V75H335.114V55.036C335.114 53.3827 334.122 52.556 332.138 52.556H323.582C322.797 52.556 322.28 52.6387 322.032 52.804C321.826 52.928 321.722 53.3 321.722 53.92V75H314.158ZM371.144 86.532V47.224H376.228L377.778 48.03C379.638 47.8233 381.849 47.6373 384.412 47.472C387.016 47.3067 389.971 47.224 393.278 47.224H396.44C398.506 47.224 400.098 47.4927 401.214 48.03C402.33 48.5673 403.115 49.2493 403.57 50.076C404.066 50.9027 404.355 51.7707 404.438 52.68C404.562 53.5893 404.624 54.416 404.624 55.16V67.064C404.624 67.684 404.562 68.4487 404.438 69.358C404.355 70.226 404.066 71.094 403.57 71.962C403.115 72.83 402.33 73.5533 401.214 74.132C400.098 74.7107 398.506 75 396.44 75H393.278C390.136 75 387.346 74.9173 384.908 74.752C382.469 74.5867 380.402 74.4213 378.708 74.256V86.532H371.144ZM380.63 69.668H394.084C394.869 69.668 395.551 69.4613 396.13 69.048C396.75 68.6347 397.06 68.0147 397.06 67.188V55.036C397.101 54.1267 396.874 53.486 396.378 53.114C395.923 52.742 395.158 52.556 394.084 52.556H390.984C388.338 52.556 385.982 52.618 383.916 52.742C381.89 52.8247 380.154 52.928 378.708 53.052V67.746C378.708 68.6553 378.79 69.2133 378.956 69.42C379.162 69.5853 379.72 69.668 380.63 69.668ZM419.84 75C416.699 75 414.425 74.2767 413.02 72.83C411.615 71.342 410.912 69.3167 410.912 66.754C410.912 64.0673 411.635 62.0007 413.082 60.554C414.57 59.1073 416.823 58.384 419.84 58.384H423.002C426.102 58.384 428.892 58.4667 431.372 58.632C433.852 58.7973 435.898 58.9627 437.51 59.128V55.036C437.51 54.664 437.469 54.292 437.386 53.92C437.303 53.5067 437.055 53.176 436.642 52.928C436.229 52.68 435.526 52.556 434.534 52.556H431.434C426.929 52.556 423.167 52.6387 420.15 52.804C417.133 52.928 415.087 53.052 414.012 53.176L413.33 48.464C413.33 47.8853 414.901 47.534 418.042 47.41C421.183 47.286 426.433 47.224 433.79 47.224H436.89C438.957 47.224 440.548 47.5133 441.664 48.092C442.78 48.6707 443.565 49.394 444.02 50.262C444.516 51.13 444.805 52.0187 444.888 52.928C445.012 53.796 445.074 54.54 445.074 55.16V75H439.99L437.572 73.76C435.836 74.0493 433.749 74.3387 431.31 74.628C428.871 74.876 426.081 75 422.94 75H419.84ZM421.452 69.668H435.65C436.559 69.668 437.097 69.5853 437.262 69.42C437.427 69.2547 437.51 68.738 437.51 67.87V63.096H421.452C420.336 63.096 419.551 63.3647 419.096 63.902C418.683 64.4393 418.476 65.2867 418.476 66.444C418.476 67.6013 418.724 68.428 419.22 68.924C419.716 69.42 420.46 69.668 421.452 69.668ZM460.165 75C458.098 75 456.507 74.7313 455.391 74.194C454.275 73.6567 453.469 72.9747 452.973 72.148C452.518 71.3213 452.229 70.4533 452.105 69.544C452.022 68.6347 451.981 67.808 451.981 67.064V55.16C451.981 54.54 452.022 53.796 452.105 52.928C452.229 52.0187 452.518 51.13 452.973 50.262C453.469 49.394 454.275 48.6707 455.391 48.092C456.548 47.5133 458.139 47.224 460.165 47.224H468.783C473.949 47.224 477.607 47.3687 479.757 47.658C481.947 47.906 483.043 48.1747 483.043 48.464L481.803 53.176C480.645 53.0933 479.178 53.0107 477.401 52.928C475.623 52.804 473.701 52.7213 471.635 52.68C469.609 52.5973 467.625 52.556 465.683 52.556H462.521C460.537 52.556 459.545 53.3827 459.545 55.036V67.188C459.503 68.8413 460.495 69.668 462.521 69.668H465.683C467.915 69.668 470.085 69.6473 472.193 69.606C474.342 69.5233 476.305 69.4407 478.083 69.358C479.86 69.234 481.286 69.1307 482.361 69.048L484.841 73.078C484.841 74.3593 480.769 75 472.627 75H460.165ZM500.333 75C497.192 75 495.042 74.3387 493.885 73.016C492.728 71.6933 492.149 69.7093 492.149 67.064V52.556H487.065V47.224H489.669C490.454 47.224 491.012 47.1 491.343 46.852C491.715 46.604 491.984 46.108 492.149 45.364L493.389 38.73H499.713V47.224H512.609V52.556H499.713V67.126C499.713 68.1593 499.961 68.8413 500.457 69.172C500.953 69.5027 501.697 69.668 502.689 69.668H511.431L512.051 74.38C511.183 74.504 509.86 74.6487 508.083 74.814C506.306 74.938 504.363 75 502.255 75H500.333Z" fill="#FEFCFF"/>
</g>
<defs>
<clipPath id="clip0_70_934">
<rect width="514" height="87" fill="white"/>
</clipPath>
</defs>
</svg>
