<svg width="356" height="61" viewBox="0 0 356 61" fill="none" xmlns="http://www.w3.org/2000/svg">
<g clip-path="url(#clip0_70_738)">
<path d="M62.4146 52.8722C61.519 52.8722 60.7928 52.1467 60.7928 51.2511V30.9869C60.7928 30.092 61.519 29.3657 62.4146 29.3657C63.3101 29.3657 64.0357 30.092 64.0357 30.9869V51.2511C64.035 52.1467 63.3101 52.8722 62.4146 52.8722Z" fill="#6222C6"/>
<path d="M11.7536 52.8722H1.62114C0.725575 52.8722 0 52.1467 0 51.2511V10.7226C0 9.82773 0.725575 9.10146 1.62114 9.10146H11.7536C12.1841 9.10146 12.596 9.27215 12.9 9.57689L32.0172 28.6947L51.135 9.57689C51.4397 9.27284 51.8516 9.10146 52.2814 9.10146H62.4139C63.3095 9.10146 64.035 9.82773 64.035 10.7226C64.035 11.6182 63.3095 12.3444 62.4139 12.3444H52.9531L33.1643 32.1333C32.5562 32.7414 31.4802 32.7414 30.8721 32.1333L11.0826 12.3444H3.24228V49.63H10.1332V30.9869C10.1332 30.3712 10.4814 29.8094 11.0322 29.535C11.5829 29.2614 12.2408 29.3229 12.7328 29.6939L31.9329 44.2227L72.0647 8.38418L66.4481 2.76824C65.9844 2.30387 65.8462 1.60663 66.097 1.00129C66.3472 0.395266 66.9387 0 67.5945 0H81.2532C82.1488 0 82.8751 0.726265 82.8751 1.62183V15.2799C82.8751 16.1755 82.1488 16.9017 81.2532 16.9017C80.3577 16.9017 79.6321 16.1755 79.6321 15.2799V3.24435H71.5084L75.571 7.3055C75.8854 7.62129 76.0568 8.05249 76.045 8.4982C76.0333 8.94391 75.837 9.36474 75.5039 9.66188L33.0972 47.5299C32.5189 48.0455 31.6578 48.0807 31.0387 47.6136L13.3747 34.2471V51.2511C13.3747 52.1467 12.6499 52.8722 11.7536 52.8722Z" fill="#6222C6"/>
<path d="M83.3236 51.8767V30.1122L82.8951 26.6848H89.4073L99.0899 43.8221L109.115 26.6848H114.899V51.8767H109.244V35.8961H108.773L107.102 39.6235L101.703 49.3061H96.5193L91.1211 39.6235L89.4073 35.8961H88.9789V51.8767H83.3236ZM126.392 51.8767C124.964 51.8767 123.865 51.6911 123.093 51.3197C122.322 50.9484 121.765 50.4772 121.422 49.9059C121.108 49.3347 120.908 48.7349 120.823 48.1065C120.766 47.4781 120.737 46.9069 120.737 46.3928V38.1668C120.737 37.7384 120.766 37.2243 120.823 36.6244C120.908 35.9961 121.108 35.382 121.422 34.7822C121.765 34.1824 122.322 33.6825 123.093 33.2827C123.893 32.8828 124.993 32.6829 126.392 32.6829H135.604C137.489 32.6829 138.96 32.8685 140.017 33.2398C141.102 33.5826 141.859 34.1538 142.287 34.9536C142.744 35.7533 142.973 36.8244 142.973 38.1668V44.5076H135.475C132.904 44.5076 130.805 44.4505 129.177 44.3363C127.578 44.222 126.507 44.1506 125.964 44.122V46.4784C125.935 47.6209 126.621 48.1922 128.02 48.1922H130.205C131.748 48.1922 133.247 48.1779 134.704 48.1493C136.189 48.0922 137.546 48.0351 138.774 47.978C140.002 47.8923 140.988 47.8209 141.73 47.7637L143.444 50.5486C143.444 51.434 140.631 51.8767 135.004 51.8767H126.392ZM125.964 40.8231H137.746V38.0811C137.746 37.5099 137.674 37.11 137.532 36.8815C137.417 36.653 137.046 36.5102 136.418 36.4531C135.789 36.396 134.718 36.3674 133.204 36.3674H128.02C126.649 36.3674 125.964 36.9386 125.964 38.0811V40.8231ZM162.087 59.4172C158.945 59.4172 156.389 59.3886 154.418 59.3315C152.447 59.2743 150.934 59.1887 149.877 59.0744C148.82 58.9602 148.092 58.8173 147.692 58.646C147.321 58.4746 147.135 58.2889 147.135 58.089L148.42 54.8757C148.877 55.0186 149.677 55.1899 150.819 55.3899C151.99 55.6184 153.476 55.7326 155.275 55.7326H162.601C163.658 55.7326 164.401 55.5755 164.829 55.2613C165.286 54.9472 165.515 54.3902 165.515 53.5904V51.0198C164.287 51.2483 162.83 51.4483 161.145 51.6196C159.488 51.791 157.574 51.8767 155.404 51.8767H153.262C151.833 51.8767 150.734 51.6911 149.963 51.3197C149.191 50.9484 148.634 50.4772 148.292 49.9059C147.977 49.3347 147.778 48.7349 147.692 48.1065C147.635 47.4781 147.606 46.9069 147.606 46.3928V38.1668C147.606 37.7384 147.635 37.2243 147.692 36.6244C147.778 35.9961 147.977 35.382 148.292 34.7822C148.634 34.1824 149.191 33.6825 149.963 33.2827C150.762 32.8828 151.862 32.6829 153.262 32.6829H155.447C158.446 32.6829 160.773 32.74 162.43 32.8542C164.115 32.9685 165.343 33.097 166.115 33.2398L167.228 32.6829H170.742V53.9332C170.742 54.4473 170.656 55.0186 170.485 55.6469C170.342 56.2753 170.042 56.8751 169.585 57.4464C169.128 58.0176 168.471 58.4889 167.614 58.8602C166.757 59.2315 165.629 59.4172 164.229 59.4172H162.087ZM154.89 48.1922H164.187C164.844 48.1922 165.229 48.135 165.343 48.0208C165.458 47.9066 165.515 47.5352 165.515 46.9069V36.6673C164.544 36.6102 163.315 36.553 161.83 36.4959C160.345 36.4102 158.76 36.3674 157.075 36.3674H154.89C153.519 36.3674 152.833 36.9386 152.833 38.0811V46.4784C152.805 47.6209 153.49 48.1922 154.89 48.1922ZM181.684 51.8767C179.513 51.8767 177.942 51.3769 176.971 50.3772C176 49.3489 175.514 47.9494 175.514 46.1785C175.514 44.322 176.014 42.8939 177.014 41.8942C178.042 40.8945 179.599 40.3947 181.684 40.3947H183.869C186.011 40.3947 187.939 40.4518 189.653 40.566C191.366 40.6803 192.78 40.7945 193.894 40.9088V38.0811C193.894 37.8241 193.866 37.567 193.809 37.3099C193.751 37.0243 193.58 36.7958 193.294 36.6244C193.009 36.4531 192.523 36.3674 191.838 36.3674H189.696C186.582 36.3674 183.983 36.4245 181.898 36.5388C179.813 36.6244 178.399 36.7101 177.657 36.7958L177.185 33.5397C177.185 33.1398 178.271 32.8971 180.441 32.8114C182.612 32.7257 186.24 32.6829 191.324 32.6829H193.466C194.894 32.6829 195.994 32.8828 196.765 33.2827C197.536 33.6825 198.079 34.1824 198.393 34.7822C198.736 35.382 198.935 35.9961 198.993 36.6244C199.078 37.2243 199.121 37.7384 199.121 38.1668V51.8767H195.608L193.937 51.0198C192.737 51.2198 191.295 51.4197 189.61 51.6196C187.925 51.791 185.997 51.8767 183.826 51.8767H181.684ZM182.798 48.1922H192.609C193.237 48.1922 193.609 48.135 193.723 48.0208C193.837 47.9066 193.894 47.5495 193.894 46.9497V43.6508H182.798C182.027 43.6508 181.484 43.8364 181.17 44.2077C180.884 44.579 180.741 45.1646 180.741 45.9643C180.741 46.7641 180.913 47.3353 181.255 47.6781C181.598 48.0208 182.112 48.1922 182.798 48.1922ZM205.179 51.8767V26.6848H210.834V51.8767H205.179ZM217.091 51.8767V32.6829H220.604L221.675 33.197C222.503 33.0542 223.517 32.9399 224.717 32.8542C225.916 32.74 227.345 32.6829 229.001 32.6829H231.143C231.972 32.6829 232.771 32.7971 233.543 33.0256C234.314 33.2255 234.885 33.5254 235.256 33.9253C235.999 33.554 237.027 33.2541 238.341 33.0256C239.655 32.7971 241.369 32.6829 243.482 32.6829H245.624C247.052 32.6829 248.152 32.8828 248.923 33.2827C249.695 33.6825 250.237 34.1824 250.551 34.7822C250.894 35.382 251.094 35.9961 251.151 36.6244C251.237 37.2243 251.28 37.7384 251.28 38.1668V51.8767H246.053V38.0811C246.053 36.9386 245.367 36.3674 243.996 36.3674H237.998C237.541 36.3674 237.227 36.4245 237.056 36.5388C236.884 36.653 236.799 36.9101 236.799 37.3099V51.8767H231.572V38.0811C231.572 36.9386 230.886 36.3674 229.515 36.3674H223.603C223.06 36.3674 222.703 36.4245 222.532 36.5388C222.389 36.6244 222.318 36.8815 222.318 37.3099V51.8767H217.091ZM256.469 59.8456V32.6829H259.982L261.053 33.2398C262.338 33.097 263.866 32.9685 265.637 32.8542C267.437 32.74 269.479 32.6829 271.764 32.6829H273.949C275.377 32.6829 276.477 32.8685 277.248 33.2398C278.019 33.6111 278.562 34.0824 278.876 34.6537C279.219 35.2249 279.419 35.8247 279.476 36.4531C279.561 37.0814 279.604 37.6527 279.604 38.1668V46.3928C279.604 46.8212 279.561 47.3496 279.476 47.978C279.419 48.5778 279.219 49.1776 278.876 49.7774C278.562 50.3772 278.019 50.877 277.248 51.2769C276.477 51.6768 275.377 51.8767 273.949 51.8767H271.764C269.593 51.8767 267.665 51.8196 265.98 51.7053C264.295 51.5911 262.867 51.4768 261.696 51.3626V59.8456H256.469ZM263.024 48.1922H272.321C272.864 48.1922 273.335 48.0494 273.735 47.7637C274.163 47.4781 274.377 47.0497 274.377 46.4784V38.0811C274.406 37.4528 274.249 37.01 273.906 36.753C273.592 36.4959 273.064 36.3674 272.321 36.3674H270.179C268.351 36.3674 266.723 36.4102 265.295 36.4959C263.895 36.553 262.695 36.6244 261.696 36.7101V46.864C261.696 47.4924 261.753 47.878 261.867 48.0208C262.01 48.135 262.396 48.1922 263.024 48.1922ZM290.119 51.8767C287.948 51.8767 286.377 51.3769 285.406 50.3772C284.435 49.3489 283.95 47.9494 283.95 46.1785C283.95 44.322 284.449 42.8939 285.449 41.8942C286.477 40.8945 288.034 40.3947 290.119 40.3947H292.304C294.446 40.3947 296.374 40.4518 298.088 40.566C299.802 40.6803 301.215 40.7945 302.329 40.9088V38.0811C302.329 37.8241 302.301 37.567 302.244 37.3099C302.187 37.0243 302.015 36.7958 301.73 36.6244C301.444 36.4531 300.958 36.3674 300.273 36.3674H298.131C295.017 36.3674 292.418 36.4245 290.333 36.5388C288.248 36.6244 286.834 36.7101 286.092 36.7958L285.62 33.5397C285.62 33.1398 286.706 32.8971 288.877 32.8114C291.047 32.7257 294.675 32.6829 299.759 32.6829H301.901C303.329 32.6829 304.429 32.8828 305.2 33.2827C305.971 33.6825 306.514 34.1824 306.828 34.7822C307.171 35.382 307.371 35.9961 307.428 36.6244C307.513 37.2243 307.556 37.7384 307.556 38.1668V51.8767H304.043L302.372 51.0198C301.173 51.2198 299.73 51.4197 298.045 51.6196C296.36 51.791 294.432 51.8767 292.261 51.8767H290.119ZM291.233 48.1922H301.044C301.672 48.1922 302.044 48.135 302.158 48.0208C302.272 47.9066 302.329 47.5495 302.329 46.9497V43.6508H291.233C290.462 43.6508 289.919 43.8364 289.605 44.2077C289.319 44.579 289.176 45.1646 289.176 45.9643C289.176 46.7641 289.348 47.3353 289.691 47.6781C290.033 48.0208 290.547 48.1922 291.233 48.1922ZM317.984 51.8767C316.556 51.8767 315.457 51.6911 314.685 51.3197C313.914 50.9484 313.357 50.4772 313.015 49.9059C312.7 49.3347 312.5 48.7349 312.415 48.1065C312.358 47.4781 312.329 46.9069 312.329 46.3928V38.1668C312.329 37.7384 312.358 37.2243 312.415 36.6244C312.5 35.9961 312.7 35.382 313.015 34.7822C313.357 34.1824 313.914 33.6825 314.685 33.2827C315.485 32.8828 316.585 32.6829 317.984 32.6829H323.94C327.51 32.6829 330.038 32.7828 331.523 32.9828C333.037 33.1541 333.794 33.3398 333.794 33.5397L332.937 36.7958C332.137 36.7387 331.123 36.6816 329.895 36.6244C328.667 36.5388 327.339 36.4816 325.91 36.4531C324.511 36.396 323.14 36.3674 321.797 36.3674H319.612C318.241 36.3674 317.556 36.9386 317.556 38.0811V46.4784C317.527 47.6209 318.213 48.1922 319.612 48.1922H321.797C323.34 48.1922 324.839 48.1779 326.296 48.1493C327.781 48.0922 329.138 48.0351 330.366 47.978C331.594 47.8923 332.58 47.8209 333.322 47.7637L335.036 50.5486C335.036 51.434 332.223 51.8767 326.596 51.8767H317.984ZM345.742 51.8767C343.571 51.8767 342.086 51.4197 341.286 50.5057C340.486 49.5917 340.086 48.2207 340.086 46.3928V36.3674H336.573V32.6829H338.373C338.915 32.6829 339.301 32.5972 339.529 32.4258C339.786 32.2544 339.972 31.9117 340.086 31.3976L340.943 26.8133H345.313V32.6829H354.225V36.3674H345.313V46.4356C345.313 47.1497 345.485 47.6209 345.827 47.8494C346.17 48.0779 346.684 48.1922 347.37 48.1922H353.411L353.839 51.4483C353.239 51.534 352.325 51.6339 351.097 51.7482C349.869 51.8339 348.526 51.8767 347.07 51.8767H345.742Z" fill="#6222C6"/>
</g>
<defs>
<clipPath id="clip0_70_738">
<rect width="355.186" height="60.119" fill="white"/>
</clipPath>
</defs>
</svg>
