<svg aria-hidden="true" style="position: absolute; width: 0; height: 0; overflow: hidden;" version="1.1" xmlns="http://www.w3.org/2000/svg" xmlns:xlink="http://www.w3.org/1999/xlink">
<defs>
<symbol id="icon-fb" viewBox="0 0 32 32">
  <path fill="#fefcff" style="fill: var(--color1, #fefcff)" d="M18.478 32v-14.596h4.897l0.735-5.69h-5.632v-3.632c0-1.647 0.455-2.769 2.82-2.769l3.010-0.001v-5.089c-0.521-0.068-2.308-0.223-4.388-0.223-4.343 0-7.317 2.651-7.317 7.519v4.196h-4.912v5.69h4.912v14.596h5.874z"></path>
</symbol>
<symbol id="icon-in" viewBox="0 0 32 32">
  <path fill="#fefcff" style="fill: var(--color1, #fefcff)" d="M29.327 29.333v-0.001h0.007v-9.78c0-4.784-1.030-8.47-6.623-8.47-2.689 0-4.493 1.476-5.23 2.874h-0.078v-2.428h-5.303v17.803h5.522v-8.816c0-2.321 0.44-4.566 3.314-4.566 2.832 0 2.874 2.649 2.874 4.714v8.668h5.517z"></path>
  <path fill="#fefcff" style="fill: var(--color1, #fefcff)" d="M3.107 11.53h5.529v17.803h-5.529v-17.803z"></path>
  <path fill="#fefcff" style="fill: var(--color1, #fefcff)" d="M5.869 2.667c-1.768 0-3.202 1.434-3.202 3.202s1.434 3.232 3.202 3.232c1.768 0 3.202-1.464 3.202-3.232-0.001-1.768-1.436-3.202-3.202-3.202v0z"></path>
</symbol>
<symbol id="icon-insta" viewBox="0 0 32 32">
  <path fill="#fefcff" style="fill: var(--color1, #fefcff)" d="M22.667 2.667h-13.333c-3.666 0-6.667 2.999-6.667 6.667v13.333c0 3.666 3 6.667 6.667 6.667h13.333c3.666 0 6.667-3 6.667-6.667v-13.333c0-3.668-3-6.667-6.667-6.667zM16 21.555c-3.069 0-5.556-2.488-5.556-5.555 0-3.069 2.487-5.556 5.556-5.556 3.067 0 5.556 2.487 5.556 5.556 0 3.067-2.488 5.555-5.556 5.555zM23.222 10.444c-0.921 0-1.667-0.746-1.667-1.667s0.745-1.667 1.667-1.667c0.921 0 1.667 0.746 1.667 1.667s-0.745 1.667-1.667 1.667z"></path>
</symbol>
</defs>
</svg>
