<svg width="260" height="70" viewBox="0 0 260 70" fill="none" xmlns="http://www.w3.org/2000/svg">
<path d="M90.4991 43.6213C91.5877 43.6213 92.5208 44.0097 93.2984 44.7087C94.0759 45.4854 94.4647 46.4175 94.4647 47.5048C94.4647 48.5922 94.0759 49.5242 93.2984 50.3009C92.5208 51.0776 91.5877 51.466 90.4991 51.466C89.3327 51.466 88.3996 51.0776 87.6221 50.3786C86.8445 49.6019 86.4557 48.6699 86.4557 47.5825C86.4557 46.4951 86.8445 45.4854 87.6221 44.7864C88.3996 43.932 89.4105 43.6213 90.4991 43.6213Z" fill="#736E91"/>
<path d="M109.939 19C113.515 19 116.392 19.8544 118.725 21.6408C119.969 22.5728 121.058 23.8155 121.835 25.2136L117.092 29.0194C115.926 25.9126 113.515 24.3592 109.861 24.3592C107.373 24.3592 105.273 25.2913 103.718 27.1553C102.163 29.0194 101.307 31.3495 101.307 34.1456C101.307 37.0194 102.085 39.4272 103.718 41.2913C105.351 43.1553 107.45 44.0874 110.094 44.0874C112.271 44.0874 113.982 43.6214 115.304 42.6116C116.626 41.6019 117.325 40.2039 117.481 38.4175H108.928V32.9806H123.624V35.5437C123.624 39.8155 122.38 43.233 119.891 45.7184C117.403 48.1262 114.137 49.3689 110.094 49.3689C105.74 49.3689 102.24 47.9709 99.4412 45.0971C96.6419 42.2233 95.3201 38.5728 95.3201 34.1456C95.3201 29.7961 96.7197 26.1456 99.4412 23.3495C102.163 20.4757 105.662 19 109.939 19Z" fill="#736E91"/>
<path d="M127.123 19.5437H132.877V43.466H146.64V48.8253H127.123V19.5437Z" fill="#736E91"/>
<path d="M162.192 19C166.624 19 170.201 20.4757 173.078 23.2718C175.955 26.1456 177.354 29.7184 177.354 34.068C177.354 38.4175 175.955 42.068 173.078 45.0194C170.201 47.8932 166.624 49.2913 162.192 49.2913C157.759 49.2913 154.105 47.8932 151.228 45.0194C148.351 42.1456 146.951 38.4951 146.951 34.068C146.951 29.7184 148.351 26.068 151.228 23.2718C154.105 20.4757 157.759 19 162.192 19ZM162.192 24.3592C159.47 24.3592 157.215 25.2913 155.505 27.1553C153.794 29.0194 153.016 31.3495 153.016 34.1456C153.016 37.0194 153.872 39.4272 155.505 41.2913C157.215 43.1553 159.47 44.0874 162.192 44.0874C164.913 44.0874 167.168 43.1553 168.801 41.2913C170.512 39.4272 171.367 37.0194 171.367 34.1456C171.367 31.2718 170.512 28.9417 168.801 27.1553C167.09 25.2913 164.913 24.3592 162.192 24.3592Z" fill="#736E91"/>
<path d="M181.864 19.5437H195.083C198.038 19.5437 200.371 20.3204 202.081 21.7961C203.792 23.2719 204.647 25.3689 204.647 27.9321C204.647 30.4175 203.792 32.2816 202.081 33.602C203.403 34.2233 204.414 35.0777 205.192 36.1651C205.969 37.3301 206.28 38.6505 206.28 40.2039C206.28 42.767 205.347 44.8641 203.559 46.4952C201.77 48.0486 199.36 48.8253 196.327 48.8253H181.787V19.5437H181.864ZM195.083 24.9029H187.618V31.5825H195.161C196.327 31.5825 197.183 31.2719 197.882 30.7282C198.505 30.1068 198.893 29.3301 198.893 28.3981C198.893 27.3107 198.582 26.4563 197.882 25.835C197.183 25.2136 196.25 24.9029 195.083 24.9029ZM196.405 36.5534H187.618V43.466H196.483C197.727 43.466 198.66 43.1553 199.36 42.534C200.06 41.9126 200.371 41.0583 200.371 39.9709C200.371 38.8835 200.06 38.0291 199.36 37.4078C198.66 36.7864 197.727 36.5534 196.405 36.5534Z" fill="#736E91"/>
<path d="M225.409 19.5437H219.033L207.68 48.8253H213.901L221.676 28.1651L222.221 26.534L222.765 28.1651L230.463 48.8253H236.684L225.409 19.5437Z" fill="#736E91"/>
<path d="M241.038 19.5437H246.792V43.466H259V48.8253H241.038V19.5437Z" fill="#736E91"/>
<path d="M222.376 37.4855L219.11 48.8253H225.953L222.376 37.4855Z" fill="#736E91"/>
<path d="M10.5642 20.0874C10.7197 20.0874 10.953 20.0874 11.1085 20.1651C14.3743 20.3981 17.2514 21.6408 19.8174 23.6603C22.4611 25.835 24.1718 28.5535 25.0271 31.8933C25.0271 32.0486 25.1049 32.2039 25.1049 32.3593C25.1049 32.2816 25.0271 32.2816 25.0271 32.2039C23.7052 29.2525 21.528 27.4661 18.4177 26.767C17.8734 26.6117 17.2514 26.6117 16.6293 26.6117C13.6745 26.6117 10.642 26.6117 7.68716 26.6117C7.6094 26.6117 7.6094 26.6117 7.53165 26.6117C7.53165 26.6894 7.53165 26.767 7.53165 26.767C7.53165 32.5923 7.53165 38.4952 7.53165 44.3204C7.53165 44.4758 7.53165 44.5535 7.37613 44.6311C5.27667 46.7282 3.17722 48.7476 1.15552 50.8447L1.07776 50.9224C1 40.67 1 30.4175 1 20.0874C4.18807 20.0874 7.37613 20.0874 10.5642 20.0874Z" fill="#736E91"/>
<path d="M17.2514 20.0874C17.4069 20.0874 17.6401 20.0874 17.7957 20.1651C19.8951 20.3204 21.8391 20.8641 23.7052 21.8738C27.5931 23.8933 30.1591 27.0777 31.481 31.1942C31.5588 31.5049 31.6365 31.7379 31.7143 32.0486C31.7143 32.1263 31.7143 32.2039 31.7143 32.2816C30.3146 35.0777 29.1483 37.9515 27.9042 40.8253C27.2043 42.3787 26.5045 43.9321 25.6492 45.4078C24.9494 46.5729 24.1718 47.7379 23.1609 48.67C21.7613 49.9903 20.1284 50.8447 18.1845 51.0777C17.6401 51.1554 17.0181 51.1554 16.4738 51.1554C11.4195 51.1554 6.36528 51.1554 1.38879 51.1554C1.31103 51.1554 1.31103 51.1554 1.23327 51.1554C1.23327 51.0777 1.31103 51.0777 1.31103 51.0777C3.41049 48.9806 5.50995 46.8836 7.6094 44.7865C7.68716 44.7088 7.76492 44.7088 7.84268 44.7088C10.7975 44.7088 13.7523 44.7088 16.7071 44.7088C20.906 44.7088 24.5606 41.6797 25.4159 37.5632C25.6492 36.6311 25.6492 35.6214 25.5714 34.6894C25.4937 32.903 25.1049 31.1942 24.4051 29.5632C22.3834 24.8253 18.1844 21.2525 13.1302 20.2428C12.9747 20.2428 12.8192 20.1651 12.6637 20.1651C14.2188 20.0874 15.6962 20.0874 17.2514 20.0874Z" fill="#736E91"/>
<path d="M55.1193 20.0874C54.8083 20.1651 54.4195 20.1651 54.1085 20.2428C50.7649 20.8641 47.7324 22.1845 45.0886 24.4369C43.7667 25.602 42.6004 27.0001 41.5895 28.4758C40.3454 30.2622 39.3345 32.2039 38.4014 34.1457C37.5461 35.9321 36.6908 37.7185 35.8354 39.4272C34.9801 41.0583 34.047 42.6117 32.9584 44.0874C31.0145 46.5729 28.5262 48.3593 25.6492 49.5243C23.9385 50.2234 22.1501 50.6117 20.2839 50.9224C20.0506 50.9224 19.8951 51.0001 19.6618 51.0001C19.6618 51.0001 19.6618 51.0001 19.5841 51.0001C19.6618 51.0001 19.7396 50.9224 19.7396 50.9224C21.4503 50.3787 22.8499 49.4467 24.0163 48.0486C25.1049 46.8059 25.8825 45.4078 26.66 43.9321C27.5931 42.068 28.3707 40.1263 29.226 38.1845C30.2369 35.7768 31.3255 33.369 32.5696 31.0389C33.425 29.3302 34.358 27.6991 35.5244 26.2234C37.7016 23.3496 40.6564 21.4078 44.2333 20.5535C45.1664 20.3204 46.0995 20.1651 47.0326 20.1651C47.1103 20.1651 47.1103 20.1651 47.1881 20.1651C49.8318 20.0874 52.4756 20.0874 55.1193 20.0874Z" fill="#736E91"/>
<path d="M70.8264 20.0874C71.0597 20.0874 71.2929 20.0874 71.4485 20.1651C75.5696 20.5535 78.991 22.1845 81.7902 25.2136C83.6564 27.3107 84.9005 29.7185 85.4448 32.4369C85.7559 33.9127 85.8336 35.3884 85.6781 36.9418C85.5226 38.6505 85.1338 40.3593 84.434 41.9127C84.434 41.9903 84.3562 42.068 84.2785 42.1457C82.1013 44.0098 79.613 45.1748 76.736 45.6408C73.7034 46.1068 70.7486 45.7962 67.9494 44.5535C67.8716 44.5535 67.8716 44.4758 67.7939 44.4758C68.0271 44.5535 68.1826 44.5535 68.4159 44.6311C73.2369 45.5632 77.9024 42.534 78.991 37.7962C79.2242 36.7865 79.302 35.6991 79.2242 34.6894C79.1465 31.8156 78.3689 29.0971 76.8137 26.6117C75.0253 23.7379 72.4593 21.6408 69.349 20.3981C69.2712 20.3981 69.2712 20.3981 69.1935 20.3204C69.349 20.3204 69.4268 20.3204 69.5823 20.2428C70.0488 20.0874 70.4376 20.0874 70.8264 20.0874Z" fill="#736E91"/>
<path d="M67.4051 20.0874C67.1718 20.1651 66.8608 20.2428 66.6275 20.2428C64.9168 20.6311 63.2839 21.3302 61.7288 22.3399C60.0181 23.4272 58.6184 24.8253 57.4521 26.4564C57.3743 26.534 57.2966 26.534 57.2188 26.534C53.953 26.534 50.7649 26.534 47.4991 26.534C45.5552 26.534 43.689 27.0777 42.1338 28.2428C42.1338 28.2428 42.0561 28.2428 42.0561 28.3204C42.0561 28.2428 42.0561 28.2428 42.0561 28.2428C43.4557 26.2234 45.1664 24.4369 47.2658 23.0389C49.0542 21.8738 51.076 21.0971 53.0976 20.6311C54.6528 20.2428 56.2857 20.0874 57.8409 20.0098C57.9186 20.0098 57.9964 20.0098 57.9964 20.0098C61.1845 20.0874 64.2948 20.0874 67.4051 20.0874Z" fill="#736E91"/>
<path d="M63.906 29.1748C63.4394 29.7185 62.9729 30.2622 62.5841 30.8836C61.5732 32.5146 61.1067 34.3787 61.2622 36.3204C61.4955 39.2719 62.8951 41.5243 65.3056 43.2331C67.3273 44.6311 69.5823 45.5632 71.9928 45.8738C76.5027 46.4952 80.5461 45.4078 84.123 42.6894L84.2007 42.6117C84.2007 42.6117 84.2007 42.6117 84.2785 42.6117C84.2785 42.6894 84.2007 42.6894 84.2007 42.767C82.2568 46.4952 79.2242 49.0583 75.2586 50.4564C73.3924 51.0777 71.5262 51.3107 69.5823 51.2331C64.6058 50.8447 60.7179 48.7476 57.7631 44.8641C57.6076 44.7088 57.6076 44.5535 57.6076 44.3204C57.3743 43.0001 57.2966 41.6797 57.4521 40.4369C57.7631 37.3302 58.774 34.6117 60.7179 32.2039C61.5732 31.0389 62.6618 30.1069 63.8282 29.2525C63.8282 29.1748 63.8282 29.1748 63.906 29.1748Z" fill="#736E91"/>
<path d="M57.2966 44.1651C56.9855 43.6991 56.7523 43.2331 56.4412 42.6894C55.5859 41.0583 55.0416 39.3496 54.8083 37.5632C53.953 30.7282 57.7631 24.1263 64.1392 21.3302C65.5389 20.7088 66.9385 20.3204 68.4937 20.1651C68.6492 20.1651 68.8047 20.1651 68.9602 20.2428C72.6926 21.6408 75.5696 24.1263 77.4358 27.6991C78.2911 29.3302 78.8354 31.1166 79.0687 32.903C79.0687 32.9806 79.0687 33.136 79.0687 33.2913C79.0687 33.2136 79.0687 33.2136 79.0687 33.136C77.9801 29.7185 75.7251 27.6214 72.226 26.767C70.2821 26.301 68.4159 26.534 66.5497 27.3884C62.4286 29.2525 59.5515 32.3593 57.9964 36.7088C57.2966 38.5729 57.0633 40.5923 57.141 42.6117C57.2188 43.0777 57.2188 43.6214 57.2966 44.1651Z" fill="#736E91"/>
<path d="M37.0018 37.6408C37.0018 37.5632 37.0018 37.5632 37.0796 37.4855C37.7016 36.2428 38.3237 34.9224 38.9458 33.6797C39.0235 33.602 39.0235 33.5243 39.179 33.5243C43.4557 33.5243 47.7324 33.5243 52.0868 33.5243C52.1646 33.5243 52.2423 33.5243 52.3201 33.602C52.9421 34.2234 53.5642 34.8447 54.1863 35.4661L54.264 35.5437L54.1863 35.6214C53.5642 36.2428 52.9421 36.8641 52.3201 37.4855C52.1646 37.6408 52.0868 37.6408 52.009 37.6408C47.0325 37.6408 42.1338 37.6408 37.1573 37.6408C37.1573 37.6408 37.0796 37.6408 37.0018 37.6408Z" fill="#736E91"/>
</svg>
