<svg width="258" height="33" viewBox="0 0 258 33" fill="none" xmlns="http://www.w3.org/2000/svg">
<g clip-path="url(#clip0_41_932)">
<path d="M9.5642 1.5874C9.71971 1.5874 9.95298 1.5874 10.1085 1.66507C13.3743 1.89808 16.2514 3.1408 18.8174 5.16022C21.4611 7.33497 23.1718 10.0534 24.0271 13.3932C24.0271 13.5486 24.1049 13.7039 24.1049 13.8592C24.1049 13.7816 24.0271 13.7816 24.0271 13.7039C22.7052 10.7525 20.528 8.96604 17.4177 8.26701C16.8734 8.11167 16.2514 8.11167 15.6293 8.11167C12.6745 8.11167 9.64195 8.11167 6.68716 8.11167C6.6094 8.11167 6.6094 8.11167 6.53165 8.11167C6.53165 8.18934 6.53165 8.26701 6.53165 8.26701C6.53165 14.0923 6.53165 19.9952 6.53165 25.8204C6.53165 25.9757 6.53165 26.0534 6.37613 26.1311C4.27667 28.2282 2.17722 30.2476 0.155515 32.3447L0.0777577 32.4223C0 22.1699 0 11.9175 0 1.5874C3.18807 1.5874 6.37613 1.5874 9.5642 1.5874Z" fill="#736E91"/>
<path d="M16.2514 1.5874C16.4069 1.5874 16.6401 1.5874 16.7957 1.66507C18.8951 1.82041 20.8391 2.3641 22.7052 3.37381C26.5931 5.39323 29.1591 8.57769 30.481 12.6942C30.5588 13.0049 30.6365 13.2379 30.7143 13.5486C30.7143 13.6262 30.7143 13.7039 30.7143 13.7816C29.3147 16.5777 28.1483 19.4515 26.9042 22.3253C26.2043 23.8787 25.5045 25.4321 24.6492 26.9078C23.9494 28.0728 23.1718 29.2379 22.1609 30.1699C20.7613 31.4903 19.1284 32.3447 17.1845 32.5777C16.6401 32.6554 16.0181 32.6554 15.4738 32.6554C10.4195 32.6554 5.36528 32.6554 0.388792 32.6554C0.311034 32.6554 0.311034 32.6554 0.233276 32.6554C0.233276 32.5777 0.311034 32.5777 0.311034 32.5777C2.41049 30.4806 4.50995 28.3835 6.60941 26.2864C6.68716 26.2088 6.76492 26.2088 6.84268 26.2088C9.79747 26.2088 12.7523 26.2088 15.7071 26.2088C19.906 26.2088 23.5606 23.1796 24.4159 19.0631C24.6492 18.1311 24.6492 17.1214 24.5714 16.1893C24.4937 14.4029 24.1049 12.6942 23.4051 11.0631C21.3834 6.32527 17.1845 2.75245 12.1302 1.74274C11.9747 1.74274 11.8192 1.66507 11.6637 1.66507C13.2188 1.5874 14.6962 1.5874 16.2514 1.5874Z" fill="#736E91"/>
<path d="M54.1194 1.5874C53.8083 1.66507 53.4196 1.66507 53.1085 1.74274C49.7649 2.3641 46.7324 3.68449 44.0886 5.93692C42.7667 7.10197 41.6004 8.50002 40.5895 9.97575C39.3454 11.7622 38.3346 13.7039 37.4015 15.6457C36.5461 17.4321 35.6908 19.2185 34.8355 20.9272C33.9801 22.5583 33.047 24.1117 31.9584 25.5874C30.0145 28.0728 27.5262 29.8592 24.6492 31.0243C22.9385 31.7233 21.1501 32.1117 19.2839 32.4223C19.0507 32.4223 18.8951 32.5 18.6619 32.5C18.6619 32.5 18.6619 32.5 18.5841 32.5C18.6619 32.5 18.7396 32.4223 18.7396 32.4223C20.4503 31.8787 21.8499 30.9466 23.0163 29.5486C24.1049 28.3058 24.8825 26.9078 25.6601 25.4321C26.5931 23.568 27.3707 21.6262 28.2261 19.6845C29.2369 17.2767 30.3255 14.869 31.5696 12.5389C32.425 10.8301 33.3581 9.19905 34.5244 7.72332C36.7016 4.84954 39.6564 2.90779 43.2333 2.05342C44.1664 1.82041 45.0995 1.66507 46.0326 1.66507C46.1103 1.66507 46.1103 1.66507 46.1881 1.66507C48.8318 1.5874 51.4756 1.5874 54.1194 1.5874Z" fill="#736E91"/>
<path d="M69.8264 1.5874C70.0596 1.5874 70.2929 1.5874 70.4484 1.66507C74.5696 2.05342 77.9909 3.68449 80.7902 6.71362C82.6564 8.8107 83.9005 11.2185 84.4448 13.9369C84.7558 15.4126 84.8336 16.8884 84.6781 18.4418C84.5226 20.1505 84.1338 21.8592 83.434 23.4126C83.434 23.4903 83.3562 23.568 83.2785 23.6457C81.1012 25.5097 78.613 26.6748 75.736 27.1408C72.7034 27.6068 69.7486 27.2961 66.9493 26.0534C66.8716 26.0534 66.8716 25.9757 66.7938 25.9757C67.0271 26.0534 67.1826 26.0534 67.4159 26.1311C72.2369 27.0631 76.9023 24.034 77.9909 19.2961C78.2242 18.2864 78.302 17.1991 78.2242 16.1893C78.1464 13.3156 77.3689 10.5971 75.8137 8.11167C74.0253 5.23789 71.4593 3.1408 68.349 1.89808C68.2712 1.89808 68.2712 1.89808 68.1935 1.82041C68.349 1.82041 68.4267 1.82041 68.5822 1.74274C69.0488 1.5874 69.4376 1.5874 69.8264 1.5874Z" fill="#736E91"/>
<path d="M66.405 1.58744C66.1718 1.66511 65.8607 1.74278 65.6275 1.74278C63.9168 2.13112 62.2839 2.83015 60.7287 3.83986C59.0181 4.92724 57.6184 6.3253 56.4521 7.95637C56.3743 8.03404 56.2965 8.03404 56.2188 8.03404C52.953 8.03404 49.7649 8.03404 46.4991 8.03404C44.5551 8.03404 42.6889 8.57773 41.1338 9.74277C41.1338 9.74277 41.056 9.74277 41.056 9.82045C41.056 9.74277 41.056 9.74277 41.056 9.74277C42.4557 7.72336 44.1663 5.93695 46.2658 4.53889C48.0542 3.37384 50.0759 2.59714 52.0976 2.13112C53.6528 1.74278 55.2857 1.58744 56.8408 1.50977C56.9186 1.50977 56.9964 1.50977 56.9964 1.50977C60.1844 1.58744 63.2947 1.58744 66.405 1.58744Z" fill="#736E91"/>
<path d="M62.906 10.6748C62.4394 11.2185 61.9729 11.7622 61.5841 12.3835C60.5732 14.0146 60.1067 15.8787 60.2622 17.8204C60.4955 20.7719 61.8951 23.0243 64.3056 24.7331C66.3273 26.1311 68.5823 27.0632 70.9928 27.3738C75.5027 27.9952 79.5461 26.9078 83.1229 24.1894L83.2007 24.1117C83.2007 24.1117 83.2007 24.1117 83.2785 24.1117C83.2785 24.1894 83.2007 24.1894 83.2007 24.267C81.2568 27.9952 78.2242 30.5583 74.2586 31.9564C72.3924 32.5777 70.5262 32.8107 68.5823 32.7331C63.6058 32.3447 59.7179 30.2476 56.7631 26.3641C56.6076 26.2088 56.6076 26.0534 56.6076 25.8204C56.3743 24.5 56.2965 23.1797 56.4521 21.9369C56.7631 18.8301 57.7739 16.1117 59.7179 13.7039C60.5732 12.5389 61.6618 11.6068 62.8282 10.7525C62.8282 10.6748 62.8282 10.6748 62.906 10.6748Z" fill="#736E91"/>
<path d="M56.2966 25.665C55.9855 25.199 55.7523 24.733 55.4412 24.1893C54.5859 22.5582 54.0416 20.8495 53.8083 19.0631C52.953 12.2281 56.7631 5.6262 63.1392 2.83009C64.5389 2.20873 65.9385 1.82038 67.4937 1.66504C67.6492 1.66504 67.8047 1.66504 67.9602 1.74271C71.6926 3.14077 74.5696 5.6262 76.4358 9.19902C77.2911 10.8301 77.8354 12.6165 78.0687 14.4029C78.0687 14.4806 78.0687 14.6359 78.0687 14.7913C78.0687 14.7136 78.0687 14.7136 78.0687 14.6359C76.9801 11.2184 74.7251 9.12135 71.226 8.26698C69.2821 7.80096 67.4159 8.03397 65.5497 8.88834C61.4286 10.7524 58.5515 13.8592 56.9964 18.2087C56.2966 20.0728 56.0633 22.0922 56.141 24.1116C56.2188 24.5777 56.2188 25.1213 56.2966 25.665Z" fill="#736E91"/>
<path d="M36.0018 19.1408C36.0018 19.0631 36.0018 19.0631 36.0796 18.9855C36.7017 17.7427 37.3237 16.4223 37.9458 15.1796C38.0235 15.102 38.0235 15.0243 38.179 15.0243C42.4557 15.0243 46.7324 15.0243 51.0868 15.0243C51.1646 15.0243 51.2423 15.0243 51.3201 15.102C51.9422 15.7233 52.5642 16.3447 53.1863 16.966L53.264 17.0437L53.1863 17.1214C52.5642 17.7427 51.9422 18.3641 51.3201 18.9855C51.1646 19.1408 51.0868 19.1408 51.0091 19.1408C46.0326 19.1408 41.1338 19.1408 36.1573 19.1408C36.1573 19.1408 36.0796 19.1408 36.0018 19.1408Z" fill="#736E91"/>
<path d="M89.4991 25.1213C90.5877 25.1213 91.5208 25.5097 92.2984 26.2087C93.0759 26.9854 93.4647 27.9175 93.4647 29.0048C93.4647 30.0922 93.0759 31.0242 92.2984 31.8009C91.5208 32.5776 90.5877 32.966 89.4991 32.966C88.3327 32.966 87.3996 32.5776 86.6221 31.8786C85.8445 31.1019 85.4557 30.1699 85.4557 29.0825C85.4557 27.9951 85.8445 26.9854 86.6221 26.2864C87.3996 25.432 88.4105 25.1213 89.4991 25.1213Z" fill="#736E91"/>
<path d="M108.939 0.5C112.515 0.5 115.392 1.35437 117.725 3.14078C118.969 4.07282 120.058 5.31553 120.835 6.71359L116.092 10.5194C114.926 7.41262 112.515 5.85922 108.861 5.85922C106.373 5.85922 104.273 6.79126 102.718 8.65534C101.163 10.5194 100.307 12.8495 100.307 15.6456C100.307 18.5194 101.085 20.9272 102.718 22.7913C104.351 24.6553 106.45 25.5874 109.094 25.5874C111.271 25.5874 112.982 25.1214 114.304 24.1116C115.626 23.1019 116.325 21.7039 116.481 19.9175H107.928V14.4806H122.624V17.0437C122.624 21.3155 121.38 24.733 118.891 27.2184C116.403 29.6262 113.137 30.8689 109.094 30.8689C104.74 30.8689 101.24 29.4709 98.4412 26.5971C95.6419 23.7233 94.3201 20.0728 94.3201 15.6456C94.3201 11.2961 95.7197 7.64563 98.4412 4.84951C101.163 1.97573 104.662 0.5 108.939 0.5Z" fill="#736E91"/>
<path d="M126.123 1.0437H131.877V24.966H145.64V30.3253H126.123V1.0437Z" fill="#736E91"/>
<path d="M161.192 0.5C165.624 0.5 169.201 1.97573 172.078 4.77184C174.955 7.64563 176.354 11.2184 176.354 15.568C176.354 19.9175 174.955 23.568 172.078 26.5194C169.201 29.3932 165.624 30.7913 161.192 30.7913C156.759 30.7913 153.105 29.3932 150.228 26.5194C147.351 23.6456 145.951 19.9951 145.951 15.568C145.951 11.2184 147.351 7.56796 150.228 4.77184C153.105 1.97573 156.759 0.5 161.192 0.5ZM161.192 5.85922C158.47 5.85922 156.215 6.79126 154.505 8.65534C152.794 10.5194 152.016 12.8495 152.016 15.6456C152.016 18.5194 152.872 20.9272 154.505 22.7913C156.215 24.6553 158.47 25.5874 161.192 25.5874C163.913 25.5874 166.168 24.6553 167.801 22.7913C169.512 20.9272 170.367 18.5194 170.367 15.6456C170.367 12.7718 169.512 10.4417 167.801 8.65534C166.09 6.79126 163.913 5.85922 161.192 5.85922Z" fill="#736E91"/>
<path d="M180.864 1.0437H194.083C197.038 1.0437 199.371 1.8204 201.081 3.29613C202.792 4.77186 203.647 6.86894 203.647 9.43205C203.647 11.9175 202.792 13.7816 201.081 15.102C202.403 15.7233 203.414 16.5777 204.192 17.6651C204.969 18.8301 205.28 20.1505 205.28 21.7039C205.28 24.267 204.347 26.3641 202.559 27.9952C200.77 29.5486 198.36 30.3253 195.327 30.3253H180.787V1.0437H180.864ZM194.083 6.40292H186.618V13.0825H194.161C195.327 13.0825 196.183 12.7719 196.882 12.2282C197.505 11.6068 197.893 10.8301 197.893 9.89807C197.893 8.81069 197.582 7.95632 196.882 7.33496C196.183 6.7136 195.25 6.40292 194.083 6.40292ZM195.405 18.0534H186.618V24.966H195.483C196.727 24.966 197.66 24.6553 198.36 24.034C199.06 23.4126 199.371 22.5583 199.371 21.4709C199.371 20.3835 199.06 19.5291 198.36 18.9078C197.66 18.2864 196.727 18.0534 195.405 18.0534Z" fill="#736E91"/>
<path d="M224.409 1.0437H218.033L206.68 30.3253H212.901L220.676 9.66506L221.221 8.03399L221.765 9.66506L229.463 30.3253H235.684L224.409 1.0437Z" fill="#736E91"/>
<path d="M240.038 1.0437H245.792V24.966H258V30.3253H240.038V1.0437Z" fill="#736E91"/>
<path d="M221.376 18.9855L218.11 30.3253H224.953L221.376 18.9855Z" fill="#736E91"/>
</g>
<defs>
<clipPath id="clip0_41_932">
<rect width="258" height="32" fill="white" transform="translate(0 0.5)"/>
</clipPath>
</defs>
</svg>
