<svg width="180" height="67" viewBox="0 0 180 67" fill="none" xmlns="http://www.w3.org/2000/svg">
<g clip-path="url(#clip0_41_841)">
<path d="M34.3507 36.1789C32.3727 33.8038 30.5618 32.2849 27.8873 31.484C22.0368 29.7164 15.0441 33.3343 13.4283 39.8797C11.8403 46.425 16.0192 52.6389 22.594 53.9922C29.4196 55.4007 36.5795 50.0705 36.5516 42.5309C36.4959 31.8982 36.5516 9.2795 36.5516 9.2795C36.5516 9.2795 49.1441 0.165734 49.5341 -0.0275879C49.5898 0.414292 49.757 29.5507 49.5898 43.7737C49.5063 50.4848 46.5253 56.0635 41.5663 60.5928C37.6381 64.1554 32.9856 66.3372 27.7202 66.8619C20.3931 67.6076 13.7347 65.6744 8.16281 60.7309C4.23463 57.2234 1.72728 52.9427 0.557178 47.7783C-1.92231 36.7589 3.90031 25.1595 14.3476 20.5474C20.6996 17.7581 27.9152 18.0342 34.4343 20.5198C34.4343 20.5474 34.3507 30.8488 34.3507 36.1789Z" fill="#736E91"/>
<path d="M60.455 19.8018H65.0518C69.2307 19.8018 72.1003 22.6464 72.1003 26.3747C72.1003 30.0755 69.2307 32.9477 65.0518 32.9477H60.455V19.8018ZM65.0518 31.5944C68.395 31.5944 70.5401 29.3298 70.5401 26.4023C70.5401 23.5025 68.395 21.2103 65.0518 21.2103H61.9316V31.622L65.0518 31.5944Z" fill="#736E91"/>
<path d="M75.0534 19.5256H76.7249V21.1274H75.0534V19.5256ZM75.1648 23.254H76.6135V32.9753H75.1648V23.254Z" fill="#736E91"/>
<path d="M79.9009 34.6599L80.5696 33.5276C81.684 34.3285 82.9376 34.7704 84.3306 34.7704C86.5036 34.7704 87.8966 33.5828 87.8966 31.3182V30.1583C87.033 31.2906 85.8629 32.202 84.052 32.202C81.7118 32.202 79.4552 30.4621 79.4552 27.6175C79.4552 24.7729 81.7397 23.033 84.052 23.033C85.8907 23.033 87.0887 23.9443 87.8688 24.9938V23.2539H89.3174V31.2906C89.3174 32.7819 88.8717 33.9419 88.0638 34.7428C87.2001 35.5989 85.8907 36.0408 84.3306 36.0408C82.7148 36.0132 81.2103 35.5437 79.9009 34.6599ZM87.9245 27.6175C87.9245 25.629 86.1693 24.331 84.3306 24.331C82.4919 24.331 80.9317 25.6014 80.9317 27.6451C80.9317 29.6059 82.4919 30.9592 84.3306 30.9592C86.1972 30.9316 87.9245 29.6059 87.9245 27.6175Z" fill="#736E91"/>
<path d="M92.6327 19.5256H94.3043V21.1274H92.6327V19.5256ZM92.7163 23.254H94.165V32.9753H92.7163V23.254Z" fill="#736E91"/>
<path d="M98.0932 30.3793V24.5244H96.7281V23.254H98.0932V20.3265H99.5419V23.254H102.662V24.5244H99.5419V30.186C99.5419 31.3735 100.21 31.8154 101.186 31.8154C101.687 31.8154 102.105 31.7326 102.606 31.484V32.7268C102.105 33.003 101.548 33.141 100.851 33.141C99.2911 33.141 98.0932 32.3678 98.0932 30.3793Z" fill="#736E91"/>
<path d="M104.501 30.1031C104.501 28.0042 106.2 26.9271 108.68 26.9271C109.933 26.9271 110.797 27.0928 111.689 27.3413V27.0376C111.689 25.2977 110.63 24.4139 108.791 24.4139C107.621 24.4139 106.73 24.6901 105.81 25.1043L105.364 23.9168C106.451 23.4197 107.482 23.0883 108.931 23.0883C110.323 23.0883 111.382 23.4749 112.106 24.1653C112.775 24.8282 113.137 25.7948 113.137 27.0099V32.9477H111.689V31.5116C111.02 32.3677 109.878 33.1686 108.15 33.1686C106.312 33.1686 104.501 32.1468 104.501 30.1031ZM111.689 29.385V28.4737C110.964 28.2803 110.017 28.0594 108.819 28.0594C107.008 28.0594 105.95 28.8603 105.95 30.0479C105.95 31.263 107.092 31.9811 108.401 31.9811C110.24 32.0087 111.689 30.9316 111.689 29.385Z" fill="#736E91"/>
<path d="M116.341 19.2494H117.79V32.9753H116.341V19.2494Z" fill="#736E91"/>
<path d="M127.123 19.8018H128.627L133.475 26.9823L138.294 19.8018H139.799V32.9477H138.294V22.3149L133.447 29.3574H133.363L128.516 22.3426V32.9753H127.067V19.8018H127.123Z" fill="#736E91"/>
<path d="M147.655 31.9258C148.992 31.9258 149.94 31.3735 150.748 30.5449L151.667 31.3458C150.692 32.4229 149.494 33.1686 147.627 33.1686C144.925 33.1686 142.724 31.1249 142.724 28.087C142.724 25.27 144.702 23.0054 147.432 23.0054C150.33 23.0054 152.001 25.2976 152.001 28.1422C152.001 28.2803 152.001 28.4184 151.973 28.6393H144.201C144.423 30.7383 145.928 31.9258 147.655 31.9258ZM150.525 27.5346C150.358 25.7671 149.327 24.2758 147.404 24.2758C145.705 24.2758 144.423 25.6566 144.228 27.5346H150.525Z" fill="#736E91"/>
<path d="M153.979 28.087C153.979 24.911 156.319 23.033 158.66 23.033C160.47 23.033 161.668 23.9996 162.421 25.1043V19.2494H163.869V32.9753H162.421V31.0144C161.613 32.1744 160.47 33.1686 158.66 33.1686C156.319 33.1686 153.979 31.3182 153.979 28.087ZM162.476 28.087C162.476 25.85 160.749 24.3586 158.938 24.3586C157.044 24.3586 155.484 25.7395 155.484 28.1422C155.484 30.4345 157.072 31.8982 158.938 31.8982C160.749 31.8706 162.476 30.3516 162.476 28.087Z" fill="#736E91"/>
<path d="M167.185 19.5256H168.856V21.1274H167.185V19.5256ZM167.268 23.254H168.717V32.9753H167.268V23.254Z" fill="#736E91"/>
<path d="M171.391 30.1031C171.391 28.0042 173.091 26.9271 175.57 26.9271C176.824 26.9271 177.688 27.0928 178.579 27.3413V27.0376C178.579 25.2977 177.52 24.4139 175.682 24.4139C174.512 24.4139 173.62 24.6901 172.701 25.1043L172.255 23.9168C173.342 23.4197 174.372 23.0883 175.821 23.0883C177.214 23.0883 178.273 23.4749 178.997 24.1653C179.666 24.8282 180.028 25.7948 180.028 27.0099V32.9477H178.579V31.5116C177.911 32.3677 176.768 33.1686 175.041 33.1686C173.202 33.1686 171.391 32.1468 171.391 30.1031ZM178.579 29.385V28.4737C177.855 28.2803 176.908 28.0594 175.71 28.0594C173.899 28.0594 172.84 28.8603 172.84 30.0479C172.84 31.263 173.982 31.9811 175.292 31.9811C177.13 32.0087 178.579 30.9316 178.579 29.385Z" fill="#736E91"/>
<path d="M59.5635 50.6228L60.4829 49.5457C61.8759 50.7885 63.1853 51.3961 65.024 51.3961C66.807 51.3961 67.9771 50.4571 67.9771 49.1315C67.9771 47.9163 67.3085 47.2259 64.5225 46.6459C61.458 45.9831 60.065 45.0165 60.065 42.8071C60.065 40.7358 61.9037 39.2168 64.4111 39.2168C66.3334 39.2168 67.7264 39.7691 69.0636 40.8462L68.2 42.0062C66.9742 41.0119 65.7483 40.5701 64.3832 40.5701C62.6559 40.5701 61.5694 41.509 61.5694 42.7242C61.5694 43.967 62.238 44.6574 65.1633 45.2926C68.1164 45.9278 69.4815 47.0049 69.4815 49.0486C69.4815 51.3133 67.5871 52.777 64.9404 52.777C62.9067 52.7217 61.1794 52.0313 59.5635 50.6228Z" fill="#736E91"/>
<path d="M71.7381 47.6954C71.7381 44.9613 73.9111 42.6138 76.8642 42.6138C79.7895 42.6138 81.9625 44.906 81.9625 47.6954C81.9625 50.4295 79.7895 52.777 76.8364 52.777C73.8554 52.7494 71.7381 50.4571 71.7381 47.6954ZM80.4581 47.6954C80.4581 45.5965 78.898 43.9118 76.8085 43.9118C74.6912 43.9118 73.2146 45.6241 73.2146 47.6954C73.2146 49.7943 74.7748 51.479 76.8364 51.479C78.9537 51.4514 80.4581 49.7667 80.4581 47.6954Z" fill="#736E91"/>
<path d="M84.7206 38.8302H86.1693V52.5561H84.7206V38.8302Z" fill="#736E91"/>
<path d="M89.401 48.8554V42.8071H90.8497V48.4687C90.8497 50.2638 91.8248 51.3962 93.5521 51.3962C95.2236 51.3962 96.4773 50.181 96.4773 48.3582V42.8071H97.926V52.5285H96.4773V50.8438C95.8087 51.8933 94.8057 52.7494 93.1342 52.7494C90.794 52.7494 89.401 51.1752 89.401 48.8554Z" fill="#736E91"/>
<path d="M101.743 49.96V44.1051H100.378V42.8071H101.743V39.8796H103.191V42.8071H106.312V44.0775H103.191V49.7391C103.191 50.9266 103.86 51.3685 104.835 51.3685C105.337 51.3685 105.755 51.2857 106.256 51.0371V52.2799C105.755 52.5561 105.197 52.6942 104.501 52.6942C102.941 52.6942 101.743 51.9209 101.743 49.96Z" fill="#736E91"/>
<path d="M108.93 39.1063H110.602V40.7081H108.93V39.1063ZM109.014 42.8071H110.463V52.5284H109.014V42.8071Z" fill="#736E91"/>
<path d="M113.277 47.6954C113.277 44.9613 115.45 42.6138 118.403 42.6138C121.328 42.6138 123.501 44.906 123.501 47.6954C123.501 50.4295 121.328 52.777 118.375 52.777C115.422 52.7494 113.277 50.4571 113.277 47.6954ZM121.997 47.6954C121.997 45.5965 120.436 43.9118 118.347 43.9118C116.23 43.9118 114.753 45.6241 114.753 47.6954C114.753 49.7943 116.313 51.479 118.375 51.479C120.52 51.4514 121.997 49.7667 121.997 47.6954Z" fill="#736E91"/>
<path d="M126.12 42.8071H127.568V44.4918C128.209 43.4423 129.24 42.5862 130.912 42.5862C133.28 42.5862 134.673 44.1604 134.673 46.4802V52.5009H133.224V46.8393C133.224 45.0441 132.249 43.9118 130.522 43.9118C128.822 43.9118 127.596 45.127 127.596 46.9497V52.5009H126.148L126.12 42.8071Z" fill="#736E91"/>
<path d="M136.985 51.2856L137.737 50.2638C138.796 51.0647 139.966 51.5066 141.136 51.5066C142.306 51.5066 143.17 50.899 143.17 49.9324C143.17 48.9658 142 48.5791 140.718 48.2201C139.186 47.7782 137.486 47.2535 137.486 45.4307C137.486 43.7461 138.879 42.6414 140.83 42.6414C142.028 42.6414 143.337 43.0556 144.368 43.7184L143.699 44.7955C142.78 44.2156 141.749 43.8565 140.802 43.8565C139.632 43.8565 138.907 44.4641 138.907 45.2926C138.907 46.204 140.133 46.563 141.415 46.9773C142.919 47.4192 144.563 47.9992 144.563 49.7943C144.563 51.6447 143.03 52.6941 141.08 52.6941C139.632 52.7217 138.072 52.1694 136.985 51.2856Z" fill="#736E91"/>
<path d="M146.513 42.6691C145.649 42.6691 144.925 43.3871 144.925 44.2433C144.925 45.0994 145.649 45.8175 146.513 45.8175C147.377 45.8175 148.101 45.0994 148.101 44.2433C148.101 43.3871 147.404 42.6691 146.513 42.6691ZM146.513 45.3756C145.872 45.3756 145.371 44.8508 145.371 44.2433C145.371 43.6081 145.9 43.1109 146.513 43.1109C147.126 43.1109 147.655 43.6357 147.655 44.2433C147.683 44.8785 147.154 45.3756 146.513 45.3756ZM147.098 44.0499C147.098 43.7461 146.875 43.5252 146.513 43.5252H145.984V44.9613H146.29V44.5471H146.513C146.513 44.5471 146.541 44.5471 146.569 44.5471L146.875 44.9613H147.265L146.903 44.4642C147.014 44.3814 147.098 44.2433 147.098 44.0499ZM146.513 44.2709H146.29V43.829H146.513C146.792 43.829 146.792 43.9947 146.792 44.0499C146.792 44.1052 146.792 44.2709 146.513 44.2709Z" fill="#736E91"/>
<path d="M34.3507 36.179C32.3727 33.8039 30.5618 32.2849 27.8873 31.484C25.2128 30.6831 22.2876 30.9869 19.7523 32.2021C16.7435 33.6382 14.2919 36.3171 13.4282 39.8521C11.8403 46.3974 2.31232 28.6118 9.94581 23.0607C11.3109 22.0664 12.7596 21.2379 14.3476 20.5199C20.6996 17.7305 27.9152 18.0067 34.4343 20.4922C34.4343 20.5475 34.3507 30.8488 34.3507 36.179Z" fill="#736E91"/>
</g>
<defs>
<clipPath id="clip0_41_841">
<rect width="180" height="67" fill="white"/>
</clipPath>
</defs>
</svg>
