<svg width="260" height="70" viewBox="0 0 260 70" fill="none" xmlns="http://www.w3.org/2000/svg">
<path d="M74.3507 37.1789C72.3727 34.8038 70.5618 33.2849 67.8873 32.484C62.0368 30.7164 55.0441 34.3343 53.4283 40.8797C51.8403 47.425 56.0192 53.6389 62.594 54.9922C69.4196 56.4007 76.5795 51.0705 76.5516 43.5309C76.4959 32.8982 76.5516 10.2795 76.5516 10.2795C76.5516 10.2795 89.1441 1.16573 89.5341 0.972412C89.5898 1.41429 89.757 30.5507 89.5898 44.7737C89.5063 51.4848 86.5253 57.0635 81.5663 61.5928C77.6381 65.1554 72.9856 67.3372 67.7202 67.8619C60.3931 68.6076 53.7347 66.6744 48.1628 61.7309C44.2346 58.2234 41.7273 53.9427 40.5572 48.7783C38.0777 37.7589 43.9003 26.1595 54.3476 21.5474C60.6996 18.7581 67.9152 19.0342 74.4343 21.5198C74.4343 21.5474 74.3507 31.8488 74.3507 37.1789Z" fill="#736E91"/>
<path d="M100.455 20.8018H105.052C109.231 20.8018 112.1 23.6464 112.1 27.3747C112.1 31.0755 109.231 33.9477 105.052 33.9477H100.455V20.8018ZM105.052 32.5944C108.395 32.5944 110.54 30.3298 110.54 27.4023C110.54 24.5025 108.395 22.2103 105.052 22.2103H101.932V32.622L105.052 32.5944Z" fill="#736E91"/>
<path d="M115.053 20.5256H116.725V22.1274H115.053V20.5256ZM115.165 24.2539H116.614V33.9753H115.165V24.2539Z" fill="#736E91"/>
<path d="M119.901 35.66L120.57 34.5276C121.684 35.3286 122.938 35.7704 124.331 35.7704C126.504 35.7704 127.897 34.5829 127.897 32.3182V31.1583C127.033 32.2906 125.863 33.202 124.052 33.202C121.712 33.202 119.455 31.4621 119.455 28.6175C119.455 25.7729 121.74 24.033 124.052 24.033C125.891 24.033 127.089 24.9444 127.869 25.9938V24.2539H129.317V32.2906C129.317 33.782 128.872 34.9419 128.064 35.7428C127.2 36.599 125.891 37.0408 124.331 37.0408C122.715 37.0132 121.21 36.5437 119.901 35.66ZM127.924 28.6175C127.924 26.629 126.169 25.331 124.331 25.331C122.492 25.331 120.932 26.6014 120.932 28.6451C120.932 30.606 122.492 31.9592 124.331 31.9592C126.197 31.9316 127.924 30.606 127.924 28.6175Z" fill="#736E91"/>
<path d="M132.633 20.5256H134.304V22.1274H132.633V20.5256ZM132.716 24.2539H134.165V33.9753H132.716V24.2539Z" fill="#736E91"/>
<path d="M138.093 31.3793V25.5243H136.728V24.2539H138.093V21.3265H139.542V24.2539H142.662V25.5243H139.542V31.1859C139.542 32.3735 140.21 32.8154 141.186 32.8154C141.687 32.8154 142.105 32.7325 142.606 32.484V33.7267C142.105 34.0029 141.548 34.141 140.851 34.141C139.291 34.141 138.093 33.3677 138.093 31.3793Z" fill="#736E91"/>
<path d="M144.501 31.1031C144.501 29.0042 146.2 27.9271 148.68 27.9271C149.933 27.9271 150.797 28.0928 151.689 28.3413V28.0375C151.689 26.2976 150.63 25.4139 148.791 25.4139C147.621 25.4139 146.73 25.6901 145.81 26.1043L145.364 24.9168C146.451 24.4197 147.482 24.0882 148.931 24.0882C150.323 24.0882 151.382 24.4749 152.106 25.1653C152.775 25.8281 153.137 26.7948 153.137 28.0099V33.9477H151.689V32.5116C151.02 33.3677 149.878 34.1686 148.15 34.1686C146.312 34.1686 144.501 33.1468 144.501 31.1031ZM151.689 30.385V29.4736C150.964 29.2803 150.017 29.0594 148.819 29.0594C147.008 29.0594 145.95 29.8603 145.95 31.0478C145.95 32.263 147.092 32.9811 148.401 32.9811C150.24 33.0087 151.689 31.9316 151.689 30.385Z" fill="#736E91"/>
<path d="M156.341 20.2494H157.79V33.9753H156.341V20.2494Z" fill="#736E91"/>
<path d="M168.627 20.8018L173.475 27.9823L178.294 20.8018H179.799V33.9477H178.294V23.315L173.447 30.3574H173.363L168.516 23.3426V33.9753H167.067V20.8018H168.627Z" fill="#736E91"/>
<path d="M187.655 32.9258C188.992 32.9258 189.94 32.3735 190.748 31.545L191.667 32.3459C190.692 33.4229 189.494 34.1686 187.627 34.1686C184.925 34.1686 182.724 32.1249 182.724 29.087C182.724 26.27 184.702 24.0054 187.432 24.0054C190.33 24.0054 192.001 26.2976 192.001 29.1422C192.001 29.2803 192.001 29.4184 191.973 29.6394H184.201C184.423 31.7383 185.928 32.9258 187.655 32.9258ZM190.525 28.5347C190.358 26.7671 189.327 25.2758 187.404 25.2758C185.705 25.2758 184.423 26.6567 184.228 28.5347H190.525Z" fill="#736E91"/>
<path d="M193.979 29.087C193.979 25.911 196.319 24.033 198.66 24.033C200.471 24.033 201.668 24.9996 202.421 26.1043V20.2494H203.869V33.9753H202.421V32.0145C201.613 33.1744 200.471 34.1686 198.66 34.1686C196.319 34.1686 193.979 32.3182 193.979 29.087ZM202.476 29.087C202.476 26.85 200.749 25.3586 198.938 25.3586C197.044 25.3586 195.484 26.7395 195.484 29.1422C195.484 31.4345 197.072 32.8982 198.938 32.8982C200.749 32.8706 202.476 31.3516 202.476 29.087Z" fill="#736E91"/>
<path d="M207.185 20.5256H208.856V22.1274H207.185V20.5256ZM207.268 24.2539H208.717V33.9753H207.268V24.2539Z" fill="#736E91"/>
<path d="M211.391 31.1031C211.391 29.0042 213.091 27.9271 215.57 27.9271C216.824 27.9271 217.688 28.0928 218.579 28.3413V28.0375C218.579 26.2976 217.521 25.4139 215.682 25.4139C214.512 25.4139 213.62 25.6901 212.701 26.1043L212.255 24.9168C213.342 24.4197 214.372 24.0882 215.821 24.0882C217.214 24.0882 218.273 24.4749 218.997 25.1653C219.666 25.8281 220.028 26.7948 220.028 28.0099V33.9477H218.579V32.5116C217.911 33.3677 216.768 34.1686 215.041 34.1686C213.202 34.1686 211.391 33.1468 211.391 31.1031ZM218.579 30.385V29.4736C217.855 29.2803 216.908 29.0594 215.71 29.0594C213.899 29.0594 212.84 29.8603 212.84 31.0478C212.84 32.263 213.982 32.9811 215.292 32.9811C217.13 33.0087 218.579 31.9316 218.579 30.385Z" fill="#736E91"/>
<path d="M99.5635 51.6229L100.483 50.5458C101.876 51.7886 103.185 52.3962 105.024 52.3962C106.807 52.3962 107.977 51.4572 107.977 50.1315C107.977 48.9164 107.308 48.2259 104.523 47.646C101.458 46.9831 100.065 46.0165 100.065 43.8071C100.065 41.7358 101.904 40.2169 104.411 40.2169C106.333 40.2169 107.726 40.7692 109.064 41.8463L108.2 43.0062C106.974 42.012 105.748 41.5701 104.383 41.5701C102.656 41.5701 101.569 42.5091 101.569 43.7243C101.569 44.9671 102.238 45.6575 105.163 46.2927C108.116 46.9279 109.481 48.005 109.481 50.0487C109.481 52.3133 107.587 53.777 104.94 53.777C102.907 53.7218 101.179 53.0314 99.5635 51.6229Z" fill="#736E91"/>
<path d="M111.738 48.6954C111.738 45.9613 113.911 43.6138 116.864 43.6138C119.789 43.6138 121.963 45.9061 121.963 48.6954C121.963 51.4295 119.789 53.777 116.836 53.777C113.855 53.7494 111.738 51.4572 111.738 48.6954ZM120.458 48.6954C120.458 46.5965 118.898 44.9118 116.809 44.9118C114.691 44.9118 113.215 46.6241 113.215 48.6954C113.215 50.7943 114.775 52.479 116.836 52.479C118.954 52.4514 120.458 50.7667 120.458 48.6954Z" fill="#736E91"/>
<path d="M124.721 39.8302H126.169V53.5561H124.721V39.8302Z" fill="#736E91"/>
<path d="M129.401 49.8553V43.8071H130.85V49.4687C130.85 51.2638 131.825 52.3962 133.552 52.3962C135.224 52.3962 136.477 51.181 136.477 49.3582V43.8071H137.926V53.5285H136.477V51.8438C135.809 52.8933 134.806 53.7494 133.134 53.7494C130.794 53.7494 129.401 52.1752 129.401 49.8553Z" fill="#736E91"/>
<path d="M141.743 50.96V45.1051H140.378V43.8071H141.743V40.8797H143.191V43.8071H146.312V45.0775H143.191V50.7391C143.191 51.9267 143.86 52.3685 144.835 52.3685C145.337 52.3685 145.755 52.2857 146.256 52.0371V53.2799C145.755 53.5561 145.197 53.6942 144.501 53.6942C142.941 53.6942 141.743 52.9209 141.743 50.96Z" fill="#736E91"/>
<path d="M148.93 40.1064H150.602V41.7082H148.93V40.1064ZM149.014 43.8071H150.463V53.5285H149.014V43.8071Z" fill="#736E91"/>
<path d="M153.277 48.6954C153.277 45.9613 155.45 43.6138 158.403 43.6138C161.328 43.6138 163.501 45.9061 163.501 48.6954C163.501 51.4295 161.328 53.777 158.375 53.777C155.422 53.7494 153.277 51.4572 153.277 48.6954ZM161.997 48.6954C161.997 46.5965 160.436 44.9118 158.347 44.9118C156.23 44.9118 154.753 46.6241 154.753 48.6954C154.753 50.7943 156.313 52.479 158.375 52.479C160.52 52.4514 161.997 50.7667 161.997 48.6954Z" fill="#736E91"/>
<path d="M166.12 43.8071H167.568V45.4918C168.209 44.4423 169.24 43.5862 170.912 43.5862C173.28 43.5862 174.673 45.1604 174.673 47.4802V53.5009H173.224V47.8393C173.224 46.0441 172.249 44.9118 170.522 44.9118C168.822 44.9118 167.596 46.127 167.596 47.9497V53.5009H166.148L166.12 43.8071Z" fill="#736E91"/>
<path d="M176.985 52.2857L177.737 51.2638C178.796 52.0647 179.966 52.5066 181.136 52.5066C182.306 52.5066 183.17 51.899 183.17 50.9324C183.17 49.9658 182 49.5792 180.718 49.2201C179.186 48.7783 177.486 48.2535 177.486 46.4308C177.486 44.7461 178.879 43.6414 180.83 43.6414C182.028 43.6414 183.337 44.0557 184.368 44.7185L183.699 45.7956C182.78 45.2156 181.749 44.8566 180.802 44.8566C179.632 44.8566 178.907 45.4642 178.907 46.2927C178.907 47.2041 180.133 47.5631 181.415 47.9774C182.919 48.4192 184.563 48.9992 184.563 50.7943C184.563 52.6447 183.03 53.6942 181.08 53.6942C179.632 53.7218 178.072 53.1694 176.985 52.2857Z" fill="#736E91"/>
<path d="M186.513 43.669C185.649 43.669 184.925 44.3871 184.925 45.2432C184.925 46.0994 185.649 46.8174 186.513 46.8174C187.377 46.8174 188.101 46.0994 188.101 45.2432C188.101 44.3871 187.404 43.669 186.513 43.669ZM186.513 46.3755C185.872 46.3755 185.371 45.8508 185.371 45.2432C185.371 44.608 185.9 44.1109 186.513 44.1109C187.126 44.1109 187.655 44.6356 187.655 45.2432C187.683 45.8784 187.154 46.3755 186.513 46.3755ZM187.098 45.0499C187.098 44.7461 186.875 44.5252 186.513 44.5252H185.984V45.9613H186.29V45.547H186.513C186.513 45.547 186.541 45.547 186.569 45.547L186.875 45.9613H187.265L186.903 45.4642C187.014 45.3813 187.098 45.2432 187.098 45.0499ZM186.513 45.2708H186.29V44.829H186.513C186.792 44.829 186.792 44.9947 186.792 45.0499C186.792 45.1051 186.792 45.2708 186.513 45.2708Z" fill="#736E91"/>
<path d="M74.3507 37.1789C72.3727 34.8038 70.5618 33.2849 67.8873 32.484C65.2128 31.683 62.2876 31.9868 59.7523 33.202C56.7435 34.6381 54.2919 37.317 53.4283 40.852C51.8403 47.3974 42.3123 29.6117 49.9458 24.0606C51.3109 23.0664 52.7596 22.2379 54.3476 21.5198C60.6996 18.7304 67.9152 19.0066 74.4343 21.4922C74.4343 21.5474 74.3507 31.8488 74.3507 37.1789Z" fill="#736E91"/>
</svg>
