<svg width="215" height="47" viewBox="0 0 215 47" fill="none" xmlns="http://www.w3.org/2000/svg">
<g clip-path="url(#clip0_41_867)">
<path d="M55.0327 2.44967C53.6889 5.37417 50.9404 10.0046 50.9404 10.0046C38.6634 10.1265 6.53552 10.3093 6.35228 10.0046C3.72586 5.37417 2.56535 3.48543 2.25995 2.93709C1.64916 1.90132 2.07671 0.5 4.27558 0.5C20.4617 0.5 37.2585 0.5 53.5057 0.5C54.1776 0.5 55.7046 0.987417 55.0327 2.44967Z" fill="#736E91"/>
<path d="M215 16.3411H207.06V36.8126H201.257V16.5239H193.256V11.4669H215V16.3411Z" fill="#736E91"/>
<path d="M183.116 11.1013H188.491V36.6298C182.994 36.8126 182.017 36.8126 179.391 32.7305C176.825 28.7093 174.382 24.6881 171.328 20.7278V36.7516H165.831V10.7967C172.244 10.4311 172.55 10.9795 175.237 15.3053C177.68 19.3265 180.124 23.3477 183.178 27.1861V11.1013H183.116Z" fill="#736E91"/>
<path d="M159.845 11.1013V16.2191C156.852 16.2191 153.92 16.2191 150.989 16.2191C146.286 16.2191 146.957 15.4271 146.957 21.4589H155.02V26.5768H147.202C147.202 31.5728 146.347 32.1211 151.05 32.1211C154.104 32.1211 157.158 32.1211 160.395 32.1211V37.0562C155.081 37.0562 149.584 37.2999 144.209 36.8735C143.048 36.8125 141.216 34.4973 141.155 33.096C140.788 27.1251 140.972 21.1542 141.033 15.1834C141.033 12.7463 142.56 11.284 144.82 11.2231C149.828 10.9794 154.776 11.1013 159.845 11.1013Z" fill="#736E91"/>
<path d="M112.264 11.1622H117.761C117.761 16.2192 117.7 21.1543 117.761 26.0894C117.822 29.9887 120.449 32.0603 124.175 31.5119C126.862 31.1464 128.511 29.1967 128.572 25.8457C128.695 22.0682 128.634 12.3808 128.634 11.1013H134.436C134.436 17.4377 134.436 19.5702 134.131 28.4656C133.886 35.1066 127.839 37.0563 123.625 36.9954C118.616 36.9344 112.692 35.1066 112.447 28.5874C112.386 22.6775 112.386 17.4377 112.264 11.1622Z" fill="#736E91"/>
<path d="M86.3054 10.9795V16.0974C83.2514 16.0974 80.3807 16.0974 77.4489 16.0974C72.6847 16.0974 73.3565 16.0974 73.3565 21.5199H83.8011V26.455H73.2955V36.6907H67.4318C67.4318 35.1676 67.4318 33.5834 67.4318 32.0603C67.4318 26.6987 67.3707 21.3371 67.4318 15.9755C67.4929 12.3808 68.8366 11.0404 72.4403 10.9795C77.0213 10.9185 81.5412 10.9795 86.3054 10.9795Z" fill="#736E91"/>
<path d="M45.5043 19.3265C43.733 22.4338 40.2514 28.7093 40.2514 28.7093L17.0412 28.5875C17.0412 28.5875 13.1932 22.0073 11.6662 19.3265C23.1492 19.3265 33.8381 19.3265 45.5043 19.3265Z" fill="#736E91"/>
<path d="M108.722 32.1212V36.9953C104.263 36.9953 99.5597 37.1172 95.1619 36.8125C94.1236 36.7516 92.4133 35.7768 92.3523 33.7662C92.1079 25.9675 92.2301 18.839 92.2301 11.2231H97.6662C97.6662 14.4523 97.7273 26.6986 97.6662 29.6231C97.6051 31.451 98.3381 32.1212 100.293 32.1212C102.797 32.1212 105.851 32.1212 108.722 32.1212Z" fill="#736E91"/>
<path d="M22.4162 37.8484C26.9361 37.8484 29.8068 37.8484 34.5099 37.8484C32.8608 40.712 31.517 43.1491 29.9901 45.4643C29.0128 46.9265 27.7301 46.7438 26.8139 45.2815C25.4091 43.0272 24.0653 40.651 22.4162 37.8484Z" fill="#736E91"/>
<path opacity="0.4" d="M28.7074 28.7092C24.8594 28.7092 20.9503 28.5265 17.1023 28.5874L26.875 45.3424C27.5469 46.5 29.3182 46.8046 29.99 45.7079L34.5099 37.9092L28.7074 28.7092Z" fill="#736E91"/>
<path opacity="0.33" d="M11.6662 19.3265C12.1548 19.2656 22.294 19.3265 23.1492 19.3265L12.6435 1.35298C12.3381 0.804636 11.7884 0.5 11.1776 0.5H3.84802C2.44319 0.560927 1.58807 1.77947 2.32103 2.99801L11.6662 19.3265Z" fill="#736E91"/>
</g>
<defs>
<clipPath id="clip0_41_867">
<rect width="215" height="46" fill="white" transform="translate(0 0.5)"/>
</clipPath>
</defs>
</svg>
