<svg width="260" height="70" viewBox="0 0 260 70" fill="none" xmlns="http://www.w3.org/2000/svg">
<path d="M77.0327 13.9497C75.6889 16.8742 72.9404 21.5046 72.9404 21.5046C60.6634 21.6265 28.5355 21.8093 28.3523 21.5046C25.7259 16.8742 24.5653 14.9854 24.26 14.4371C23.6492 13.4013 24.0767 12 26.2756 12C42.4617 12 59.2585 12 75.5057 12C76.1776 12 77.7046 12.4874 77.0327 13.9497Z" fill="#736E91"/>
<path d="M237 27.841H229.06V48.3125H223.257V28.0238H215.256V22.9668H237V27.841Z" fill="#736E91"/>
<path d="M205.116 22.6013H210.491V48.1298C204.994 48.3126 204.017 48.3126 201.391 44.2305C198.825 40.2093 196.382 36.1881 193.328 32.2278V48.2516H187.831V22.2967C194.244 21.9311 194.55 22.4795 197.237 26.8053C199.68 30.8265 202.124 34.8477 205.178 38.6861V22.6013H205.116Z" fill="#736E91"/>
<path d="M181.845 22.6013V27.7191C178.852 27.7191 175.92 27.7191 172.989 27.7191C168.285 27.7191 168.957 26.9271 168.957 32.9589H177.02V38.0768H169.202C169.202 43.0728 168.347 43.6211 173.05 43.6211C176.104 43.6211 179.158 43.6211 182.395 43.6211V48.5562C177.081 48.5562 171.584 48.7999 166.209 48.3735C165.048 48.3125 163.216 45.9973 163.155 44.596C162.788 38.6251 162.972 32.6542 163.033 26.6834C163.033 24.2463 164.56 22.784 166.82 22.7231C171.828 22.4794 176.776 22.6013 181.845 22.6013Z" fill="#736E91"/>
<path d="M134.264 22.6622H139.761C139.761 27.7192 139.7 32.6543 139.761 37.5894C139.822 41.4887 142.449 43.5603 146.175 43.0119C148.862 42.6464 150.511 40.6967 150.572 37.3457C150.695 33.5682 150.634 23.8808 150.634 22.6013H156.436C156.436 28.9377 156.436 31.0702 156.131 39.9656C155.886 46.6066 149.839 48.5563 145.625 48.4954C140.616 48.4344 134.692 46.6066 134.447 40.0874C134.386 34.1775 134.386 28.9377 134.264 22.6622Z" fill="#736E91"/>
<path d="M108.305 22.4795V27.5974C105.251 27.5974 102.381 27.5974 99.4489 27.5974C94.6847 27.5974 95.3565 27.5974 95.3565 33.0199H105.801V37.955H95.2954V48.1907H89.4318C89.4318 46.6676 89.4318 45.0834 89.4318 43.5603C89.4318 38.1987 89.3707 32.8371 89.4318 27.4755C89.4929 23.8808 90.8366 22.5404 94.4403 22.4795C99.0213 22.4185 103.541 22.4795 108.305 22.4795Z" fill="#736E91"/>
<path d="M67.5043 30.8264C65.733 33.9337 62.2514 40.2092 62.2514 40.2092L39.0412 40.0873C39.0412 40.0873 35.1932 33.5072 33.6662 30.8264C45.1492 30.8264 55.8381 30.8264 67.5043 30.8264Z" fill="#736E91"/>
<path d="M130.722 43.6212V48.4953C126.263 48.4953 121.56 48.6172 117.162 48.3125C116.124 48.2516 114.413 47.2768 114.352 45.2662C114.108 37.4675 114.23 30.339 114.23 22.7231H119.666C119.666 25.9523 119.727 38.1986 119.666 41.1231C119.605 42.951 120.338 43.6212 122.293 43.6212C124.797 43.6212 127.851 43.6212 130.722 43.6212Z" fill="#736E91"/>
<path d="M44.4162 49.3484C48.9361 49.3484 51.8068 49.3484 56.5099 49.3484C54.8608 52.212 53.517 54.6491 51.9901 56.9643C51.0128 58.4265 49.7301 58.2438 48.8139 56.7815C47.4091 54.5272 46.0653 52.151 44.4162 49.3484Z" fill="#736E91"/>
<path opacity="0.4" d="M50.7074 40.2092C46.8594 40.2092 42.9503 40.0265 39.1023 40.0874L48.875 56.8424C49.5469 58 51.3182 58.3046 51.9901 57.2079L56.51 49.4092L50.7074 40.2092Z" fill="#736E91"/>
<path opacity="0.33" d="M33.6662 30.8265C34.1548 30.7656 44.2941 30.8265 45.1492 30.8265L34.6435 12.853C34.3381 12.3046 33.7884 12 33.1776 12H25.848C24.4432 12.0609 23.5881 13.2795 24.321 14.498L33.6662 30.8265Z" fill="#736E91"/>
</svg>
