<svg width="203" height="51" viewBox="0 0 203 51" fill="none" xmlns="http://www.w3.org/2000/svg">
<g clip-path="url(#clip0_41_880)">
<path d="M4.19227 35.4588H1.75967V0.417236H4.19227V35.4588Z" fill="#736E91"/>
<path d="M22.1585 35.875C19.7068 35.875 17.7339 35.6583 16.2393 35.2249C14.9157 34.8643 13.6386 34.3495 12.434 33.6909L13.1595 31.6642C14.4011 32.2774 15.6975 32.7711 17.0318 33.1388C18.4473 33.5376 20.1562 33.7364 22.1585 33.735C23.3634 33.7445 24.5644 33.5963 25.731 33.294C26.7522 33.0389 27.7115 32.5791 28.5512 31.9422C29.3361 31.326 29.9658 30.5332 30.3899 29.6278C30.8393 28.6921 31.064 27.566 31.064 26.2494C31.064 24.8968 30.8221 23.8052 30.3384 22.9743C29.8549 22.1423 29.1807 21.4382 28.3717 20.9207C27.4836 20.3559 26.5259 19.9098 25.5229 19.5937C24.4536 19.2486 23.3494 18.885 22.2101 18.5028C21.0352 18.1193 19.8615 17.6769 18.6891 17.1759C17.5603 16.6984 16.5012 16.0695 15.5406 15.3063C14.5974 14.557 13.8175 13.6211 13.2493 12.5567C12.6611 11.465 12.3678 10.1567 12.369 8.63166C12.3641 7.48882 12.5579 6.35387 12.9418 5.27802C13.3201 4.22279 13.9502 3.27673 14.7768 2.52263C15.7235 1.68507 16.8345 1.05606 18.038 0.676116C19.367 0.227431 20.9633 0.00244407 22.8268 0.00116576C24.4789 -0.0176784 26.1255 0.192016 27.7206 0.624341C28.9978 0.967424 30.2374 1.43828 31.421 2.02985L30.7489 3.84951C29.5597 3.28781 28.3087 2.86883 27.0218 2.60125C25.6616 2.29537 24.2723 2.1385 22.8783 2.13339C19.9799 2.13339 17.8923 2.73995 16.6156 3.95306C15.3388 5.16618 14.7023 6.77748 14.7061 8.78698C14.7061 9.93745 14.9047 10.8994 15.3019 11.6728C15.7087 12.4639 16.2829 13.1563 16.984 13.7014C17.779 14.3135 18.6492 14.82 19.5732 15.2085C20.5737 15.6419 21.6959 16.0664 22.9395 16.4817C24.2837 16.9343 25.5866 17.4021 26.848 17.8854C28.0348 18.3338 29.1577 18.9372 30.1876 19.6801C31.1411 20.3787 31.9353 21.2737 32.517 22.3051C33.1038 23.3444 33.3972 24.6617 33.3972 26.257C33.4243 27.6767 33.1504 29.0859 32.5933 30.391C32.079 31.5607 31.2989 32.5931 30.3155 33.4052C29.2674 34.2525 28.0602 34.8792 26.7659 35.2479C25.2685 35.6802 23.7165 35.8914 22.1585 35.875Z" fill="#736E91"/>
<path d="M61.245 35.4591H63.9373L54.8734 20.5374C57.5656 20.0887 59.7144 19.0059 61.3195 17.2892C62.9247 15.5725 63.7279 13.3136 63.7292 10.5129C63.7449 9.10805 63.4901 7.7134 62.9788 6.40567C62.5004 5.19061 61.7573 4.09847 60.804 3.20928C59.7935 2.2889 58.6036 1.58956 57.3097 1.15568C55.7916 0.648279 54.1991 0.401936 52.5993 0.427035H40.4326V35.4591H42.8651V20.7464V18.5662V2.60144H52.6031C55.4672 2.60144 57.6311 3.3045 59.0951 4.71064C60.559 6.11677 61.2928 8.05087 61.2966 10.5129C61.2966 13.0439 60.494 15.0195 58.8888 16.4398C57.2837 17.86 55.0974 18.5688 52.33 18.5662V20.7541" fill="#736E91"/>
<path d="M74.3009 23.4981C74.3354 23.4118 74.37 23.3254 74.4103 23.241L74.3009 23.4981Z" fill="#736E91"/>
<path d="M82.9882 0.417236H80.6588L67.4057 35.4588H69.8878L79.2096 10.5127L81.7453 3.03457H81.8503L84.3325 10.4168L89.148 23.051C89.1949 23.1493 89.2358 23.2504 89.2702 23.3539C89.3409 23.5457 89.4095 23.7469 89.4878 23.9292C89.5833 24.1554 89.6922 24.374 89.7781 24.6041C89.822 24.7191 89.8621 24.8361 89.9079 24.9511C89.9308 25.0087 89.9481 25.0663 89.9652 25.1218H89.9823L93.7611 35.4762H96.2433L82.9882 0.417236Z" fill="#736E91"/>
<path d="M104.529 2.60698V2.60123H122.492V0.417236H102.094V2.60698H104.529Z" fill="#736E91"/>
<path d="M104.529 19.0033V18.9956H122.492V16.8135H102.094V19.0033H104.529Z" fill="#736E91"/>
<path d="M104.529 33.3287V33.3268H102.094V35.459H122.804V33.3287H104.529Z" fill="#736E91"/>
<path d="M129.949 0.417236H132.382V33.2231H149.725V35.4588H129.949V0.417236Z" fill="#736E91"/>
<path d="M173.067 35.4588H170.632V0.417236H173.067V35.4588Z" fill="#736E91"/>
<path d="M202.948 2.65108L191.973 2.59931V35.4588H189.539V2.60122L178.563 2.65299V0.417236H202.948V2.65108Z" fill="#736E91"/>
<path d="M5.11748 45.656C4.89701 45.4228 4.63033 45.2386 4.33463 45.1153C4.00413 44.9817 3.65019 44.9165 3.294 44.9236C2.91877 44.9169 2.54663 44.9928 2.20373 45.1459C1.89066 45.2869 1.61035 45.4919 1.38078 45.748C1.15261 46.0045 0.975651 46.3027 0.859521 46.6263C0.614714 47.3079 0.614714 48.0538 0.859521 48.7354C0.974866 49.0582 1.15195 49.3552 1.38078 49.6098C1.61157 49.8635 1.89164 50.0671 2.20373 50.2081C2.54691 50.3604 2.91886 50.4362 3.294 50.4304C3.62354 50.434 3.95214 50.3947 4.27162 50.3135C4.52617 50.2547 4.7698 50.1557 4.99337 50.0201V48.095H3.52504V47.5198H5.63493V50.3787C5.28868 50.5881 4.91359 50.7451 4.52175 50.8447C4.11725 50.9469 3.70157 50.9978 3.28446 50.9961C2.83323 51.001 2.38548 50.9164 1.96698 50.7468C1.57741 50.5885 1.22351 50.3531 0.926351 50.0546C0.632231 49.753 0.400554 49.3959 0.244702 49.0039C0.0774139 48.5766 -0.00559784 48.1207 0.000292913 47.6617C-0.00531495 47.2057 0.0797279 46.7534 0.25043 46.3309C0.406802 45.9382 0.64067 45.5815 0.937965 45.2819C1.23526 44.9824 1.58984 44.7463 1.98034 44.588C2.39416 44.4182 2.83747 44.3329 3.28446 44.3368C3.73412 44.3274 4.18138 44.4048 4.60194 44.565C4.95979 44.7074 5.28472 44.9222 5.55664 45.1958L5.11748 45.656Z" fill="#736E91"/>
<path d="M8.6957 47.1362C8.6957 46.956 8.68043 46.795 8.66898 46.6531H9.2418C9.25325 46.7662 9.2628 46.8908 9.26853 47.0366C9.27425 47.1822 9.27808 47.2858 9.27808 47.3759H9.29525C9.41347 47.1308 9.59894 46.9245 9.82989 46.7815C10.0689 46.6292 10.3469 46.5498 10.6299 46.5533C10.7082 46.5533 10.777 46.5533 10.84 46.5533C10.9044 46.5596 10.9683 46.5711 11.0309 46.5879L10.9507 47.1631C10.8925 47.1472 10.8331 47.1356 10.7731 47.1286C10.6904 47.1156 10.6068 47.1091 10.523 47.1095C10.3647 47.1095 10.2078 47.1401 10.0609 47.1996C9.9133 47.2611 9.7824 47.357 9.67905 47.4795C9.56033 47.625 9.46968 47.7915 9.41173 47.9703C9.33983 48.2023 9.30566 48.4445 9.31053 48.6875V50.8274H8.70526V47.5677C8.70526 47.4642 8.70143 47.328 8.6957 47.1362Z" fill="#736E91"/>
<path d="M17.3548 48.7488C17.3585 49.0483 17.3027 49.3456 17.1906 49.6231C17.0863 49.8845 16.9304 50.1219 16.7324 50.3212C16.5324 50.5219 16.2932 50.6786 16.0297 50.7813C15.7432 50.8935 15.4379 50.9495 15.1304 50.9462C14.826 50.9489 14.524 50.8929 14.2406 50.7813C13.9771 50.6786 13.7378 50.5219 13.538 50.3212C13.3399 50.1219 13.1841 49.8845 13.0797 49.6231C12.8581 49.0609 12.8581 48.435 13.0797 47.8726C13.1846 47.6112 13.3418 47.3744 13.5414 47.1765C13.7412 46.9786 13.9791 46.824 14.2406 46.722C14.524 46.6104 14.826 46.5544 15.1304 46.5571C15.4379 46.554 15.7432 46.6099 16.0297 46.722C16.2912 46.824 16.5292 46.9786 16.7289 47.1765C16.9285 47.3744 17.0857 47.6112 17.1906 47.8726C17.3027 48.1508 17.3585 48.4487 17.3548 48.7488ZM16.7152 48.7488C16.7163 48.5248 16.6787 48.3024 16.6045 48.0911C16.5343 47.8932 16.4268 47.7109 16.2875 47.5542C16.1486 47.4001 15.9788 47.2773 15.7891 47.1937C15.5818 47.1017 15.3571 47.0559 15.1304 47.0595C14.9055 47.0555 14.6825 47.1012 14.4774 47.1937C14.2894 47.2782 14.121 47.401 13.9829 47.5542C13.8436 47.7109 13.7359 47.8932 13.6658 48.0911C13.5182 48.5164 13.5182 48.9793 13.6658 49.4046C13.7354 49.6027 13.8431 49.7851 13.9829 49.9415C14.1207 50.0942 14.2893 50.2158 14.4774 50.2982C14.6833 50.3876 14.9059 50.432 15.1304 50.4285C15.3566 50.4314 15.5809 50.3871 15.7891 50.2982C15.9789 50.2168 16.149 50.0951 16.2875 49.9415C16.4271 49.7851 16.5348 49.6027 16.6045 49.4046C16.6786 49.1941 16.716 48.9722 16.7152 48.7488Z" fill="#736E91"/>
<path d="M20.2032 46.6569L21.2095 50.0528H21.2267L22.3475 46.6569H22.9356L24.0812 50.0528H24.0985L25.0875 46.6569H25.7291L24.4115 50.8389H23.7509L22.6378 47.4527H22.6206L21.5265 50.8389H20.8677L19.5502 46.6569H20.2032Z" fill="#736E91"/>
<path d="M33.9087 50.839H33.269V48.1142L30.9109 44.5114H31.711L33.607 47.5793L35.5164 44.5114H36.2648L33.9087 48.1142V50.839Z" fill="#736E91"/>
<path d="M41.8764 48.7487C41.8791 49.0482 41.8233 49.3453 41.7122 49.6231C41.6064 49.8837 41.4507 50.1209 41.2539 50.3211C41.0546 50.5203 40.8168 50.6762 40.5551 50.7793C40.2685 50.8915 39.9633 50.9475 39.6557 50.9442C39.3514 50.947 39.0493 50.891 38.766 50.7793C38.5022 50.6761 38.2623 50.5195 38.0614 50.3192C37.8646 50.1189 37.7089 49.8817 37.6032 49.6212C37.3843 49.0584 37.3843 48.4335 37.6032 47.8706C37.7082 47.6091 37.8655 47.372 38.0655 47.174C38.2656 46.9761 38.504 46.8216 38.766 46.7201C39.0493 46.6084 39.3514 46.5525 39.6557 46.5552C39.9633 46.552 40.2685 46.608 40.5551 46.7201C40.8175 46.8248 41.0565 46.9813 41.2577 47.1803C41.4545 47.3806 41.6103 47.6177 41.716 47.8782C41.8251 48.1552 41.8796 48.4509 41.8764 48.7487ZM41.2367 48.7487C41.2388 48.5262 41.202 48.3048 41.1279 48.0949C41.0579 47.8975 40.9509 47.7153 40.8128 47.5581C40.6732 47.4047 40.5036 47.282 40.3144 47.1976C40.1072 47.1055 39.8824 47.0597 39.6557 47.0634C39.4303 47.059 39.2066 47.1049 39.0008 47.1976C38.8135 47.282 38.6457 47.4048 38.5082 47.5581C38.3689 47.7147 38.2613 47.897 38.1913 48.0949C38.0436 48.5202 38.0436 48.9831 38.1913 49.4084C38.2609 49.6065 38.3686 49.7889 38.5082 49.9453C38.6453 50.0979 38.8133 50.2195 39.0008 50.302C39.2075 50.3914 39.4307 50.4358 39.6557 50.4323C39.8819 50.4353 40.1064 50.3908 40.3144 50.302C40.5038 50.2196 40.6735 50.0981 40.8128 49.9453C40.9513 49.7884 41.0582 49.606 41.1279 49.4084C41.2027 49.1968 41.2396 48.9734 41.2367 48.7487Z" fill="#736E91"/>
<path d="M47.6711 50.8389C47.6578 50.7258 47.6501 50.6011 47.6443 50.465C47.6386 50.3289 47.6443 50.2138 47.6443 50.1237H47.6195C47.4932 50.3758 47.2934 50.5831 47.0467 50.718C46.7898 50.868 46.4979 50.9468 46.2008 50.9463C45.6725 50.9463 45.2767 50.7884 45.0132 50.4727C44.7347 50.1178 44.5937 49.6737 44.616 49.2225V46.6569H45.2213V48.9712C45.2192 49.172 45.2371 49.3724 45.2748 49.5695C45.3069 49.7343 45.3719 49.8908 45.4657 50.0298C45.5524 50.159 45.6717 50.2628 45.8114 50.3308C45.9837 50.4074 46.1709 50.4441 46.3593 50.4381C46.5247 50.4378 46.688 50.4021 46.8384 50.3333C46.9889 50.2645 47.1231 50.1643 47.2319 50.0393C47.3596 49.8899 47.4562 49.7165 47.5164 49.5293C47.5919 49.2947 47.6281 49.0491 47.6234 48.8026V46.6569H48.2286V49.9166C48.2286 50.0298 48.2286 50.1754 48.2286 50.3557C48.2286 50.5359 48.2419 50.695 48.2554 50.8369L47.6711 50.8389Z" fill="#736E91"/>
<path d="M51.2721 47.1363C51.2721 46.9561 51.2588 46.795 51.2453 46.6532H51.8181C51.8315 46.7663 51.8392 46.8908 51.8449 47.0366C51.8506 47.1823 51.8544 47.2859 51.8544 47.376H51.8716C51.995 47.1267 52.1858 46.9172 52.4222 46.7718C52.6585 46.6263 52.931 46.5506 53.2082 46.5534C53.2846 46.5534 53.3534 46.5534 53.4163 46.5534C53.4808 46.5594 53.5448 46.571 53.6072 46.5879L53.527 47.1632C53.469 47.1468 53.4095 47.1353 53.3495 47.1286C53.2674 47.1156 53.1844 47.1092 53.1013 47.1094C52.9423 47.1095 52.7849 47.1401 52.6373 47.1995C52.4899 47.2616 52.3591 47.3575 52.2554 47.4796C52.1366 47.6246 52.0465 47.7912 51.99 47.9704C51.9165 48.2021 51.8816 48.4444 51.8869 48.6875V50.8274H51.2816V47.5678C51.2816 47.4642 51.2778 47.3281 51.2721 47.1363Z" fill="#736E91"/>
<path d="M61.4927 50.839H60.8511V45.0865H58.7507V44.5114H63.6006V45.0865H61.5003L61.4927 50.839Z" fill="#736E91"/>
<path d="M68.9134 48.6223V48.7565C68.916 48.8076 68.916 48.8588 68.9134 48.9098H65.4516C65.4566 49.1121 65.4986 49.3117 65.5758 49.4985C65.6494 49.6795 65.7585 49.8438 65.8965 49.9817C66.0349 50.1201 66.1982 50.2307 66.3777 50.3077C66.6042 50.4016 66.8493 50.4416 67.0936 50.4247C67.3381 50.4077 67.5753 50.3342 67.7869 50.2099C67.9967 50.0832 68.1748 49.91 68.3081 49.7037L68.7625 50.0623C68.5463 50.3514 68.264 50.5842 67.9396 50.7411C67.6362 50.8791 67.3065 50.9491 66.9734 50.9462C66.679 50.9488 66.387 50.8927 66.1142 50.7813C65.8578 50.6768 65.6257 50.5201 65.4325 50.3212C65.2445 50.1198 65.0957 49.885 64.9934 49.6289C64.8822 49.351 64.8265 49.054 64.8292 48.7545C64.8261 48.4548 64.8806 48.1573 64.9895 47.8783C65.0905 47.6184 65.2416 47.3812 65.4345 47.1803C65.6282 46.9795 65.8608 46.8204 66.1178 46.713C66.3749 46.6055 66.6511 46.5518 66.9295 46.5552C67.2255 46.5495 67.5194 46.6056 67.7925 46.7201C68.0299 46.8219 68.2423 46.9743 68.4151 47.1669C68.5848 47.3583 68.7147 47.5819 68.7969 47.8245C68.8795 48.0821 68.9188 48.3518 68.9134 48.6223ZM68.2986 48.4305C68.2925 48.0684 68.1569 47.7207 67.9167 47.4506C67.7872 47.3182 67.6308 47.2153 67.4581 47.1491C67.2855 47.0829 67.1006 47.055 66.9161 47.0671C66.7234 47.065 66.5322 47.1028 66.3548 47.1784C66.0177 47.3227 65.7457 47.587 65.591 47.9204C65.5155 48.082 65.4702 48.2562 65.4573 48.4344L68.2986 48.4305Z" fill="#736E91"/>
<path d="M74.2544 48.1332C74.2651 47.9865 74.2451 47.8389 74.1958 47.7003C74.1465 47.5616 74.0689 47.4348 73.968 47.3279C73.7354 47.137 73.439 47.0424 73.1393 47.0634C72.9017 47.0608 72.6659 47.1064 72.4462 47.1976C72.243 47.2788 72.0579 47.4001 71.902 47.5542L71.564 47.1515C71.7599 46.964 71.9919 46.8185 72.2457 46.7239C72.5502 46.6063 72.8743 46.5484 73.2004 46.5533C73.4147 46.5513 73.6279 46.5831 73.8325 46.6472C74.0214 46.7055 74.1967 46.8013 74.348 46.9291C74.4992 47.0574 74.6183 47.2197 74.6954 47.4027C74.782 47.6149 74.8243 47.8427 74.8196 48.0719V49.905C74.8196 50.066 74.8253 50.2329 74.8367 50.4055C74.8465 50.5521 74.8645 50.698 74.8902 50.8427H74.3499C74.3327 50.743 74.3174 50.6317 74.306 50.5129C74.2931 50.397 74.2867 50.2805 74.2868 50.1638H74.2697C74.1093 50.4171 73.8871 50.625 73.6243 50.7679C73.3544 50.8993 73.0573 50.965 72.7575 50.9597C72.5903 50.9593 72.4241 50.9368 72.2629 50.8926C72.0965 50.8497 71.9397 50.7756 71.8009 50.6739C71.6582 50.5687 71.5398 50.434 71.4533 50.2789C71.3566 50.097 71.3092 49.8926 71.3158 49.6865C71.3001 49.4093 71.3872 49.136 71.5602 48.9194C71.7361 48.7227 71.9618 48.5776 72.2133 48.4995C72.5176 48.3998 72.8332 48.3392 73.1527 48.3192C73.5065 48.2925 73.8732 48.279 74.2525 48.279L74.2544 48.1332ZM74.0768 48.7488C73.8267 48.7488 73.5766 48.7584 73.3245 48.7795C73.0924 48.7971 72.8627 48.839 72.639 48.9041C72.4533 48.9569 72.2813 49.0499 72.135 49.1764C72.0712 49.237 72.0212 49.3107 71.9883 49.3924C71.9553 49.4741 71.9403 49.5619 71.9441 49.65C71.9385 49.7829 71.9674 49.9152 72.028 50.0335C72.0824 50.1329 72.1604 50.2173 72.2553 50.2789C72.3513 50.3423 72.4581 50.3878 72.5704 50.4132C72.6862 50.44 72.8047 50.4535 72.9236 50.4534C73.1203 50.4577 73.3155 50.4197 73.4964 50.3422C73.6561 50.2722 73.7987 50.1681 73.9146 50.0374C74.0282 49.9086 74.1159 49.7588 74.1723 49.5963C74.2321 49.4271 74.2625 49.2487 74.262 49.069V48.7565L74.0768 48.7488Z" fill="#736E91"/>
<path d="M78.9948 46.7775C79.2424 46.6254 79.5276 46.5463 79.8178 46.5492C79.9359 46.5496 80.0536 46.5617 80.1692 46.5857C80.2953 46.6103 80.4162 46.6571 80.5263 46.7238C80.6463 46.7969 80.754 46.8888 80.8451 46.9961C80.954 47.1261 81.04 47.274 81.0991 47.4332C81.228 47.1634 81.4306 46.936 81.6834 46.7775C81.9485 46.6206 82.2521 46.5415 82.5598 46.5492C83.0868 46.5492 83.4838 46.7065 83.7474 47.0228C84.0244 47.3792 84.1646 47.8235 84.1426 48.2749V50.8387H83.5373V48.5243C83.5549 48.1537 83.4704 47.7855 83.2929 47.4601C83.2034 47.3237 83.0785 47.2145 82.9319 47.1439C82.7853 47.0734 82.6223 47.0441 82.4604 47.0593C82.2665 47.0526 82.0745 47.099 81.9049 47.1935C81.7564 47.2797 81.6314 47.4007 81.5401 47.5463C81.4491 47.6992 81.3846 47.8665 81.3492 48.041C81.3067 48.2298 81.2856 48.4227 81.2862 48.6163V50.8406H80.6713V48.3996C80.6734 48.214 80.6588 48.0284 80.6274 47.8455C80.6037 47.6949 80.5513 47.5503 80.4728 47.4198C80.3974 47.3036 80.2908 47.2112 80.1654 47.1533C80.0083 47.0849 79.838 47.0529 79.667 47.0593C79.5179 47.0607 79.3707 47.094 79.2355 47.1571C79.0844 47.2263 78.9508 47.3285 78.8441 47.4562C78.7189 47.6066 78.6236 47.7798 78.5634 47.9662C78.4878 48.2015 78.4517 48.4478 78.4564 48.695V50.8387H77.8512V47.579C77.8512 47.4659 77.8512 47.3201 77.8416 47.1417C77.8321 46.9635 77.8264 46.8005 77.8148 46.6586H78.3877C78.3992 46.7717 78.4087 46.8964 78.4144 47.0421C78.4201 47.1877 78.424 47.2913 78.424 47.3814H78.4411C78.5621 47.1295 78.7549 46.9194 78.9948 46.7775Z" fill="#736E91"/>
<path d="M88.014 50.4114C88.0145 50.536 87.9664 50.6558 87.8803 50.7453C87.8354 50.7921 87.7816 50.8294 87.7221 50.8548C87.6625 50.8803 87.5985 50.8933 87.5338 50.8933C87.4691 50.8933 87.405 50.8803 87.3455 50.8548C87.2859 50.8294 87.2321 50.7921 87.1873 50.7453C87.1017 50.655 87.054 50.5351 87.054 50.4104C87.054 50.2857 87.1017 50.1658 87.1873 50.0756C87.2321 50.0288 87.2859 49.9915 87.3455 49.966C87.405 49.9406 87.4691 49.9275 87.5338 49.9275C87.5985 49.9275 87.6625 49.9406 87.7221 49.966C87.7816 49.9915 87.8354 50.0288 87.8803 50.0756C87.9668 50.1657 88.0147 50.2862 88.014 50.4114Z" fill="#736E91"/>
<path d="M97.476 45.5314C97.3383 45.3393 97.1586 45.1812 96.9509 45.0693C96.7107 44.948 96.4443 44.8888 96.1756 44.8967C96.0158 44.8974 95.8571 44.9212 95.704 44.9676C95.5471 45.0139 95.3996 45.0879 95.2687 45.1863C95.1373 45.285 95.0297 45.4121 94.9537 45.5582C94.87 45.721 94.8286 45.9024 94.8334 46.0856C94.8268 46.2595 94.8664 46.4323 94.948 46.5859C95.0257 46.7172 95.1297 46.8308 95.2535 46.9196C95.3871 47.0159 95.5336 47.0928 95.6888 47.1478C95.8511 47.2072 96.021 47.2667 96.1985 47.328C96.4181 47.399 96.6377 47.4757 96.8611 47.56C97.0751 47.6389 97.2765 47.7487 97.4588 47.886C97.6384 48.0223 97.7868 48.1955 97.8942 48.3942C98.0152 48.6365 98.0736 48.9055 98.064 49.1765C98.0725 49.4424 98.0183 49.7066 97.9058 49.9475C97.7933 50.1885 97.6257 50.3993 97.4168 50.5628C97.2209 50.714 96.9979 50.8258 96.7599 50.8926C96.5182 50.9642 96.2673 51.0004 96.0153 51C95.8229 51 95.631 50.9808 95.4425 50.9425C95.2559 50.9044 95.074 50.8459 94.9002 50.7679C94.728 50.6904 94.5663 50.5912 94.419 50.4727C94.2741 50.3536 94.1456 50.2157 94.0372 50.0623L94.589 49.6501C94.7303 49.8859 94.927 50.0834 95.1618 50.2253C95.4233 50.3824 95.724 50.4615 96.0287 50.4535C96.1949 50.4525 96.3603 50.4274 96.5194 50.3787C96.6819 50.3289 96.8339 50.2495 96.968 50.1448C97.102 50.0403 97.2137 49.9099 97.2964 49.7613C97.3818 49.5939 97.4262 49.4086 97.4262 49.2206C97.4262 49.0326 97.3818 48.8473 97.2964 48.6799C97.2107 48.534 97.0941 48.4089 96.9547 48.3136C96.8029 48.211 96.6387 48.1285 96.4659 48.0682C96.275 48.0029 96.0841 47.9358 95.893 47.8765C95.7021 47.817 95.4806 47.7365 95.2783 47.654C95.082 47.5728 94.8992 47.4623 94.736 47.3261C94.5756 47.19 94.4454 47.0214 94.3541 46.8314C94.2515 46.5918 94.2016 46.3329 94.2075 46.0722C94.2134 45.8114 94.2751 45.5551 94.3885 45.3205C94.5052 45.1055 94.6683 44.9195 94.8658 44.7759C95.0612 44.6324 95.2813 44.5264 95.515 44.4633C95.7436 44.3978 95.98 44.3643 96.2177 44.3637C96.5956 44.3534 96.9708 44.4315 97.3137 44.5918C97.5812 44.7157 97.816 44.9009 97.9992 45.1325L97.476 45.5314Z" fill="#736E91"/>
<path d="M103.875 47.6138C103.766 47.4445 103.615 47.3069 103.436 47.2149C103.243 47.1114 103.027 47.058 102.808 47.0596C102.582 47.0561 102.358 47.0998 102.149 47.1881C101.959 47.2709 101.788 47.393 101.647 47.5466C101.506 47.7016 101.397 47.8835 101.326 48.0817C101.251 48.2959 101.213 48.5217 101.216 48.7488C101.213 48.9743 101.251 49.1982 101.326 49.4104C101.397 49.6059 101.504 49.7862 101.641 49.9416C101.781 50.0943 101.951 50.2158 102.14 50.2982C102.348 50.3872 102.572 50.4315 102.799 50.4286C103.017 50.4389 103.235 50.3946 103.432 50.2995C103.629 50.2045 103.8 50.0617 103.929 49.884L104.383 50.2234C104.205 50.4441 103.982 50.624 103.728 50.7508C103.438 50.887 103.119 50.9527 102.799 50.9425C102.485 50.9467 102.174 50.8907 101.882 50.7776C101.62 50.6752 101.381 50.5184 101.183 50.3174C100.989 50.1171 100.836 49.8798 100.734 49.6195C100.521 49.0556 100.521 48.4325 100.734 47.8688C100.836 47.6084 100.989 47.3711 101.183 47.1708C101.382 46.9711 101.62 46.8145 101.882 46.7107C102.174 46.5974 102.485 46.5415 102.799 46.5458C103.092 46.549 103.381 46.6109 103.65 46.7279C103.926 46.8425 104.167 47.0291 104.347 47.2686L103.875 47.6138Z" fill="#736E91"/>
<path d="M109.417 48.1334C109.429 47.986 109.41 47.8377 109.361 47.6983C109.312 47.5589 109.234 47.4314 109.132 47.3242C108.901 47.1332 108.605 47.0386 108.306 47.0596C108.067 47.0571 107.831 47.1028 107.611 47.1939C107.408 47.2746 107.223 47.3959 107.068 47.5505L106.73 47.1479C106.926 46.9606 107.157 46.8152 107.41 46.7203C107.715 46.6028 108.039 46.5449 108.365 46.5496C108.579 46.5475 108.792 46.5793 108.997 46.6435C109.187 46.7013 109.363 46.7972 109.514 46.9254C109.665 47.0538 109.783 47.2161 109.86 47.399C109.948 47.6108 109.991 47.8387 109.986 48.0682V49.9013C109.986 50.0623 109.992 50.2292 110.003 50.4018C110.011 50.5485 110.029 50.6946 110.057 50.8389H109.514C109.495 50.7393 109.482 50.628 109.468 50.5091C109.455 50.3902 109.451 50.2733 109.451 50.1601H109.434C109.273 50.413 109.051 50.6207 108.789 50.7641C108.518 50.8952 108.22 50.961 107.92 50.9559C107.753 50.9557 107.588 50.9332 107.427 50.8888C107.26 50.846 107.103 50.7719 106.963 50.6701C106.821 50.5644 106.703 50.4299 106.616 50.2752C106.519 50.0932 106.472 49.8889 106.478 49.6827C106.464 49.4056 106.551 49.1327 106.723 48.9157C106.899 48.7124 107.126 48.5614 107.381 48.4785C107.686 48.3788 108.001 48.3183 108.321 48.2983C108.674 48.2714 109.039 48.2581 109.419 48.2581L109.417 48.1334ZM109.239 48.7489C108.991 48.7489 108.739 48.7584 108.487 48.7796C108.255 48.7974 108.025 48.8392 107.802 48.9042C107.616 48.9567 107.445 49.0496 107.299 49.1765C107.236 49.2372 107.186 49.3107 107.153 49.3924C107.12 49.4741 107.105 49.5621 107.108 49.6501C107.103 49.7833 107.132 49.9157 107.194 50.0336C107.248 50.1334 107.326 50.2179 107.422 50.279C107.517 50.343 107.624 50.3885 107.737 50.4132C107.852 50.44 107.97 50.4535 108.088 50.4536C108.285 50.4582 108.48 50.4202 108.661 50.3423C108.821 50.2718 108.964 50.1679 109.081 50.0374C109.195 49.9088 109.282 49.7589 109.339 49.5964C109.398 49.427 109.428 49.2486 109.426 49.0691V48.7566L109.239 48.7489Z" fill="#736E91"/>
<path d="M113.636 50.8387H113.03V44.0815H113.636V50.8387Z" fill="#736E91"/>
<path d="M120.515 48.6223V48.7566C120.518 48.8076 120.518 48.8588 120.515 48.91H117.063C117.068 49.1121 117.11 49.3117 117.187 49.4986C117.261 49.6796 117.37 49.8439 117.508 49.9819C117.646 50.1197 117.809 50.2303 117.987 50.3078C118.214 50.4018 118.46 50.4418 118.704 50.4249C118.949 50.4079 119.187 50.3343 119.398 50.21C119.608 50.0832 119.787 49.9101 119.92 49.7037L120.374 50.0623C120.157 50.3511 119.875 50.5839 119.551 50.7411C119.248 50.8792 118.919 50.9493 118.585 50.9463C118.29 50.9489 117.998 50.8928 117.725 50.7814C117.469 50.6769 117.237 50.5202 117.044 50.3212C116.852 50.119 116.7 49.8821 116.595 49.6233C116.484 49.3456 116.427 49.0485 116.431 48.7489C116.428 48.4492 116.483 48.1516 116.592 47.8726C116.692 47.6127 116.843 47.3755 117.036 47.1747C117.23 46.9739 117.463 46.8148 117.72 46.7073C117.977 46.5999 118.253 46.5462 118.532 46.5496C118.827 46.544 119.122 46.6002 119.394 46.7145C119.631 46.8167 119.843 46.9691 120.017 47.1612C120.187 47.3526 120.317 47.5763 120.399 47.8189C120.482 48.0783 120.521 48.3499 120.515 48.6223ZM119.901 48.4306C119.894 48.0686 119.759 47.7208 119.519 47.4508C119.389 47.3183 119.233 47.2154 119.061 47.1492C118.887 47.083 118.702 47.055 118.518 47.0673C118.325 47.065 118.135 47.1029 117.957 47.1785C117.619 47.3228 117.348 47.5871 117.193 47.9206C117.117 48.0822 117.072 48.2564 117.059 48.4344L119.901 48.4306Z" fill="#736E91"/>
<path d="M128.958 50.839H128.316V48.1142L125.958 44.5114H126.758L128.654 47.5793L130.563 44.5114H131.312L128.958 48.1142V50.839Z" fill="#736E91"/>
<path d="M136.931 48.7488C136.935 49.0483 136.878 49.3456 136.767 49.6231C136.662 49.8843 136.506 50.1216 136.309 50.3212C136.108 50.5219 135.869 50.6786 135.606 50.7813C135.32 50.8935 135.014 50.9495 134.706 50.9462C134.402 50.9489 134.1 50.8929 133.816 50.7813C133.554 50.6786 133.314 50.5219 133.114 50.3212C132.917 50.1219 132.76 49.8845 132.656 49.6231C132.434 49.0609 132.434 48.435 132.656 47.8726C132.761 47.6112 132.918 47.3744 133.117 47.1765C133.317 46.9786 133.555 46.824 133.816 46.722C134.1 46.6104 134.402 46.5544 134.706 46.5571C135.014 46.554 135.32 46.6099 135.606 46.722C135.868 46.824 136.106 46.9786 136.305 47.1765C136.505 47.3744 136.662 47.6112 136.767 47.8726C136.878 48.1508 136.935 48.4487 136.931 48.7488ZM136.291 48.7488C136.293 48.5246 136.255 48.302 136.179 48.0911C136.109 47.8933 136.002 47.711 135.863 47.5542C135.724 47.4009 135.554 47.2782 135.365 47.1937C135.157 47.1017 134.933 47.0559 134.706 47.0595C134.481 47.0556 134.257 47.1014 134.051 47.1937C133.864 47.2783 133.697 47.401 133.559 47.5542C133.42 47.7109 133.312 47.8932 133.242 48.0911C133.095 48.5164 133.095 48.9793 133.242 49.4046C133.311 49.6027 133.42 49.7851 133.559 49.9415C133.696 50.0942 133.864 50.2156 134.051 50.2982C134.259 50.3875 134.482 50.4319 134.706 50.4285C134.933 50.4314 135.157 50.3871 135.365 50.2982C135.554 50.2158 135.725 50.0943 135.863 49.9415C136.003 49.7851 136.109 49.6026 136.179 49.4046C136.255 49.1944 136.292 48.9724 136.291 48.7488Z" fill="#736E91"/>
<path d="M142.723 50.8389C142.711 50.7258 142.701 50.6011 142.695 50.465C142.69 50.3289 142.695 50.2138 142.695 50.1237H142.679C142.553 50.3766 142.354 50.5842 142.106 50.718C141.849 50.868 141.558 50.9468 141.26 50.9463C140.732 50.9463 140.336 50.7884 140.072 50.4727C139.794 50.1178 139.653 49.6737 139.675 49.2225V46.6569H140.281V48.9712C140.28 49.172 140.297 49.3723 140.334 49.5695C140.367 49.7343 140.431 49.8908 140.524 50.0298C140.612 50.1594 140.732 50.2634 140.873 50.3308C141.044 50.4076 141.23 50.4443 141.419 50.4381C141.583 50.4378 141.747 50.4021 141.898 50.3333C142.048 50.2645 142.182 50.1643 142.291 50.0393C142.419 49.8899 142.515 49.7165 142.576 49.5293C142.651 49.2947 142.688 49.0491 142.683 48.8026V46.6569H143.288V49.9166C143.288 50.0298 143.288 50.1754 143.288 50.3557C143.288 50.5359 143.301 50.695 143.315 50.8369L142.723 50.8389Z" fill="#736E91"/>
<path d="M146.333 47.1363C146.333 46.9561 146.319 46.795 146.308 46.6532H146.881C146.892 46.7663 146.9 46.8908 146.908 47.0366C146.916 47.1823 146.908 47.2859 146.908 47.376H146.925C147.048 47.1267 147.239 46.9172 147.475 46.7718C147.712 46.6263 147.984 46.5506 148.261 46.5534C148.338 46.5534 148.409 46.5534 148.47 46.5534C148.534 46.5594 148.598 46.571 148.66 46.5879L148.58 47.1632C148.522 47.1468 148.463 47.1353 148.402 47.1286C148.321 47.1156 148.237 47.1092 148.154 47.1094C147.995 47.1095 147.838 47.1401 147.69 47.1995C147.543 47.261 147.412 47.357 147.308 47.4796C147.189 47.6241 147.097 47.7908 147.041 47.9704C146.967 48.2021 146.933 48.4444 146.938 48.6875V50.8274H146.333V47.5678C146.333 47.4642 146.333 47.3281 146.333 47.1363Z" fill="#736E91"/>
<path d="M154.737 44.5114H156.616C156.858 44.5115 157.099 44.5372 157.336 44.588C157.569 44.6332 157.79 44.7209 157.99 44.8468C158.185 44.9717 158.348 45.1421 158.463 45.3434C158.595 45.5836 158.661 45.8551 158.654 46.1296C158.658 46.4471 158.55 46.7559 158.348 47.0002C158.14 47.2512 157.853 47.4231 157.535 47.4873V47.5064C157.918 47.5426 158.277 47.7113 158.55 47.9838C158.688 48.1305 158.797 48.3042 158.867 48.4941C158.935 48.6841 158.966 48.8862 158.955 49.0883C158.959 49.3356 158.904 49.5802 158.793 49.8016C158.684 50.0231 158.524 50.2151 158.325 50.3615C158.103 50.5235 157.853 50.643 157.588 50.7143C157.27 50.8017 156.94 50.8436 156.61 50.839H154.737V44.5114ZM155.378 47.282H156.67C156.827 47.282 156.983 47.264 157.138 47.2283C157.291 47.1917 157.438 47.1266 157.569 47.0366C157.701 46.9488 157.808 46.8304 157.883 46.6914C157.969 46.5291 158.011 46.3475 158.004 46.1642C158.01 45.9853 157.968 45.808 157.883 45.6502C157.804 45.5114 157.694 45.3937 157.56 45.3071C157.412 45.2139 157.248 45.149 157.078 45.1153C156.885 45.0761 156.689 45.0568 156.492 45.0577H155.378V47.282ZM155.378 50.2848H156.572C156.795 50.2864 157.017 50.2638 157.235 50.2177C157.431 50.1823 157.619 50.1129 157.792 50.0126C157.948 49.9163 158.078 49.785 158.174 49.629C158.304 49.384 158.347 49.1017 158.296 48.8288C158.245 48.5559 158.103 48.3086 157.893 48.1276C157.536 47.9015 157.117 47.7936 156.696 47.8189H155.389L155.378 50.2848Z" fill="#736E91"/>
<path d="M164.854 50.8389C164.843 50.7258 164.834 50.6011 164.827 50.465C164.821 50.3289 164.827 50.2138 164.827 50.1237H164.809C164.684 50.3766 164.483 50.5842 164.236 50.7182C163.979 50.8682 163.687 50.947 163.39 50.9463C162.862 50.9463 162.465 50.7891 162.203 50.4727C161.925 50.1172 161.784 49.6733 161.807 49.2225V46.6569H162.412V48.9712C162.41 49.172 162.428 49.3724 162.465 49.5695C162.497 49.7345 162.561 49.8913 162.656 50.0298C162.744 50.159 162.864 50.2628 163.004 50.3308C163.176 50.4076 163.363 50.4442 163.553 50.4381C163.717 50.4375 163.88 50.4016 164.03 50.3328C164.181 50.2641 164.314 50.1641 164.423 50.0393C164.551 49.8896 164.648 49.7164 164.709 49.5293C164.784 49.2946 164.819 49.049 164.815 48.8026V46.6569H165.419V49.9166C165.419 50.0298 165.419 50.1754 165.429 50.3557C165.438 50.5359 165.444 50.695 165.455 50.8369L164.854 50.8389Z" fill="#736E91"/>
<path d="M170.689 47.6481C170.597 47.4712 170.456 47.3242 170.284 47.2244C170.097 47.1124 169.883 47.0553 169.665 47.0595C169.557 47.0596 169.45 47.0711 169.345 47.094C169.243 47.1167 169.147 47.1563 169.06 47.211C168.983 47.2649 168.917 47.3349 168.869 47.4161C168.818 47.5061 168.792 47.6081 168.794 47.7115C168.791 47.8012 168.811 47.8904 168.854 47.9696C168.896 48.0489 168.959 48.1153 169.035 48.1621C169.272 48.2955 169.531 48.385 169.799 48.4266C170.192 48.4862 170.565 48.638 170.889 48.8696C171.004 48.9635 171.095 49.0828 171.156 49.2182C171.217 49.3537 171.246 49.5015 171.241 49.65C171.25 49.8466 171.209 50.0424 171.122 50.2186C171.035 50.3949 170.903 50.5457 170.742 50.6567C170.59 50.7617 170.42 50.8372 170.24 50.8791C170.052 50.9248 169.86 50.9474 169.667 50.9462C169.35 50.9471 169.038 50.8817 168.748 50.7545C168.453 50.6219 168.199 50.4079 168.02 50.137L168.5 49.7804C168.622 49.9792 168.792 50.1434 168.994 50.2575C169.197 50.3716 169.425 50.4318 169.657 50.4324C169.786 50.4335 169.913 50.4214 170.04 50.3959C170.15 50.3755 170.256 50.3331 170.351 50.2712C170.439 50.2125 170.511 50.1344 170.565 50.0431C170.622 49.9379 170.649 49.8194 170.645 49.6999C170.647 49.5948 170.618 49.4915 170.562 49.4031C170.505 49.3147 170.424 49.2451 170.328 49.2033C170.036 49.0652 169.731 48.9617 169.415 48.8946C169.291 48.8658 169.159 48.8275 169.02 48.7833C168.884 48.7402 168.754 48.6754 168.638 48.5916C168.518 48.5045 168.419 48.3935 168.343 48.2656C168.263 48.1152 168.223 47.9457 168.229 47.7747C168.222 47.5939 168.259 47.4141 168.339 47.2521C168.419 47.0901 168.54 46.9512 168.687 46.8486C168.832 46.7484 168.993 46.6745 169.163 46.63C169.343 46.5821 169.529 46.5583 169.715 46.5591C170.008 46.5584 170.297 46.6239 170.561 46.7507C170.818 46.868 171.032 47.0615 171.175 47.3049L170.689 47.6481Z" fill="#736E91"/>
<path d="M174.631 45.0482C174.633 45.1063 174.622 45.1641 174.598 45.2175C174.576 45.2709 174.541 45.3185 174.498 45.3569C174.419 45.4335 174.313 45.4768 174.203 45.4776C174.094 45.4767 173.989 45.4334 173.911 45.3569C173.868 45.3174 173.835 45.2696 173.812 45.2165C173.789 45.1633 173.777 45.1061 173.777 45.0482C173.777 44.9903 173.789 44.9329 173.812 44.8798C173.835 44.8267 173.868 44.7789 173.911 44.7395C173.989 44.6629 174.094 44.6196 174.203 44.6187C174.313 44.6194 174.419 44.6627 174.498 44.7395C174.541 44.7779 174.576 44.8254 174.598 44.8788C174.622 44.9321 174.633 44.9899 174.631 45.0482ZM174.507 50.8388H173.901V46.657H174.507V50.8388Z" fill="#736E91"/>
<path d="M178.129 46.6567C178.14 46.7698 178.149 46.8945 178.155 47.0403C178.161 47.186 178.155 47.2895 178.155 47.3796H178.173C178.298 47.1267 178.498 46.9191 178.745 46.7851C179.003 46.636 179.294 46.5572 179.592 46.557C180.118 46.557 180.515 46.7143 180.779 47.0306C181.056 47.3869 181.197 47.8313 181.174 48.2827V50.8463H180.571V48.5244C180.572 48.3236 180.554 48.1234 180.518 47.9261C180.485 47.7615 180.42 47.6051 180.326 47.4659C180.239 47.3367 180.12 47.2334 179.979 47.1667C179.807 47.0893 179.621 47.0525 179.433 47.0594C179.272 47.0594 179.113 47.0927 178.965 47.1572C178.809 47.2256 178.672 47.3278 178.56 47.4563C178.432 47.6059 178.337 47.7792 178.276 47.9663C178.199 48.2015 178.163 48.4477 178.169 48.695V50.8387H177.564V47.579C177.564 47.4659 177.564 47.3202 177.554 47.1418C177.545 46.9635 177.538 46.8006 177.527 46.6587L178.129 46.6567Z" fill="#736E91"/>
<path d="M188.016 48.6224V48.7566C188.019 48.8077 188.019 48.8589 188.016 48.9101H184.562C184.566 49.1125 184.609 49.3123 184.688 49.4987C184.762 49.6793 184.87 49.8434 185.006 49.9819C185.146 50.1194 185.309 50.2299 185.488 50.3079C185.715 50.4019 185.96 50.4419 186.205 50.425C186.45 50.408 186.687 50.3344 186.899 50.2101C187.108 50.0828 187.287 49.9098 187.42 49.7038L187.873 50.0624C187.657 50.3521 187.375 50.5849 187.05 50.7412C186.746 50.8793 186.417 50.9494 186.083 50.9464C185.79 50.9488 185.498 50.8927 185.226 50.7815C184.969 50.6779 184.737 50.5211 184.545 50.3213C184.352 50.1195 184.2 49.8826 184.096 49.6234C183.983 49.3458 183.927 49.0487 183.929 48.749C183.927 48.4492 183.981 48.1517 184.091 47.8727C184.192 47.6132 184.343 47.3762 184.535 47.1747C184.729 46.974 184.962 46.8151 185.219 46.7077C185.477 46.6002 185.753 46.5464 186.031 46.5497C186.328 46.5443 186.621 46.6004 186.895 46.7146C187.132 46.8168 187.344 46.9692 187.518 47.1613C187.687 47.3527 187.817 47.5763 187.899 47.819C187.983 48.0784 188.022 48.35 188.016 48.6224ZM187.401 48.4307C187.395 48.0687 187.26 47.7209 187.019 47.4509C186.89 47.3184 186.733 47.2156 186.56 47.1494C186.388 47.0832 186.203 47.0552 186.019 47.0674C185.826 47.0651 185.634 47.103 185.457 47.1786C185.12 47.3228 184.848 47.5871 184.694 47.9207C184.617 48.0819 184.572 48.2562 184.56 48.4345L187.401 48.4307Z" fill="#736E91"/>
<path d="M193 47.648C192.908 47.4713 192.767 47.3244 192.595 47.2243C192.408 47.1122 192.194 47.0551 191.976 47.0592C191.869 47.0594 191.761 47.071 191.656 47.0938C191.554 47.1158 191.458 47.1555 191.37 47.2108C191.293 47.2637 191.227 47.3339 191.18 47.4159C191.129 47.5057 191.102 47.6077 191.103 47.7113C191.1 47.801 191.12 47.8902 191.163 47.9694C191.205 48.0486 191.268 48.1151 191.344 48.1619C191.581 48.2953 191.84 48.3849 192.108 48.4265C192.502 48.4857 192.875 48.6374 193.199 48.8694C193.314 48.963 193.405 49.0822 193.467 49.2177C193.528 49.3532 193.557 49.5011 193.551 49.6498C193.558 49.8599 193.511 50.0684 193.412 50.2538C193.324 50.4133 193.201 50.551 193.053 50.6564C192.901 50.762 192.729 50.8373 192.549 50.8789C192.362 50.9247 192.169 50.9473 191.976 50.946C191.66 50.9468 191.349 50.8815 191.059 50.7543C190.763 50.6222 190.51 50.408 190.331 50.1368L190.811 49.7802C190.933 49.9789 191.103 50.1432 191.306 50.2573C191.508 50.3714 191.736 50.4316 191.968 50.4322C192.097 50.4336 192.225 50.4214 192.35 50.3957C192.462 50.3753 192.568 50.3329 192.664 50.271C192.751 50.2122 192.823 50.1341 192.876 50.0429C192.932 49.9377 192.959 49.8191 192.956 49.6997C192.958 49.5949 192.929 49.4918 192.873 49.4034C192.817 49.3151 192.736 49.2453 192.64 49.2031C192.349 49.0657 192.043 48.9621 191.728 48.8943C191.604 48.8656 191.472 48.8272 191.333 48.7832C191.196 48.74 191.067 48.6753 190.951 48.5914C190.831 48.5048 190.731 48.3937 190.656 48.2653C190.575 48.1152 190.535 47.9456 190.54 47.7745C190.535 47.5833 190.579 47.3938 190.667 47.2243C190.746 47.0722 190.859 46.9408 190.998 46.8407C191.144 46.7406 191.305 46.6665 191.476 46.6221C191.656 46.5742 191.842 46.5503 192.028 46.5512C192.32 46.5505 192.61 46.616 192.874 46.7429C193.13 46.8597 193.344 47.0532 193.486 47.297L193 47.648Z" fill="#736E91"/>
<path d="M198.42 47.6481C198.327 47.4718 198.187 47.3252 198.015 47.2243C197.828 47.1123 197.614 47.0552 197.396 47.0594C197.289 47.0595 197.181 47.0711 197.076 47.094C196.974 47.116 196.878 47.1555 196.792 47.2109C196.713 47.2638 196.647 47.334 196.6 47.4161C196.548 47.5053 196.521 47.6076 196.524 47.7113C196.52 47.8012 196.541 47.8903 196.583 47.9695C196.626 48.0487 196.688 48.1152 196.765 48.1619C197.001 48.2953 197.26 48.385 197.528 48.4266C197.922 48.4862 198.295 48.6379 198.619 48.8695C198.734 48.9633 198.825 49.0826 198.886 49.2181C198.947 49.3535 198.975 49.5014 198.969 49.6499C198.977 49.8598 198.93 50.0678 198.832 50.2539C198.744 50.414 198.621 50.5517 198.472 50.6566C198.32 50.7624 198.149 50.8378 197.969 50.879C197.782 50.9246 197.589 50.9472 197.396 50.9461C197.081 50.9472 196.769 50.8818 196.48 50.7543C196.183 50.6228 195.93 50.4086 195.751 50.137L196.23 49.7803C196.352 49.979 196.521 50.1433 196.724 50.2573C196.927 50.3715 197.155 50.4316 197.387 50.4322C197.516 50.4337 197.643 50.4214 197.768 50.3958C197.88 50.3757 197.986 50.3333 198.08 50.2712C198.175 50.21 198.253 50.1245 198.304 50.0234C198.356 49.9223 198.38 49.8093 198.374 49.6959C198.376 49.5909 198.347 49.4876 198.29 49.3992C198.234 49.3107 198.153 49.2412 198.057 49.1993C197.766 49.0616 197.46 48.958 197.147 48.8905C197.022 48.8619 196.889 48.8234 196.749 48.7794C196.612 48.7364 196.484 48.6717 196.368 48.5876C196.247 48.5016 196.147 48.3904 196.073 48.2617C195.991 48.1117 195.95 47.9421 195.957 47.7708C195.949 47.59 195.986 47.4102 196.066 47.2482C196.147 47.0862 196.267 46.9473 196.415 46.8446C196.56 46.7441 196.722 46.6701 196.892 46.626C197.072 46.5781 197.257 46.5542 197.445 46.5551C197.737 46.5545 198.024 46.62 198.288 46.7468C198.545 46.8636 198.76 47.0571 198.903 47.301L198.42 47.6481Z" fill="#736E91"/>
</g>
<defs>
<clipPath id="clip0_41_880">
<rect width="203" height="51" fill="white"/>
</clipPath>
</defs>
</svg>
