<svg width="260" height="70" viewBox="0 0 260 70" fill="none" xmlns="http://www.w3.org/2000/svg">
<path d="M32.1923 44.4588H29.7597V9.41725H32.1923V44.4588Z" fill="#736E91"/>
<path d="M50.1585 44.875C47.7068 44.875 45.7339 44.6583 44.2393 44.2249C42.9157 43.8643 41.6386 43.3495 40.434 42.6909L41.1595 40.6642C42.401 41.2774 43.6975 41.7711 45.0318 42.1388C46.4473 42.5376 48.1562 42.7364 50.1585 42.735C51.3634 42.7445 52.5644 42.5963 53.731 42.294C54.7522 42.0389 55.7115 41.5791 56.5512 40.9422C57.3361 40.326 57.9658 39.5332 58.3899 38.6278C58.8393 37.6921 59.064 36.566 59.064 35.2494C59.064 33.8968 58.8221 32.8052 58.3384 31.9743C57.8549 31.1423 57.1807 30.4382 56.3717 29.9207C55.4836 29.3559 54.5259 28.9098 53.5229 28.5937C52.4536 28.2486 51.3494 27.885 50.2101 27.5028C49.0352 27.1193 47.8615 26.6769 46.6891 26.1759C45.5603 25.6984 44.5012 25.0695 43.5406 24.3063C42.5974 23.557 41.8175 22.6211 41.2492 21.5567C40.6611 20.465 40.3678 19.1567 40.369 17.6317C40.3641 16.4888 40.5579 15.3539 40.9418 14.278C41.3201 13.2228 41.9502 12.2767 42.7768 11.5226C43.7235 10.6851 44.8345 10.0561 46.038 9.67612C47.367 9.22743 48.9632 9.00244 50.8268 9.00117C52.4789 8.98232 54.1255 9.19202 55.7206 9.62434C56.9978 9.96742 58.2374 10.4383 59.421 11.0298L58.7489 12.8495C57.5597 12.2878 56.3087 11.8688 55.0218 11.6012C53.6616 11.2954 52.2723 11.1385 50.8783 11.1334C47.9799 11.1334 45.8923 11.7399 44.6156 12.9531C43.3388 14.1662 42.7023 15.7775 42.7061 17.787C42.7061 18.9375 42.9047 19.8994 43.3019 20.6728C43.7087 21.4639 44.2829 22.1563 44.984 22.7014C45.779 23.3135 46.6492 23.82 47.5731 24.2085C48.5737 24.6419 49.6959 25.0664 50.9395 25.4817C52.2837 25.9343 53.5866 26.4021 54.848 26.8854C56.0348 27.3338 57.1577 27.9372 58.1876 28.6801C59.1411 29.3787 59.9353 30.2737 60.517 31.3051C61.1038 32.3444 61.3972 33.6617 61.3972 35.257C61.4243 36.6767 61.1504 38.0859 60.5933 39.391C60.079 40.5607 59.2989 41.5931 58.3155 42.4052C57.2674 43.2525 56.0602 43.8792 54.7659 44.2479C53.2685 44.6802 51.7165 44.8914 50.1585 44.875Z" fill="#736E91"/>
<path d="M89.245 44.4591H91.9373L82.8734 29.5374C85.5656 29.0887 87.7144 28.0059 89.3195 26.2892C90.9247 24.5725 91.7279 22.3136 91.7291 19.5129C91.7449 18.108 91.4901 16.7134 90.9788 15.4057C90.5004 14.1906 89.7573 13.0985 88.804 12.2093C87.7935 11.2889 86.6036 10.5895 85.3097 10.1557C83.7916 9.64826 82.1991 9.40192 80.5993 9.42702H68.4326V44.4591H70.8651V11.6014H80.6031C83.4672 11.6014 85.6311 12.3045 87.0951 13.7106C88.559 15.1168 89.2928 17.0508 89.2966 19.5129C89.2966 22.0439 88.494 24.0195 86.8888 25.4398C85.2837 26.86 83.0974 27.5688 80.33 27.5662V29.7541" fill="#736E91"/>
<path d="M102.301 32.4981C102.335 32.4117 102.37 32.3254 102.41 32.2409L102.301 32.4981Z" fill="#736E91"/>
<path d="M110.988 9.41725H108.659L95.4057 44.4588H97.8878L107.21 19.5127L109.745 12.0346H109.85L112.333 19.4168L117.148 32.051C117.195 32.1494 117.236 32.2504 117.27 32.3539C117.341 32.5457 117.41 32.747 117.488 32.9292C117.583 33.1554 117.692 33.374 117.778 33.6041C117.822 33.7191 117.862 33.8361 117.908 33.9511C117.931 34.0087 117.948 34.0663 117.965 34.1218H117.982L121.761 44.4762H124.243L110.988 9.41725Z" fill="#736E91"/>
<path d="M132.529 11.607V11.6012H150.492V9.41725H130.094V11.607H132.529Z" fill="#736E91"/>
<path d="M132.529 28.0033V27.9956H150.492V25.8135H130.094V28.0033H132.529Z" fill="#736E91"/>
<path d="M132.529 42.3287V42.3268H130.094V44.4591H150.804V42.3287H132.529Z" fill="#736E91"/>
<path d="M157.949 9.41725H160.382V42.2231H177.725V44.4588H157.949V9.41725Z" fill="#736E91"/>
<path d="M201.067 44.4588H198.632V9.41725H201.067V44.4588Z" fill="#736E91"/>
<path d="M230.948 11.6511L219.973 11.5993V44.4588H217.539V11.6012L206.563 11.653V9.41725H230.948V11.6511Z" fill="#736E91"/>
<path d="M33.1175 54.656C32.897 54.4228 32.6303 54.2386 32.3346 54.1153C32.0041 53.9817 31.6502 53.9165 31.294 53.9235C30.9188 53.9168 30.5466 53.9928 30.2037 54.1459C29.8907 54.2869 29.6104 54.4919 29.3808 54.748C29.1526 55.0045 28.9757 55.3027 28.8595 55.6262C28.6147 56.3078 28.6147 57.0538 28.8595 57.7354C28.9749 58.0581 29.1519 58.3552 29.3808 58.6097C29.6116 58.8635 29.8916 59.067 30.2037 59.208C30.5469 59.3603 30.9189 59.4362 31.294 59.4304C31.6235 59.434 31.9521 59.3947 32.2716 59.3134C32.5262 59.2547 32.7698 59.1557 32.9934 59.0201V57.0949H31.525V56.5198H33.6349V59.3787C33.2887 59.588 32.9136 59.7451 32.5217 59.8446C32.1172 59.9468 31.7016 59.9977 31.2845 59.996C30.8332 60.001 30.3855 59.9164 29.967 59.7468C29.5774 59.5885 29.2235 59.3531 28.9264 59.0546C28.6322 58.753 28.4006 58.3959 28.2447 58.0039C28.0774 57.5766 27.9944 57.1207 28.0003 56.6617C27.9947 56.2057 28.0797 55.7534 28.2504 55.3309C28.4068 54.9382 28.6407 54.5814 28.938 54.2819C29.2353 53.9823 29.5898 53.7463 29.9803 53.5879C30.3942 53.4182 30.8375 53.3328 31.2845 53.3368C31.7341 53.3274 32.1814 53.4048 32.6019 53.5649C32.9598 53.7074 33.2847 53.9222 33.5566 54.1957L33.1175 54.656Z" fill="#736E91"/>
<path d="M36.6957 56.1362C36.6957 55.956 36.6804 55.795 36.669 55.6531H37.2418C37.2532 55.7662 37.2628 55.8909 37.2685 56.0366C37.2742 56.1823 37.2781 56.2858 37.2781 56.3759H37.2952C37.4135 56.1308 37.5989 55.9245 37.8299 55.7815C38.0689 55.6292 38.3468 55.5499 38.6299 55.5534C38.7082 55.5534 38.777 55.5534 38.84 55.5534C38.9044 55.5596 38.9683 55.5712 39.0309 55.5879L38.9507 56.1631C38.8925 56.1472 38.8331 56.1357 38.7731 56.1286C38.6904 56.1156 38.6067 56.1092 38.523 56.1095C38.3646 56.1095 38.2078 56.1401 38.0609 56.1996C37.9133 56.2611 37.7824 56.357 37.679 56.4795C37.5603 56.625 37.4697 56.7915 37.4117 56.9704C37.3398 57.2024 37.3057 57.4446 37.3105 57.6875V59.8274H36.7052V56.5677C36.7052 56.4642 36.7014 56.328 36.6957 56.1362Z" fill="#736E91"/>
<path d="M45.3548 57.7487C45.3585 58.0483 45.3027 58.3456 45.1906 58.6231C45.0863 58.8845 44.9304 59.1219 44.7324 59.3211C44.5324 59.5218 44.2932 59.6786 44.0297 59.7813C43.7432 59.8935 43.4379 59.9494 43.1304 59.9462C42.826 59.9489 42.524 59.8929 42.2406 59.7813C41.9771 59.6786 41.7378 59.5218 41.538 59.3211C41.3399 59.1219 41.1841 58.8845 41.0797 58.6231C40.8581 58.0609 40.8581 57.4349 41.0797 56.8726C41.1846 56.6112 41.3418 56.3744 41.5415 56.1765C41.7412 55.9786 41.9791 55.824 42.2406 55.722C42.524 55.6104 42.826 55.5544 43.1304 55.5571C43.4379 55.5539 43.7432 55.6099 44.0297 55.722C44.2912 55.824 44.5292 55.9786 44.7289 56.1765C44.9285 56.3744 45.0857 56.6112 45.1906 56.8726C45.3027 57.1508 45.3585 57.4486 45.3548 57.7487ZM44.7152 57.7487C44.7163 57.5248 44.6787 57.3023 44.6045 57.0911C44.5344 56.8932 44.4268 56.7108 44.2875 56.5542C44.1486 56.4001 43.9788 56.2772 43.7891 56.1937C43.5818 56.1017 43.3571 56.0559 43.1304 56.0595C42.9055 56.0554 42.6825 56.1012 42.4774 56.1937C42.2894 56.2781 42.121 56.401 41.9829 56.5542C41.8436 56.7108 41.7359 56.8932 41.6658 57.0911C41.5182 57.5164 41.5182 57.9793 41.6658 58.4046C41.7354 58.6027 41.8431 58.7851 41.9829 58.9415C42.1207 59.0941 42.2893 59.2157 42.4774 59.2981C42.6833 59.3875 42.906 59.432 43.1304 59.4285C43.3566 59.4314 43.5809 59.3871 43.7891 59.2981C43.9789 59.2167 44.149 59.095 44.2875 58.9415C44.4271 58.7851 44.5348 58.6027 44.6045 58.4046C44.6786 58.194 44.716 57.9721 44.7152 57.7487Z" fill="#736E91"/>
<path d="M48.2032 55.6568L49.2096 59.0528H49.2267L50.3475 55.6568H50.9356L52.0812 59.0528H52.0985L53.0875 55.6568H53.7291L52.4115 59.8388H51.7509L50.6378 56.4527H50.6206L49.5265 59.8388H48.8677L47.5503 55.6568H48.2032Z" fill="#736E91"/>
<path d="M61.9087 59.839H61.269V57.1142L58.9109 53.5113H59.711L61.607 56.5793L63.5164 53.5113H64.2648L61.9087 57.1142V59.839Z" fill="#736E91"/>
<path d="M69.8764 57.7487C69.8791 58.0482 69.8233 58.3453 69.7122 58.6231C69.6064 58.8837 69.4507 59.1209 69.2539 59.3211C69.0546 59.5203 68.8168 59.6762 68.5551 59.7793C68.2685 59.8915 67.9633 59.9475 67.6557 59.9442C67.3514 59.947 67.0493 59.891 66.766 59.7793C66.5022 59.6761 66.2623 59.5195 66.0614 59.3192C65.8646 59.1189 65.7089 58.8817 65.6032 58.6212C65.3843 58.0584 65.3843 57.4335 65.6032 56.8706C65.7082 56.6091 65.8655 56.372 66.0655 56.174C66.2656 55.9761 66.504 55.8216 66.766 55.7201C67.0493 55.6084 67.3514 55.5525 67.6557 55.5552C67.9633 55.552 68.2685 55.608 68.5551 55.7201C68.8175 55.8248 69.0565 55.9813 69.2577 56.1803C69.4545 56.3806 69.6103 56.6177 69.716 56.8782C69.8251 57.1552 69.8796 57.4509 69.8764 57.7487ZM69.2367 57.7487C69.2388 57.5262 69.202 57.3048 69.1279 57.0949C69.0579 56.8975 68.9509 56.7153 68.8128 56.5581C68.6732 56.4047 68.5036 56.282 68.3144 56.1976C68.1072 56.1055 67.8824 56.0597 67.6557 56.0634C67.4303 56.0589 67.2066 56.1048 67.0008 56.1976C66.8135 56.282 66.6457 56.4048 66.5082 56.5581C66.3689 56.7147 66.2613 56.897 66.1913 57.0949C66.0436 57.5202 66.0436 57.9831 66.1913 58.4083C66.2609 58.6065 66.3686 58.7889 66.5082 58.9453C66.6453 59.0979 66.8133 59.2195 67.0008 59.302C67.2075 59.3914 67.4307 59.4358 67.6557 59.4323C67.8819 59.4353 68.1064 59.3908 68.3144 59.302C68.5038 59.2196 68.6735 59.0981 68.8128 58.9453C68.9513 58.7884 69.0582 58.606 69.1279 58.4083C69.2027 58.1968 69.2396 57.9734 69.2367 57.7487Z" fill="#736E91"/>
<path d="M75.6711 59.8388C75.6577 59.7257 75.6501 59.6011 75.6443 59.465C75.6386 59.3288 75.6443 59.2138 75.6443 59.1237H75.6195C75.4932 59.3758 75.2934 59.583 75.0467 59.718C74.7898 59.868 74.4979 59.9467 74.2008 59.9463C73.6725 59.9463 73.2767 59.7884 73.0132 59.4727C72.7347 59.1178 72.5937 58.6737 72.616 58.2225V55.6568H73.2213V57.9712C73.2192 58.1719 73.2371 58.3724 73.2748 58.5695C73.3069 58.7343 73.3719 58.8908 73.4657 59.0298C73.5524 59.159 73.6717 59.2628 73.8113 59.3308C73.9837 59.4074 74.1709 59.4441 74.3593 59.4381C74.5247 59.4378 74.688 59.4021 74.8384 59.3333C74.9889 59.2645 75.1231 59.1643 75.2319 59.0393C75.3596 58.8899 75.4562 58.7165 75.5164 58.5293C75.5919 58.2947 75.6281 58.0491 75.6233 57.8026V55.6568H76.2286V58.9165C76.2286 59.0298 76.2286 59.1754 76.2286 59.3557C76.2286 59.5359 76.2419 59.695 76.2554 59.8369L75.6711 59.8388Z" fill="#736E91"/>
<path d="M79.272 56.1362C79.272 55.956 79.2587 55.795 79.2453 55.6531H79.8181C79.8315 55.7662 79.8392 55.8908 79.8448 56.0365C79.8506 56.1822 79.8544 56.2858 79.8544 56.3759H79.8716C79.995 56.1266 80.1858 55.9172 80.4222 55.7718C80.6585 55.6262 80.931 55.5505 81.2082 55.5534C81.2846 55.5534 81.3534 55.5534 81.4163 55.5534C81.4808 55.5594 81.5447 55.5709 81.6072 55.5878L81.527 56.1631C81.469 56.1468 81.4095 56.1352 81.3495 56.1285C81.2674 56.1155 81.1844 56.1092 81.1013 56.1094C80.9423 56.1095 80.7849 56.1401 80.6373 56.1995C80.4899 56.2616 80.3591 56.3575 80.2554 56.4795C80.1366 56.6246 80.0465 56.7912 79.99 56.9704C79.9165 57.202 79.8816 57.4443 79.8869 57.6874V59.8274H79.2816V56.5677C79.2816 56.4641 79.2778 56.328 79.272 56.1362Z" fill="#736E91"/>
<path d="M89.4926 59.839H88.8511V54.0865H86.7507V53.5113H91.6006V54.0865H89.5003L89.4926 59.839Z" fill="#736E91"/>
<path d="M96.9134 57.6223V57.7565C96.916 57.8076 96.916 57.8588 96.9134 57.9098H93.4516C93.4566 58.1121 93.4986 58.3117 93.5758 58.4984C93.6494 58.6794 93.7585 58.8438 93.8965 58.9817C94.0349 59.1201 94.1982 59.2307 94.3777 59.3076C94.6042 59.4016 94.8493 59.4416 95.0936 59.4247C95.3381 59.4077 95.5753 59.3342 95.7869 59.2098C95.9967 59.0831 96.1748 58.91 96.3081 58.7037L96.7625 59.0623C96.5463 59.3514 96.2641 59.5842 95.9396 59.741C95.6362 59.8791 95.3065 59.9491 94.9734 59.9462C94.679 59.9488 94.387 59.8927 94.1142 59.7813C93.8578 59.6768 93.6257 59.52 93.4325 59.3211C93.2445 59.1197 93.0957 58.885 92.9934 58.6289C92.8822 58.351 92.8265 58.054 92.8292 57.7545C92.8261 57.4548 92.8806 57.1573 92.9895 56.8782C93.0905 56.6184 93.2416 56.3812 93.4345 56.1803C93.6282 55.9795 93.8608 55.8204 94.1178 55.7129C94.3749 55.6055 94.6511 55.5518 94.9296 55.5552C95.2255 55.5495 95.5194 55.6056 95.7925 55.7201C96.0299 55.8219 96.2423 55.9743 96.4151 56.1668C96.5848 56.3583 96.7147 56.5819 96.7969 56.8245C96.8795 57.0821 96.9188 57.3517 96.9134 57.6223ZM96.2986 57.4305C96.2925 57.0684 96.1569 56.7207 95.9167 56.4506C95.7872 56.3181 95.6308 56.2152 95.4581 56.149C95.2855 56.0829 95.1006 56.055 94.9161 56.0671C94.7234 56.065 94.5322 56.1028 94.3548 56.1784C94.0177 56.3227 93.7457 56.587 93.591 56.9204C93.5155 57.082 93.4702 57.2562 93.4574 57.4344L96.2986 57.4305Z" fill="#736E91"/>
<path d="M102.254 57.1332C102.265 56.9865 102.245 56.8389 102.196 56.7003C102.147 56.5616 102.069 56.4348 101.968 56.3279C101.735 56.137 101.439 56.0424 101.139 56.0634C100.902 56.0608 100.666 56.1064 100.446 56.1976C100.243 56.2788 100.058 56.4001 99.902 56.5542L99.564 56.1515C99.7599 55.964 99.9919 55.8185 100.246 55.7239C100.55 55.6063 100.874 55.5484 101.2 55.5532C101.415 55.5513 101.628 55.5831 101.832 55.6472C102.021 55.7055 102.197 55.8013 102.348 55.9291C102.499 56.0574 102.618 56.2196 102.695 56.4027C102.782 56.6148 102.824 56.8426 102.82 57.0719V58.905C102.82 59.066 102.825 59.2328 102.837 59.4054C102.847 59.5521 102.864 59.698 102.89 59.8427H102.35C102.333 59.743 102.317 59.6317 102.306 59.5129C102.293 59.397 102.287 59.2804 102.287 59.1638H102.27C102.109 59.4171 101.887 59.625 101.624 59.7679C101.354 59.8992 101.057 59.965 100.757 59.9597C100.59 59.9593 100.424 59.9368 100.263 59.8926C100.096 59.8497 99.9397 59.7756 99.8009 59.6739C99.6582 59.5686 99.5398 59.434 99.4533 59.2789C99.3566 59.097 99.3092 58.8926 99.3158 58.6865C99.3001 58.4092 99.3872 58.136 99.5602 57.9194C99.7361 57.7227 99.9618 57.5776 100.213 57.4995C100.518 57.3998 100.833 57.3392 101.153 57.3192C101.507 57.2925 101.873 57.279 102.253 57.279L102.254 57.1332ZM102.077 57.7487C101.827 57.7487 101.577 57.7584 101.325 57.7795C101.092 57.7971 100.863 57.839 100.639 57.9041C100.453 57.9569 100.281 58.0499 100.135 58.1763C100.071 58.237 100.021 58.3107 99.9883 58.3924C99.9553 58.4741 99.9403 58.5619 99.9441 58.65C99.9385 58.7829 99.9674 58.9152 100.028 59.0335C100.082 59.1329 100.16 59.2173 100.255 59.2789C100.351 59.3423 100.458 59.3878 100.57 59.4132C100.686 59.44 100.805 59.4535 100.924 59.4534C101.12 59.4577 101.315 59.4197 101.496 59.3422C101.656 59.2722 101.799 59.1681 101.915 59.0373C102.028 58.9086 102.116 58.7588 102.172 58.5962C102.232 58.427 102.262 58.2487 102.262 58.069V57.7565L102.077 57.7487Z" fill="#736E91"/>
<path d="M106.995 55.7774C107.242 55.6253 107.528 55.5462 107.818 55.5492C107.936 55.5495 108.054 55.5616 108.169 55.5857C108.295 55.6103 108.416 55.6571 108.526 55.7237C108.646 55.7968 108.754 55.8887 108.845 55.996C108.954 56.126 109.04 56.2739 109.099 56.4332C109.228 56.1633 109.431 55.936 109.683 55.7774C109.948 55.6206 110.252 55.5415 110.56 55.5492C111.087 55.5492 111.484 55.7065 111.747 56.0228C112.024 56.3791 112.165 56.8235 112.143 57.2749V59.8386H111.537V57.5242C111.555 57.1536 111.47 56.7854 111.293 56.46C111.203 56.3237 111.079 56.2144 110.932 56.1438C110.785 56.0733 110.622 56.0441 110.46 56.0593C110.267 56.0526 110.074 56.099 109.905 56.1935C109.756 56.2796 109.631 56.4006 109.54 56.5463C109.449 56.6992 109.385 56.8664 109.349 57.041C109.307 57.2298 109.286 57.4227 109.286 57.6163V59.8405H108.671V57.3996C108.673 57.2139 108.659 57.0284 108.627 56.8455C108.604 56.6949 108.551 56.5502 108.473 56.4198C108.397 56.3035 108.291 56.2112 108.165 56.1532C108.008 56.0849 107.838 56.0528 107.667 56.0593C107.518 56.0606 107.371 56.094 107.236 56.1571C107.084 56.2262 106.951 56.3285 106.844 56.4562C106.719 56.6066 106.624 56.7797 106.563 56.9662C106.488 57.2015 106.452 57.4477 106.456 57.6949V59.8386H105.851V56.5789C105.851 56.4658 105.851 56.3201 105.842 56.1417C105.832 55.9634 105.826 55.8004 105.815 55.6585H106.388C106.399 55.7716 106.409 55.8963 106.414 56.0421C106.42 56.1877 106.424 56.2913 106.424 56.3814H106.441C106.562 56.1294 106.755 55.9193 106.995 55.7774Z" fill="#736E91"/>
<path d="M116.014 59.4115C116.014 59.536 115.966 59.6558 115.88 59.7453C115.835 59.7921 115.782 59.8294 115.722 59.8548C115.663 59.8803 115.598 59.8934 115.534 59.8934C115.469 59.8934 115.405 59.8803 115.345 59.8548C115.286 59.8294 115.232 59.7921 115.187 59.7453C115.102 59.655 115.054 59.5351 115.054 59.4104C115.054 59.2858 115.102 59.1659 115.187 59.0756C115.232 59.0288 115.286 58.9916 115.345 58.9661C115.405 58.9407 115.469 58.9275 115.534 58.9275C115.598 58.9275 115.663 58.9407 115.722 58.9661C115.782 58.9916 115.835 59.0288 115.88 59.0756C115.967 59.1657 116.015 59.2862 116.014 59.4115Z" fill="#736E91"/>
<path d="M125.476 54.5313C125.338 54.3392 125.159 54.1811 124.951 54.0693C124.711 53.948 124.444 53.8887 124.176 53.8967C124.016 53.8973 123.857 53.9211 123.704 53.9676C123.547 54.0138 123.4 54.0879 123.269 54.1862C123.137 54.2849 123.03 54.4121 122.954 54.5582C122.87 54.7209 122.829 54.9024 122.833 55.0855C122.827 55.2595 122.866 55.4322 122.948 55.5859C123.026 55.7171 123.13 55.8308 123.253 55.9195C123.387 56.0159 123.534 56.0927 123.689 56.1478C123.851 56.2072 124.021 56.2667 124.199 56.328C124.418 56.3989 124.638 56.4757 124.861 56.56C125.075 56.6389 125.276 56.7487 125.459 56.8859C125.638 57.0223 125.787 57.1954 125.894 57.3941C126.015 57.6364 126.074 57.9055 126.064 58.1765C126.072 58.4423 126.018 58.7065 125.906 58.9475C125.793 59.1884 125.626 59.3992 125.417 59.5628C125.221 59.7139 124.998 59.8258 124.76 59.8926C124.518 59.9642 124.267 60.0003 124.015 60C123.823 60 123.631 59.9807 123.442 59.9424C123.256 59.9043 123.074 59.8459 122.9 59.7679C122.728 59.6904 122.566 59.5912 122.419 59.4727C122.274 59.3535 122.146 59.2156 122.037 59.0623L122.589 58.6501C122.73 58.8858 122.927 59.0834 123.162 59.2253C123.423 59.3823 123.724 59.4614 124.029 59.4535C124.195 59.4525 124.36 59.4273 124.519 59.3787C124.682 59.3288 124.834 59.2495 124.968 59.1448C125.102 59.0403 125.214 58.9098 125.296 58.7613C125.382 58.5939 125.426 58.4086 125.426 58.2206C125.426 58.0325 125.382 57.8472 125.296 57.6798C125.211 57.534 125.094 57.4089 124.955 57.3135C124.803 57.211 124.639 57.1285 124.466 57.0682C124.275 57.0029 124.084 56.9358 123.893 56.8764C123.702 56.8169 123.481 56.7365 123.278 56.6539C123.082 56.5728 122.899 56.4623 122.736 56.3261C122.576 56.19 122.445 56.0213 122.354 55.8314C122.252 55.5918 122.202 55.3328 122.207 55.0722C122.213 54.8114 122.275 54.555 122.388 54.3204C122.505 54.1054 122.668 53.9194 122.866 53.7758C123.061 53.6324 123.281 53.5264 123.515 53.4633C123.744 53.3978 123.98 53.3642 124.218 53.3637C124.596 53.3533 124.971 53.4314 125.314 53.5918C125.581 53.7157 125.816 53.9009 125.999 54.1325L125.476 54.5313Z" fill="#736E91"/>
<path d="M131.875 56.6138C131.766 56.4445 131.615 56.3069 131.436 56.2149C131.243 56.1114 131.027 56.058 130.808 56.0596C130.582 56.0561 130.358 56.0999 130.149 56.1882C129.959 56.2709 129.788 56.3931 129.647 56.5466C129.506 56.7017 129.397 56.8836 129.326 57.0817C129.251 57.2959 129.213 57.5217 129.216 57.7489C129.213 57.9743 129.251 58.1982 129.326 58.4104C129.397 58.6059 129.504 58.7862 129.641 58.9416C129.781 59.0944 129.951 59.2158 130.14 59.2982C130.348 59.3872 130.572 59.4315 130.799 59.4286C131.017 59.4389 131.235 59.3946 131.432 59.2995C131.629 59.2045 131.8 59.0617 131.929 58.884L132.383 59.2234C132.205 59.4441 131.982 59.624 131.728 59.7508C131.438 59.887 131.119 59.9527 130.799 59.9425C130.485 59.9467 130.174 59.8907 129.882 59.7776C129.62 59.6752 129.381 59.5185 129.183 59.3174C128.989 59.1171 128.836 58.8798 128.734 58.6195C128.521 58.0557 128.521 57.4326 128.734 56.8688C128.836 56.6084 128.989 56.3711 129.183 56.1708C129.382 55.9711 129.62 55.8145 129.882 55.7107C130.174 55.5975 130.485 55.5415 130.799 55.5458C131.092 55.5491 131.381 55.6109 131.65 55.7279C131.926 55.8425 132.167 56.0291 132.347 56.2686L131.875 56.6138Z" fill="#736E91"/>
<path d="M137.417 57.1333C137.429 56.9859 137.41 56.8377 137.361 56.6983C137.312 56.5589 137.234 56.4314 137.132 56.3241C136.901 56.1332 136.605 56.0386 136.306 56.0595C136.067 56.057 135.831 56.1027 135.611 56.1938C135.408 56.2745 135.223 56.3959 135.068 56.5505L134.73 56.1478C134.926 55.9606 135.157 55.8152 135.41 55.7202C135.715 55.6028 136.039 55.5449 136.365 55.5495C136.579 55.5475 136.792 55.5792 136.997 55.6435C137.187 55.7013 137.363 55.7971 137.514 55.9253C137.665 56.0537 137.783 56.216 137.86 56.3989C137.948 56.6108 137.991 56.8387 137.986 57.0682V58.9012C137.986 59.0623 137.992 59.2291 138.003 59.4017C138.011 59.5485 138.029 59.6946 138.057 59.8388H137.514C137.495 59.7392 137.482 59.6279 137.468 59.509C137.455 59.3902 137.451 59.2732 137.451 59.1601H137.434C137.273 59.4129 137.051 59.6207 136.789 59.764C136.518 59.8952 136.22 59.9609 135.92 59.9558C135.753 59.9557 135.588 59.9331 135.427 59.8887C135.26 59.846 135.103 59.7719 134.963 59.6701C134.821 59.5643 134.703 59.4298 134.616 59.2751C134.519 59.0931 134.472 58.8889 134.478 58.6826C134.464 58.4055 134.551 58.1326 134.723 57.9157C134.899 57.7124 135.126 57.5613 135.381 57.4784C135.686 57.3787 136.001 57.3182 136.321 57.2982C136.674 57.2714 137.039 57.258 137.419 57.258L137.417 57.1333ZM137.239 57.7489C136.991 57.7489 136.739 57.7584 136.487 57.7796C136.255 57.7974 136.025 57.8392 135.802 57.9041C135.616 57.9566 135.445 58.0495 135.299 58.1765C135.236 58.2371 135.186 58.3107 135.153 58.3924C135.12 58.4741 135.105 58.562 135.108 58.6501C135.103 58.7833 135.132 58.9156 135.194 59.0335C135.248 59.1333 135.326 59.2179 135.422 59.279C135.517 59.3429 135.624 59.3885 135.737 59.4132C135.852 59.4399 135.97 59.4534 136.088 59.4535C136.285 59.4582 136.48 59.4202 136.661 59.3422C136.821 59.2717 136.964 59.1678 137.081 59.0373C137.195 58.9087 137.282 58.7589 137.339 58.5964C137.398 58.4269 137.428 58.2485 137.426 58.069V57.7566L137.239 57.7489Z" fill="#736E91"/>
<path d="M141.636 59.8387H141.03V53.0816H141.636V59.8387Z" fill="#736E91"/>
<path d="M148.515 57.6224V57.7567C148.518 57.8077 148.518 57.8589 148.515 57.91H145.063C145.068 58.1122 145.11 58.3118 145.187 58.4987C145.261 58.6797 145.37 58.844 145.508 58.9819C145.646 59.1197 145.809 59.2304 145.987 59.3079C146.214 59.4018 146.46 59.4418 146.704 59.4249C146.949 59.4079 147.187 59.3344 147.398 59.2101C147.608 59.0832 147.787 58.9102 147.92 58.7038L148.374 59.0624C148.157 59.3512 147.875 59.584 147.551 59.7411C147.248 59.8793 146.919 59.9493 146.585 59.9464C146.29 59.949 145.998 59.8929 145.725 59.7815C145.469 59.677 145.237 59.5203 145.044 59.3212C144.852 59.1191 144.7 58.8822 144.595 58.6233C144.484 58.3457 144.427 58.0485 144.431 57.749C144.428 57.4492 144.483 57.1517 144.592 56.8727C144.692 56.6128 144.843 56.3756 145.036 56.1748C145.23 55.9739 145.463 55.8148 145.72 55.7074C145.977 55.5999 146.253 55.5462 146.532 55.5496C146.827 55.5441 147.122 55.6003 147.394 55.7145C147.631 55.8168 147.843 55.9692 148.017 56.1613C148.187 56.3527 148.317 56.5763 148.399 56.819C148.482 57.0784 148.521 57.3499 148.515 57.6224ZM147.901 57.4306C147.894 57.0686 147.759 56.7208 147.519 56.4509C147.389 56.3184 147.233 56.2155 147.061 56.1493C146.887 56.0831 146.702 56.0551 146.518 56.0673C146.325 56.0651 146.135 56.1029 145.957 56.1785C145.619 56.3229 145.348 56.5872 145.193 56.9206C145.117 57.0822 145.072 57.2564 145.059 57.4345L147.901 57.4306Z" fill="#736E91"/>
<path d="M156.958 59.839H156.316V57.1142L153.958 53.5113H154.758L156.654 56.5793L158.563 53.5113H159.312L156.958 57.1142V59.839Z" fill="#736E91"/>
<path d="M164.931 57.7487C164.935 58.0483 164.878 58.3456 164.767 58.6231C164.662 58.8842 164.506 59.1216 164.309 59.3211C164.108 59.5218 163.869 59.6786 163.606 59.7813C163.32 59.8935 163.014 59.9494 162.706 59.9462C162.402 59.9489 162.1 59.8929 161.816 59.7813C161.554 59.6786 161.313 59.5218 161.114 59.3211C160.917 59.1219 160.76 58.8845 160.656 58.6231C160.434 58.0609 160.434 57.4349 160.656 56.8726C160.761 56.6112 160.918 56.3744 161.117 56.1765C161.317 55.9786 161.555 55.824 161.816 55.722C162.1 55.6104 162.402 55.5544 162.706 55.5571C163.014 55.5539 163.32 55.6099 163.606 55.722C163.868 55.824 164.106 55.9786 164.305 56.1765C164.505 56.3744 164.662 56.6112 164.767 56.8726C164.878 57.1508 164.935 57.4486 164.931 57.7487ZM164.291 57.7487C164.293 57.5246 164.255 57.302 164.179 57.0911C164.109 56.8933 164.002 56.711 163.863 56.5542C163.724 56.4009 163.554 56.2781 163.365 56.1937C163.157 56.1017 162.933 56.0559 162.706 56.0595C162.481 56.0555 162.257 56.1013 162.051 56.1937C161.864 56.2782 161.697 56.401 161.559 56.5542C161.419 56.7108 161.312 56.8932 161.242 57.0911C161.095 57.5164 161.095 57.9793 161.242 58.4046C161.311 58.6027 161.419 58.7851 161.559 58.9415C161.696 59.0941 161.864 59.2156 162.051 59.2981C162.259 59.3874 162.482 59.4319 162.706 59.4285C162.933 59.4314 163.157 59.3871 163.365 59.2981C163.554 59.2157 163.725 59.0942 163.863 58.9415C164.003 58.7851 164.109 58.6026 164.179 58.4046C164.255 58.1944 164.292 57.9724 164.291 57.7487Z" fill="#736E91"/>
<path d="M170.723 59.8388C170.711 59.7257 170.701 59.6011 170.695 59.465C170.69 59.3288 170.695 59.2138 170.695 59.1237H170.679C170.553 59.3766 170.354 59.5842 170.106 59.718C169.849 59.868 169.558 59.9467 169.26 59.9463C168.732 59.9463 168.336 59.7884 168.072 59.4727C167.794 59.1178 167.653 58.6737 167.675 58.2225V55.6568H168.281V57.9712C168.28 58.1719 168.297 58.3723 168.334 58.5695C168.367 58.7343 168.431 58.8908 168.525 59.0298C168.612 59.1594 168.732 59.2633 168.873 59.3308C169.044 59.4076 169.23 59.4443 169.419 59.4381C169.583 59.4378 169.747 59.4021 169.898 59.3333C170.048 59.2645 170.182 59.1643 170.291 59.0393C170.419 58.8899 170.515 58.7165 170.576 58.5293C170.651 58.2947 170.688 58.0491 170.683 57.8026V55.6568H171.288V58.9165C171.288 59.0298 171.288 59.1754 171.288 59.3557C171.288 59.5359 171.301 59.695 171.315 59.8369L170.723 59.8388Z" fill="#736E91"/>
<path d="M174.333 56.1362C174.333 55.956 174.319 55.795 174.308 55.6531H174.881C174.892 55.7662 174.9 55.8908 174.908 56.0365C174.916 56.1822 174.908 56.2858 174.908 56.3759H174.925C175.048 56.1266 175.239 55.9172 175.475 55.7718C175.712 55.6262 175.984 55.5505 176.261 55.5534C176.338 55.5534 176.409 55.5534 176.47 55.5534C176.534 55.5594 176.598 55.5709 176.66 55.5878L176.58 56.1631C176.522 56.1468 176.463 56.1352 176.402 56.1285C176.321 56.1155 176.237 56.1092 176.154 56.1094C175.995 56.1095 175.838 56.1401 175.69 56.1995C175.543 56.2609 175.412 56.3569 175.308 56.4795C175.189 56.624 175.097 56.7907 175.041 56.9704C174.967 57.202 174.933 57.4443 174.938 57.6874V59.8274H174.333V56.5677C174.333 56.4641 174.333 56.328 174.333 56.1362Z" fill="#736E91"/>
<path d="M182.737 53.5113H184.616C184.858 53.5114 185.099 53.5372 185.336 53.5879C185.569 53.6332 185.79 53.7209 185.99 53.8468C186.185 53.9717 186.348 54.142 186.463 54.3434C186.595 54.5836 186.661 54.8551 186.654 55.1296C186.658 55.4471 186.55 55.7559 186.348 56.0001C186.14 56.2512 185.853 56.4231 185.535 56.4872V56.5064C185.918 56.5425 186.277 56.7113 186.55 56.9837C186.688 57.1305 186.797 57.3041 186.867 57.4941C186.935 57.684 186.966 57.8862 186.955 58.0883C186.959 58.3356 186.904 58.5802 186.793 58.8016C186.684 59.0231 186.524 59.2151 186.325 59.3615C186.103 59.5234 185.853 59.643 185.588 59.7143C185.27 59.8017 184.94 59.8436 184.61 59.839H182.737V53.5113ZM183.378 56.282H184.67C184.827 56.282 184.983 56.264 185.138 56.2283C185.291 56.1917 185.438 56.1266 185.569 56.0366C185.701 55.9488 185.808 55.8304 185.883 55.6914C185.969 55.5291 186.011 55.3474 186.004 55.1642C186.01 54.9852 185.968 54.808 185.883 54.6502C185.804 54.5114 185.694 54.3936 185.56 54.307C185.412 54.2139 185.248 54.1489 185.078 54.1153C184.885 54.0761 184.689 54.0568 184.492 54.0577H183.378V56.282ZM183.378 59.2848H184.572C184.795 59.2863 185.017 59.2638 185.235 59.2177C185.431 59.1823 185.619 59.1128 185.792 59.0125C185.948 58.9163 186.078 58.785 186.174 58.629C186.304 58.384 186.347 58.1017 186.296 57.8288C186.245 57.5559 186.103 57.3086 185.893 57.1276C185.536 56.9015 185.117 56.7936 184.696 56.8188H183.389L183.378 59.2848Z" fill="#736E91"/>
<path d="M192.854 59.8388C192.843 59.7257 192.834 59.6011 192.827 59.465C192.821 59.3288 192.827 59.2138 192.827 59.1237H192.809C192.684 59.3766 192.483 59.5842 192.236 59.7181C191.979 59.8682 191.687 59.947 191.39 59.9463C190.862 59.9463 190.465 59.7891 190.203 59.4727C189.925 59.1171 189.784 58.6733 189.807 58.2225V55.6568H190.412V57.9712C190.41 58.1719 190.428 58.3724 190.465 58.5695C190.497 58.7345 190.561 58.8913 190.656 59.0298C190.744 59.159 190.864 59.2628 191.004 59.3308C191.176 59.4076 191.363 59.4442 191.553 59.4381C191.717 59.4375 191.88 59.4016 192.03 59.3328C192.181 59.2641 192.314 59.1641 192.423 59.0393C192.551 58.8896 192.648 58.7164 192.709 58.5293C192.784 58.2946 192.819 58.049 192.815 57.8026V55.6568H193.419V58.9165C193.419 59.0298 193.419 59.1754 193.429 59.3557C193.438 59.5359 193.444 59.695 193.455 59.8369L192.854 59.8388Z" fill="#736E91"/>
<path d="M198.689 56.6482C198.597 56.4713 198.456 56.3243 198.284 56.2244C198.097 56.1124 197.883 56.0553 197.665 56.0595C197.557 56.0596 197.45 56.0712 197.345 56.0941C197.243 56.1167 197.147 56.1563 197.06 56.211C196.983 56.265 196.917 56.3349 196.869 56.4162C196.818 56.5062 196.792 56.6082 196.794 56.7115C196.791 56.8013 196.811 56.8905 196.854 56.9697C196.896 57.0489 196.959 57.1153 197.035 57.1621C197.272 57.2955 197.531 57.3851 197.799 57.4267C198.192 57.4863 198.565 57.638 198.889 57.8697C199.004 57.9635 199.095 58.0829 199.156 58.2183C199.217 58.3537 199.246 58.5015 199.241 58.6501C199.25 58.8466 199.209 59.0424 199.122 59.2187C199.035 59.3949 198.903 59.5458 198.742 59.6567C198.59 59.7618 198.42 59.8373 198.24 59.8792C198.052 59.9249 197.86 59.9474 197.667 59.9463C197.35 59.9472 197.038 59.8818 196.748 59.7545C196.453 59.6219 196.199 59.4079 196.02 59.1371L196.5 58.7804C196.622 58.9792 196.792 59.1434 196.994 59.2576C197.197 59.3717 197.425 59.4319 197.657 59.4324C197.786 59.4336 197.913 59.4214 198.04 59.3959C198.15 59.3755 198.256 59.3331 198.351 59.2713C198.439 59.2126 198.511 59.1345 198.565 59.0431C198.621 58.938 198.649 58.8194 198.645 58.7C198.647 58.5949 198.618 58.4915 198.562 58.4031C198.505 58.3147 198.424 58.2451 198.328 58.2033C198.036 58.0653 197.731 57.9617 197.415 57.8946C197.291 57.8658 197.159 57.8275 197.02 57.7833C196.884 57.7402 196.754 57.6754 196.638 57.5917C196.518 57.5045 196.419 57.3936 196.343 57.2656C196.263 57.1152 196.223 56.9458 196.229 56.7748C196.222 56.594 196.259 56.4141 196.339 56.2522C196.419 56.0901 196.54 55.9513 196.687 55.8486C196.832 55.7484 196.993 55.6745 197.163 55.6301C197.343 55.5822 197.529 55.5584 197.715 55.5591C198.008 55.5585 198.297 55.624 198.561 55.7508C198.818 55.8681 199.032 56.0616 199.175 56.305L198.689 56.6482Z" fill="#736E91"/>
<path d="M202.631 54.0482C202.633 54.1063 202.622 54.1641 202.598 54.2175C202.575 54.2709 202.541 54.3185 202.498 54.3569C202.419 54.4335 202.313 54.4768 202.203 54.4776C202.094 54.4767 201.989 54.4334 201.911 54.3569C201.868 54.3174 201.835 54.2696 201.812 54.2165C201.789 54.1633 201.777 54.1061 201.777 54.0482C201.777 53.9903 201.789 53.9329 201.812 53.8798C201.835 53.8267 201.868 53.7789 201.911 53.7395C201.989 53.6629 202.094 53.6196 202.203 53.6187C202.313 53.6194 202.419 53.6627 202.498 53.7395C202.541 53.7779 202.575 53.8254 202.598 53.8788C202.622 53.9321 202.633 53.9899 202.631 54.0482ZM202.507 59.8388H201.901V55.657H202.507V59.8388Z" fill="#736E91"/>
<path d="M206.129 55.6567C206.14 55.7698 206.149 55.8945 206.155 56.0402C206.161 56.186 206.155 56.2895 206.155 56.3796H206.173C206.298 56.1267 206.498 55.9191 206.745 55.7851C207.003 55.636 207.294 55.5572 207.592 55.557C208.119 55.557 208.515 55.7143 208.779 56.0306C209.056 56.3869 209.197 56.8313 209.174 57.2827V59.8463H208.571V57.5243C208.572 57.3236 208.554 57.1234 208.518 56.9261C208.485 56.7615 208.42 56.6051 208.326 56.4659C208.239 56.3367 208.12 56.2334 207.979 56.1667C207.807 56.0893 207.621 56.0525 207.433 56.0594C207.272 56.0594 207.113 56.0927 206.965 56.1572C206.809 56.2255 206.672 56.3278 206.56 56.4563C206.432 56.6059 206.337 56.7792 206.276 56.9663C206.199 57.2015 206.163 57.4477 206.169 57.695V59.8387H205.564V56.579C205.564 56.4659 205.564 56.3202 205.554 56.1418C205.545 55.9635 205.538 55.8005 205.527 55.6587L206.129 55.6567Z" fill="#736E91"/>
<path d="M216.016 57.6224V57.7566C216.019 57.8077 216.019 57.8589 216.016 57.91H212.562C212.566 58.1124 212.609 58.3122 212.688 58.4987C212.762 58.6792 212.87 58.8433 213.006 58.9818C213.146 59.1194 213.309 59.2299 213.488 59.3079C213.715 59.4018 213.96 59.4418 214.205 59.4249C214.45 59.4079 214.687 59.3344 214.899 59.2101C215.108 59.0828 215.287 58.9097 215.42 58.7038L215.873 59.0624C215.657 59.3521 215.375 59.5849 215.05 59.7411C214.746 59.8793 214.417 59.9493 214.083 59.9464C213.79 59.9488 213.498 59.8927 213.226 59.7815C212.969 59.6779 212.737 59.5211 212.545 59.3212C212.352 59.1195 212.2 58.8825 212.096 58.6233C211.983 58.3458 211.927 58.0486 211.929 57.749C211.927 57.4492 211.981 57.1517 212.091 56.8727C212.192 56.6131 212.343 56.3762 212.535 56.1747C212.729 55.9739 212.962 55.8151 213.219 55.7076C213.477 55.6002 213.753 55.5463 214.031 55.5496C214.328 55.5443 214.621 55.6004 214.895 55.7145C215.132 55.8168 215.344 55.9692 215.518 56.1613C215.687 56.3527 215.817 56.5763 215.899 56.819C215.983 57.0784 216.022 57.3499 216.016 57.6224ZM215.401 57.4306C215.395 57.0686 215.26 56.7208 215.019 56.4509C214.89 56.3184 214.733 56.2156 214.56 56.1494C214.388 56.0832 214.203 56.0552 214.019 56.0673C213.826 56.0651 213.634 56.1029 213.457 56.1785C213.12 56.3228 212.848 56.5871 212.694 56.9206C212.617 57.0819 212.572 57.2562 212.56 57.4345L215.401 57.4306Z" fill="#736E91"/>
<path d="M221 56.6481C220.908 56.4714 220.767 56.3245 220.595 56.2243C220.408 56.1122 220.194 56.0551 219.976 56.0593C219.869 56.0594 219.761 56.0711 219.656 56.0939C219.554 56.1158 219.458 56.1555 219.37 56.2108C219.293 56.2637 219.227 56.3339 219.18 56.4159C219.129 56.5057 219.102 56.6077 219.103 56.7113C219.1 56.8011 219.12 56.8902 219.163 56.9695C219.205 57.0487 219.268 57.1151 219.344 57.1619C219.581 57.2953 219.839 57.385 220.108 57.4265C220.502 57.4857 220.875 57.6375 221.198 57.8694C221.314 57.9631 221.405 58.0823 221.467 58.2177C221.528 58.3533 221.557 58.5012 221.551 58.6499C221.558 58.86 221.511 59.0684 221.412 59.2538C221.324 59.4134 221.201 59.5511 221.053 59.6565C220.901 59.762 220.729 59.8374 220.549 59.879C220.362 59.9247 220.169 59.9473 219.976 59.9461C219.66 59.9468 219.349 59.8816 219.059 59.7543C218.762 59.6223 218.51 59.4081 218.331 59.1369L218.811 58.7802C218.933 58.979 219.103 59.1432 219.306 59.2573C219.508 59.3715 219.736 59.4316 219.968 59.4322C220.097 59.4337 220.225 59.4214 220.35 59.3957C220.462 59.3753 220.568 59.3329 220.664 59.271C220.751 59.2122 220.823 59.1341 220.876 59.0429C220.932 58.9377 220.959 58.8192 220.956 58.6997C220.958 58.5949 220.929 58.4919 220.873 58.4035C220.817 58.3152 220.736 58.2454 220.64 58.2031C220.349 58.0657 220.043 57.9622 219.728 57.8944C219.604 57.8656 219.472 57.8273 219.333 57.7832C219.196 57.74 219.067 57.6753 218.951 57.5914C218.831 57.5049 218.731 57.3938 218.656 57.2654C218.575 57.1152 218.535 56.9457 218.54 56.7745C218.535 56.5833 218.579 56.3938 218.667 56.2243C218.746 56.0722 218.859 55.9409 218.998 55.8408C219.144 55.7406 219.305 55.6666 219.476 55.6222C219.656 55.5742 219.842 55.5503 220.028 55.5512C220.32 55.5505 220.61 55.616 220.874 55.743C221.13 55.8597 221.344 56.0533 221.486 56.2971L221 56.6481Z" fill="#736E91"/>
<path d="M226.42 56.6481C226.326 56.4718 226.187 56.3252 226.015 56.2243C225.828 56.1123 225.614 56.0552 225.396 56.0594C225.289 56.0595 225.181 56.0711 225.076 56.094C224.974 56.116 224.878 56.1555 224.792 56.2109C224.713 56.2637 224.647 56.334 224.6 56.4161C224.548 56.5053 224.521 56.6076 224.524 56.7113C224.52 56.8012 224.541 56.8902 224.583 56.9695C224.626 57.0487 224.688 57.1152 224.765 57.1619C225.001 57.2953 225.26 57.3849 225.528 57.4265C225.922 57.4862 226.295 57.6379 226.619 57.8694C226.734 57.9633 226.825 58.0826 226.886 58.2181C226.947 58.3535 226.975 58.5014 226.969 58.6499C226.977 58.8597 226.93 59.0678 226.832 59.2539C226.744 59.414 226.621 59.5517 226.472 59.6566C226.32 59.7623 226.149 59.8378 225.969 59.879C225.782 59.9246 225.589 59.9472 225.396 59.9461C225.081 59.9472 224.769 59.8818 224.48 59.7543C224.183 59.6228 223.93 59.4086 223.751 59.137L224.23 58.7803C224.352 58.979 224.521 59.1433 224.724 59.2573C224.927 59.3715 225.155 59.4316 225.387 59.4322C225.516 59.4337 225.643 59.4214 225.768 59.3958C225.88 59.3756 225.986 59.3333 226.079 59.2711C226.175 59.2099 226.253 59.1245 226.304 59.0234C226.356 58.9223 226.379 58.8093 226.374 58.6959C226.376 58.5909 226.347 58.4876 226.29 58.3992C226.234 58.3107 226.153 58.2412 226.057 58.1992C225.766 58.0615 225.46 57.958 225.147 57.8905C225.022 57.8618 224.889 57.8234 224.749 57.7793C224.612 57.7364 224.484 57.6717 224.368 57.5876C224.247 57.5016 224.147 57.3904 224.073 57.2616C223.991 57.1117 223.95 56.942 223.957 56.7708C223.949 56.59 223.986 56.4102 224.066 56.2482C224.147 56.0861 224.267 55.9473 224.415 55.8446C224.56 55.7441 224.722 55.6701 224.892 55.626C225.072 55.5781 225.257 55.5542 225.445 55.5551C225.737 55.5545 226.024 55.62 226.288 55.7468C226.545 55.8636 226.76 56.0571 226.903 56.301L226.42 56.6481Z" fill="#736E91"/>
</svg>
