<svg width="189" height="57" viewBox="0 0 189 57" fill="none" xmlns="http://www.w3.org/2000/svg">
<g clip-path="url(#clip0_41_922)">
<path d="M22.5046 57.0001C20.7881 57.0001 18.3088 55.6701 16.9738 52.8201C15.448 49.7801 15.8295 46.9301 17.9274 44.2701C24.4117 36.1001 30.7054 27.9301 37.1897 19.9501C41.5762 14.2501 46.1534 8.55006 50.5399 2.85006C53.0192 -0.189941 56.4521 -0.949941 59.6943 0.570059C62.9364 2.09006 64.8436 5.32006 64.0807 8.93006C63.89 10.2601 63.1272 11.7801 62.3643 12.7301C51.6842 26.4101 41.004 40.0901 30.3239 53.5801C28.6075 55.8601 26.5096 57.0001 22.5046 57.0001Z" fill="#736E91"/>
<path d="M17.9273 36.67L13.3501 41.8C13.3501 41.8 8.96366 45.6 4.00503 41.61C1.14429 39.52 0.190705 35.15 2.86074 32.11C5.9122 28.69 4.7679 29.83 7.43793 27.17C10.108 24.51 14.3037 24.89 16.783 27.36C21.7417 32.3 17.9273 36.67 17.9273 36.67Z" fill="#736E91"/>
<path d="M73.0444 55.67L60.2664 27.36H67.7043L74.7608 43.51C75.1423 41.42 81.6266 27.36 81.6266 27.36H89.2553L76.668 55.67H73.0444Z" fill="#736E91"/>
<path d="M92.6882 18.8099C92.6882 17.6699 93.0696 16.7199 93.8325 15.9599C94.5953 15.1999 95.5489 14.8199 96.6932 14.8199C97.8375 14.8199 98.7911 15.1999 99.554 15.9599C100.317 16.7199 100.698 17.6699 100.698 18.8099C100.698 19.9499 100.317 20.8999 99.554 21.6599C98.7911 22.4199 97.8375 22.7999 96.6932 22.7999C95.5489 22.7999 94.5953 22.4199 93.8325 21.6599C93.0696 20.8999 92.6882 19.9499 92.6882 18.8099ZM93.2603 55.2899V27.3599H100.126V55.4799H93.2603V55.2899Z" fill="#736E91"/>
<path d="M125.873 28.69V34.58C123.775 33.44 120.914 31.73 117.863 31.73C116.528 31.73 115.574 31.92 115.002 32.49C114.43 33.06 113.858 33.63 113.858 34.39C113.858 34.77 113.858 34.96 114.048 35.15C114.239 35.34 114.239 35.72 114.621 35.91C114.811 36.1 123.012 39.33 125.682 42.37C126.826 43.7 127.589 45.03 127.589 46.93C127.589 49.59 126.636 51.68 124.538 53.01C122.44 54.53 119.77 55.29 116.337 55.29C112.523 55.29 109.471 54.72 107.183 53.58V47.5C109.853 49.21 112.713 49.97 115.956 49.97C117.291 49.97 118.244 49.78 119.007 49.21C119.77 48.83 120.151 48.07 120.151 47.31C120.151 46.74 119.961 46.36 119.77 45.98C119.579 45.6 119.007 45.22 118.435 44.84C117.672 44.46 117.291 44.27 116.909 44.08C116.528 43.89 115.765 43.7 114.621 43.13C114.43 43.13 114.43 43.13 114.43 42.94C114.43 42.94 114.239 42.94 114.239 42.75C114.048 42.75 114.048 42.75 113.858 42.56C109.471 40.66 107.183 38 107.183 34.58C107.183 31.92 108.327 30.02 110.425 28.5C112.523 26.98 115.193 26.22 118.435 26.22C122.44 26.6 123.775 27.93 125.873 28.69Z" fill="#736E91"/>
<path d="M133.12 18.8099C133.12 17.6699 133.501 16.7199 134.264 15.9599C135.027 15.1999 135.981 14.8199 137.125 14.8199C138.269 14.8199 139.223 15.1999 139.986 15.9599C140.749 16.7199 141.13 17.6699 141.13 18.8099C141.13 19.9499 140.749 20.8999 139.986 21.6599C139.223 22.4199 138.269 22.7999 137.125 22.7999C135.981 22.7999 135.027 22.4199 134.264 21.6599C133.501 20.8999 133.12 19.9499 133.12 18.8099ZM133.692 55.2899V27.3599H140.558V55.4799H133.692V55.2899Z" fill="#736E91"/>
<path d="M156.578 32.2999V46.5499C156.96 50.7299 163.635 51.2999 167.068 48.4499V54.1499C162.681 56.2399 149.903 58.3299 149.712 46.3599V32.2999H145.326V27.3599H149.712V20.5199H156.578V27.3599L166.114 27.1699V32.1099L156.578 32.2999Z" fill="#736E91"/>
<path d="M179.464 32.2999V46.5499C179.846 50.7299 186.521 51.2999 189.954 48.4499V54.1499C185.567 56.2399 172.789 58.3299 172.598 46.3599V32.2999H168.212V27.3599H172.598V20.5199H179.464V27.3599L189 27.1699V32.1099L179.464 32.2999Z" fill="#736E91"/>
</g>
<defs>
<clipPath id="clip0_41_922">
<rect width="189" height="57" fill="white"/>
</clipPath>
</defs>
</svg>
