<svg width="260" height="70" viewBox="0 0 260 70" fill="none" xmlns="http://www.w3.org/2000/svg">
<path d="M57.5045 63.0001C55.7881 63.0001 53.3088 61.6701 51.9737 58.8201C50.448 55.7801 50.8294 52.9301 52.9273 50.2701C59.4117 42.1001 65.7053 33.9301 72.1897 25.9501C76.5762 20.2501 81.1534 14.5501 85.5398 8.85006C88.0192 5.81006 91.452 5.05006 94.6942 6.57006C97.9364 8.09006 99.8436 11.3201 99.0807 14.9301C98.89 16.2601 98.1271 17.7801 97.3643 18.7301C86.6841 32.4101 76.004 46.0901 65.3239 59.5801C63.6074 61.8601 61.5096 63.0001 57.5045 63.0001Z" fill="#736E91"/>
<path d="M52.9273 42.6701L48.3501 47.8001C48.3501 47.8001 43.9637 51.6001 39.005 47.6101C36.1443 45.5201 35.1907 41.1501 37.8607 38.1101C40.9122 34.6901 39.7679 35.8301 42.4379 33.1701C45.108 30.5101 49.3037 30.8901 51.783 33.3601C56.7417 38.3001 52.9273 42.6701 52.9273 42.6701Z" fill="#736E91"/>
<path d="M108.044 61.6701L95.2664 33.3601H102.704L109.761 49.5101C110.142 47.4201 116.627 33.3601 116.627 33.3601H124.255L111.668 61.6701H108.044Z" fill="#736E91"/>
<path d="M127.688 24.8101C127.688 23.6701 128.07 22.7201 128.833 21.9601C129.595 21.2001 130.549 20.8201 131.693 20.8201C132.838 20.8201 133.791 21.2001 134.554 21.9601C135.317 22.7201 135.698 23.6701 135.698 24.8101C135.698 25.9501 135.317 26.9001 134.554 27.6601C133.791 28.4201 132.838 28.8001 131.693 28.8001C130.549 28.8001 129.595 28.4201 128.833 27.6601C128.07 26.9001 127.688 25.9501 127.688 24.8101ZM128.26 61.2901V33.3601H135.126V61.4801H128.26V61.2901Z" fill="#736E91"/>
<path d="M160.873 34.6901V40.5801C158.775 39.4401 155.914 37.7301 152.863 37.7301C151.528 37.7301 150.574 37.9201 150.002 38.4901C149.43 39.0601 148.858 39.6301 148.858 40.3901C148.858 40.7701 148.858 40.9601 149.048 41.1501C149.239 41.3401 149.239 41.7201 149.621 41.9101C149.811 42.1001 158.012 45.3301 160.682 48.3701C161.826 49.7001 162.589 51.0301 162.589 52.9301C162.589 55.5901 161.636 57.6801 159.538 59.0101C157.44 60.5301 154.77 61.2901 151.337 61.2901C147.523 61.2901 144.471 60.7201 142.183 59.5801V53.5001C144.853 55.2101 147.713 55.9701 150.956 55.9701C152.291 55.9701 153.244 55.7801 154.007 55.2101C154.77 54.8301 155.151 54.0701 155.151 53.3101C155.151 52.7401 154.961 52.3601 154.77 51.9801C154.579 51.6001 154.007 51.2201 153.435 50.8401C152.672 50.4601 152.291 50.2701 151.909 50.0801C151.528 49.8901 150.765 49.7001 149.621 49.1301C149.43 49.1301 149.43 49.1301 149.43 48.9401C149.43 48.9401 149.239 48.9401 149.239 48.7501C149.048 48.7501 149.048 48.7501 148.858 48.5601C144.471 46.6601 142.183 44.0001 142.183 40.5801C142.183 37.9201 143.327 36.0201 145.425 34.5001C147.523 32.9801 150.193 32.2201 153.435 32.2201C157.44 32.6001 158.775 33.9301 160.873 34.6901Z" fill="#736E91"/>
<path d="M168.12 24.8101C168.12 23.6701 168.502 22.7201 169.264 21.9601C170.027 21.2001 170.981 20.8201 172.125 20.8201C173.269 20.8201 174.223 21.2001 174.986 21.9601C175.749 22.7201 176.13 23.6701 176.13 24.8101C176.13 25.9501 175.749 26.9001 174.986 27.6601C174.223 28.4201 173.269 28.8001 172.125 28.8001C170.981 28.8001 170.027 28.4201 169.264 27.6601C168.502 26.9001 168.12 25.9501 168.12 24.8101ZM168.692 61.2901V33.3601H175.558V61.4801H168.692V61.2901Z" fill="#736E91"/>
<path d="M191.578 38.3V52.55C191.96 56.73 198.635 57.3 202.068 54.45V60.15C197.681 62.24 184.903 64.33 184.712 52.36V38.3H180.326V33.36H184.712V26.52H191.578V33.36L201.114 33.17V38.11L191.578 38.3Z" fill="#736E91"/>
<path d="M214.464 38.3V52.55C214.846 56.73 221.521 57.3 224.954 54.45V60.15C220.567 62.24 207.789 64.33 207.598 52.36V38.3H203.212V33.36H207.598V26.52H214.464V33.36L224 33.17V38.11L214.464 38.3Z" fill="#736E91"/>
</svg>
